<?xml version="1.0" standalone="no"?>
<!DOCTYPE svg PUBLIC "-//W3C//DTD SVG 1.1//EN" "http://www.w3.org/Graphics/SVG/1.1/DTD/svg11.dtd" >
<svg>
<metadata>
Created by FontForge 20090622 at Tue Feb  9 13:56:50 2016
 By deploy user
Copyright &#194;&#169; 2015 Monotype Imaging Inc. All rights reserved.
</metadata>
<defs>
<font id="HelveticaNeueLTArabic-Bold" horiz-adv-x="0" >
  <font-face 
    font-family="HelveticaNeueLT Arabic 55 Roman"
    font-weight="700"
    font-stretch="normal"
    units-per-em="2048"
    panose-1="2 11 8 4 2 2 2 2 2 4"
    ascent="1462"
    descent="-586"
    x-height="1059"
    cap-height="1462"
    bbox="-410 -982 2861 2845"
    underline-thickness="102"
    underline-position="-103"
    unicode-range="U+000D-U+FEFC"
  />
<missing-glyph horiz-adv-x="1049" 
d="M1049 1470v-1470h-1049v1470h1049zM946 102v1264h-844v-1264h844zM530 1247q110 0 182 -74t72 -194q0 -82 -33 -135.5t-98 -112.5q-67 -60 -82.5 -94.5t-15.5 -157.5h-94l-4 40q0 63 8.5 110t47 97.5t72.5 81.5t64.5 70.5t30.5 92.5q0 72 -46.5 123t-109.5 51
q-67 0 -111.5 -48t-56.5 -146l-102 16q14 137 85.5 208.5t190.5 71.5zM455 377h114v-137h-114v137z" />
    <glyph glyph-name="uniFEFB" unicode="&#xfedf;&#xfe8e;" horiz-adv-x="1323" arabic-form="isolated" 
d="M1198 1462v-1462h-1148v242h309v918h276v-918h287v1220h276z" />
    <glyph glyph-name="uniFEFC" unicode="&#xfee0;&#xfe8e;" horiz-adv-x="1371" arabic-form="final" 
d="M1371 0q-31 0 -63 4t-62 16t-56.5 33.5t-45.5 55.5q-25 -38 -59.5 -59.5t-74.5 -32.5t-83.5 -14t-87.5 -3h-789v242h309v918h276v-918h158q36 0 60.5 4.5t40 17.5t22 37.5t6.5 63.5v1097h275v-1073q0 -40 8.5 -68t28.5 -45.5t53.5 -25.5t83.5 -8q17 0 32 -3t26 -14.5
t17.5 -34.5t6.5 -63q0 -72 -19 -99.5t-63 -27.5z" />
    <glyph glyph-name="uniFEF5" unicode="&#xfedf;&#xfe82;" horiz-adv-x="1323" arabic-form="isolated" 
d="M1198 1462v-1462h-1148v242h309v918h276v-918h287v1220h276zM98 1417q30 30 57 49t52 30t47.5 15t43.5 4t46 -5.5t51.5 -14.5t53 -20.5t50.5 -23.5q45 -24 87 -36.5t73 -12.5q19 0 35 8.5t29 22t22 30.5t14 33l111 -47q-19 -47 -39 -83t-45 -61t-56 -37.5t-71 -12.5
q-60 0 -110 15t-99 40q-48 20 -89.5 35.5t-76.5 15.5q-31 0 -56.5 -9.5t-62.5 -35.5z" />
    <glyph glyph-name="uniFEF6" unicode="&#xfee0;&#xfe82;" horiz-adv-x="1371" arabic-form="final" 
d="M1371 0q-31 0 -63 4t-62 16t-56.5 33.5t-45.5 55.5q-25 -38 -59.5 -59.5t-74.5 -32.5t-83.5 -14t-87.5 -3h-789v242h309v918h276v-918h158q36 0 60.5 4.5t40 17.5t22 37.5t6.5 63.5v1097h275v-1073q0 -40 8.5 -68t28.5 -45.5t53.5 -25.5t83.5 -8q17 0 32 -3t26 -14.5
t17.5 -34.5t6.5 -63q0 -72 -19 -99.5t-63 -27.5zM98 1417q30 30 57 49t52 30t47.5 15t43.5 4t46 -5.5t51.5 -14.5t53 -20.5t50.5 -23.5q45 -24 87 -36.5t73 -12.5q19 0 35 8.5t29 22t22 30.5t14 33l111 -47q-19 -47 -39 -83t-45 -61t-56 -37.5t-71 -12.5q-60 0 -110 15
t-99 40q-48 20 -89.5 35.5t-76.5 15.5q-31 0 -56.5 -9.5t-62.5 -35.5z" />
    <glyph glyph-name="uniFEF7" unicode="&#xfedf;&#xfe84;" horiz-adv-x="1323" arabic-form="isolated" 
d="M1198 1462v-1462h-1148v242h309v918h276v-918h287v1220h276zM689 1281h-410v148h84q-11 17 -15.5 43t-4.5 45q0 48 17 84t44 60.5t61.5 37t69.5 12.5t61.5 -6t49.5 -14v-139q-56 12 -78 12q-42 0 -59 -18.5t-17 -47.5t18 -49t68 -20h111v-148z" />
    <glyph glyph-name="uniFEF8" unicode="&#xfee0;&#xfe84;" horiz-adv-x="1371" arabic-form="final" 
d="M1371 0q-31 0 -63 4t-62 16t-56.5 33.5t-45.5 55.5q-25 -38 -59.5 -59.5t-74.5 -32.5t-83.5 -14t-87.5 -3h-789v242h309v918h276v-918h158q36 0 60.5 4.5t40 17.5t22 37.5t6.5 63.5v1097h275v-1073q0 -40 8.5 -68t28.5 -45.5t53.5 -25.5t83.5 -8q17 0 32 -3t26 -14.5
t17.5 -34.5t6.5 -63q0 -72 -19 -99.5t-63 -27.5zM689 1281h-410v148h84q-11 17 -15.5 43t-4.5 45q0 48 17 84t44 60.5t61.5 37t69.5 12.5t61.5 -6t49.5 -14v-139q-56 12 -78 12q-42 0 -59 -18.5t-17 -47.5t18 -49t68 -20h111v-148z" />
    <glyph glyph-name="uniFEF9" unicode="&#xfedf;&#xfe88;" horiz-adv-x="1323" arabic-form="isolated" 
d="M1198 1462v-1462h-1148v242h309v918h276v-918h287v1220h276zM697 -549h-410v148h84q-11 17 -15.5 42t-4.5 42q0 49 17 86t44 62t61.5 37.5t69.5 12.5t61.5 -6t49.5 -14v-142q-28 7 -47.5 10t-30.5 3q-42 0 -59 -18.5t-17 -47.5q0 -13 4 -25t14 -21.5t26.5 -15t41.5 -5.5
h111v-148z" />
    <glyph glyph-name="uniFEFA" unicode="&#xfee0;&#xfe88;" horiz-adv-x="1371" arabic-form="final" 
d="M1371 0q-31 0 -63 4t-62 16t-56.5 33.5t-45.5 55.5q-25 -38 -59.5 -59.5t-74.5 -32.5t-83.5 -14t-87.5 -3h-789v242h309v918h276v-918h158q36 0 60.5 4.5t40 17.5t22 37.5t6.5 63.5v1097h275v-1073q0 -40 8.5 -68t28.5 -45.5t53.5 -25.5t83.5 -8q17 0 32 -3t26 -14.5
t17.5 -34.5t6.5 -63q0 -72 -19 -99.5t-63 -27.5zM697 -549h-410v148h84q-11 17 -15.5 42t-4.5 42q0 49 17 86t44 62t61.5 37.5t69.5 12.5t61.5 -6t49.5 -14v-142q-28 7 -47.5 10t-30.5 3q-42 0 -59 -18.5t-17 -47.5q0 -13 4 -25t14 -21.5t26.5 -15t41.5 -5.5h111v-148z" />
    <glyph glyph-name="uni06440671" unicode="&#xfedf;&#xfb51;" horiz-adv-x="1323" 
d="M1198 1462v-1462h-1148v242h309v918h276v-918h287v1220h276zM609 1369v10q0 13 -2 25.5t-8 22t-17 15t-29 5.5q-13 0 -29 -4.5t-32.5 -12t-32 -18t-27.5 -22.5v-21h177zM432 1502q29 23 61 37t71 14q68 0 105.5 -43t37.5 -119v-125h-449v103h74v164h100v-31z" />
    <glyph glyph-name="uni06440671.fina" unicode="&#xfee0;&#xfb51;" horiz-adv-x="1371" 
d="M1371 0q-31 0 -63 4t-62 16t-56.5 33.5t-45.5 55.5q-25 -38 -59.5 -59.5t-74.5 -32.5t-83.5 -14t-87.5 -3h-789v242h309v918h276v-918h158q36 0 60.5 4.5t40 17.5t22 37.5t6.5 63.5v1097h275v-1073q0 -40 8.5 -68t28.5 -45.5t53.5 -25.5t83.5 -8q17 0 32 -3t26 -14.5
t17.5 -34.5t6.5 -63q0 -72 -19 -99.5t-63 -27.5zM609 1369v10q0 13 -2 25.5t-8 22t-17 15t-29 5.5q-13 0 -29 -4.5t-32.5 -12t-32 -18t-27.5 -22.5v-21h177zM432 1502q29 23 61 37t71 14q68 0 105.5 -43t37.5 -119v-125h-449v103h74v164h100v-31z" />
    <glyph glyph-name="uni0621" unicode="&#x621;" horiz-adv-x="825" arabic-form="isolated" 
d="M762 0h-682v242h108q-8 15 -14 32t-10 34.5t-6 34t-2 28.5q0 85 28 149t74.5 107t106.5 64.5t124 21.5q60 0 109.5 -11.5t87.5 -23.5v-223q-54 14 -88.5 19t-52.5 5q-137 0 -137 -123q0 -34 10.5 -56t29 -35t45.5 -18t60 -5h209v-242z" />
    <glyph glyph-name="uni0622" unicode="&#x622;" horiz-adv-x="526" arabic-form="isolated" 
d="M401 1462v-1462h-276v1462h276zM-110 1776q30 30 57 49t52 30t47.5 15t43.5 4t46 -5.5t51.5 -14.5t53 -20.5t50.5 -23.5q45 -24 87 -36.5t73 -12.5q19 0 35 8.5t29 22t22 30.5t14 33l111 -47q-19 -47 -39 -83t-45 -61t-56 -37.5t-71 -12.5q-60 0 -110 15t-99 40
q-48 20 -89.5 35.5t-76.5 15.5q-31 0 -56.5 -9.5t-62.5 -35.5z" />
    <glyph glyph-name="uniFE82" unicode="&#x622;" horiz-adv-x="539" arabic-form="final" 
d="M623 127q0 -72 -20 -99.5t-62 -27.5h-90q-72 0 -131.5 15.5t-103 52t-67.5 98t-24 153.5v1143h276v-1106q0 -37 6.5 -59.5t19 -34.5t31.5 -16t44 -4h39q16 0 31 -3t26 -14.5t18 -34.5t7 -63zM-114 1776q30 30 57 49t52 30t47.5 15t43.5 4t46 -5.5t51.5 -14.5t53 -20.5
t50.5 -23.5q45 -24 87 -36.5t73 -12.5q19 0 35 8.5t29 22t22 30.5t14 33l111 -47q-19 -47 -39 -83t-45 -61t-56 -37.5t-71 -12.5q-60 0 -110 15t-99 40q-48 20 -89.5 35.5t-76.5 15.5q-31 0 -56.5 -9.5t-62.5 -35.5z" />
    <glyph glyph-name="uni0623" unicode="&#x623;" horiz-adv-x="526" arabic-form="isolated" 
d="M401 1462v-1462h-276v1462h276zM459 1632h-410v148h84q-11 17 -15.5 43t-4.5 45q0 48 17 84t44 60.5t61.5 37t69.5 12.5t61.5 -6t49.5 -14v-139q-56 12 -78 12q-42 0 -59 -18.5t-17 -47.5t18 -49t68 -20h111v-148z" />
    <glyph glyph-name="uniFE84" unicode="&#x623;" horiz-adv-x="539" arabic-form="final" 
d="M623 127q0 -72 -20 -99.5t-62 -27.5h-90q-72 0 -131.5 15.5t-103 52t-67.5 98t-24 153.5v1143h276v-1106q0 -37 6.5 -59.5t19 -34.5t31.5 -16t44 -4h39q16 0 31 -3t26 -14.5t18 -34.5t7 -63zM459 1632h-410v148h84q-11 17 -15.5 43t-4.5 45q0 48 17 84t44 60.5t61.5 37
t69.5 12.5t61.5 -6t49.5 -14v-139q-56 12 -78 12q-42 0 -59 -18.5t-17 -47.5t18 -49t68 -20h111v-148z" />
    <glyph glyph-name="uni0624" unicode="&#x624;" horiz-adv-x="1064" arabic-form="isolated" 
d="M954 127q0 -147 -32 -263t-110 -196t-208 -122t-326 -42h-65v256h49q86 0 149 11t107 30.5t72 45t44 54t23.5 59t9.5 58.5q-65 -18 -155 -18q-85 0 -158.5 25t-127.5 77t-85 130t-31 185q0 92 28 177t82 150t134.5 104t185.5 39q116 0 195.5 -39.5t128 -107t69.5 -157.5
t21 -192v-264zM381 426q0 -88 39.5 -139t117.5 -51q87 0 140 30v140q0 54 -7.5 97.5t-24.5 74t-45 47t-69 16.5t-69.5 -15.5t-46.5 -43.5t-26.5 -68t-8.5 -88zM772 1051h-482v172h97q-6 9 -10 22t-6.5 27t-3.5 27.5t-1 23.5q0 57 18.5 99.5t49.5 71t72 42.5t85 14
q38 0 70.5 -8t56.5 -16v-164q-32 8 -55.5 12t-36.5 4q-48 0 -68 -22.5t-20 -52.5q0 -16 4.5 -30.5t16 -25.5t31.5 -17.5t51 -6.5h131v-172z" />
    <glyph glyph-name="uniFE86" unicode="&#x624;" horiz-adv-x="1090" arabic-form="final" 
d="M943 0q-15 -114 -50.5 -206t-109 -156.5t-195.5 -99t-310 -34.5h-65v256h49q126 0 203 22t120 56.5t59.5 77t22.5 84.5h-131q-94 0 -172 23t-134.5 74t-88 133t-31.5 200q0 86 28.5 168.5t83 146.5t134.5 103t184 39q116 0 195.5 -40t128.5 -112.5t70.5 -173t21.5 -221.5
v-98h134q17 0 32 -3t26 -14.5t17.5 -34.5t6.5 -63q0 -72 -19.5 -99.5t-62.5 -27.5h-147zM381 426q0 -96 42.5 -140t114.5 -44h140v164q0 51 -7.5 94.5t-24.5 74.5t-46 48.5t-72 17.5q-39 0 -67 -15.5t-45.5 -44t-26 -68t-8.5 -87.5zM769 1051h-482v172h97q-6 9 -10 22
t-6.5 27t-3.5 27.5t-1 23.5q0 57 18.5 99.5t49.5 71t72 42.5t85 14q38 0 70.5 -8t56.5 -16v-164q-32 8 -55.5 12t-36.5 4q-48 0 -68 -22.5t-20 -52.5q0 -16 4.5 -30.5t16 -25.5t31.5 -17.5t51 -6.5h131v-172z" />
    <glyph glyph-name="uni0625" unicode="&#x625;" horiz-adv-x="526" arabic-form="isolated" 
d="M401 1462v-1462h-276v1462h276zM447 -549h-410v148h84q-11 17 -15.5 42t-4.5 42q0 49 17 86t44 62t61.5 37.5t69.5 12.5t61.5 -6t49.5 -14v-142q-28 7 -47.5 10t-30.5 3q-42 0 -59 -18.5t-17 -47.5q0 -13 4 -25t14 -21.5t26.5 -15t41.5 -5.5h111v-148z" />
    <glyph glyph-name="uniFE88" unicode="&#x625;" horiz-adv-x="539" arabic-form="final" 
d="M623 127q0 -72 -20 -99.5t-62 -27.5h-90q-72 0 -131.5 15.5t-103 52t-67.5 98t-24 153.5v1143h276v-1106q0 -37 6.5 -59.5t19 -34.5t31.5 -16t44 -4h39q16 0 31 -3t26 -14.5t18 -34.5t7 -63zM463 -549h-410v148h84q-11 17 -15.5 42t-4.5 42q0 49 17 86t44 62t61.5 37.5
t69.5 12.5t61.5 -6t49.5 -14v-142q-28 7 -47.5 10t-30.5 3q-42 0 -59 -18.5t-17 -47.5q0 -13 4 -25t14 -21.5t26.5 -15t41.5 -5.5h111v-148z" />
    <glyph glyph-name="uni0626" unicode="&#x626;" horiz-adv-x="1580" arabic-form="isolated" 
d="M316 39q0 -60 15.5 -113.5t60.5 -93t125 -63t209 -23.5q103 0 178.5 9.5t127.5 26t84.5 37.5t50.5 44t24 46.5t6 43.5q0 29 -17 50.5t-44.5 40t-63 36t-73 38t-73 46.5t-63 61.5t-44.5 82.5t-17 110q0 83 29 166.5t87.5 151t147 109.5t207.5 42q39 0 73.5 -5t63.5 -12
t52 -14.5t38 -13.5v-246q-74 17 -128 22t-83 5q-55 0 -95 -15.5t-66.5 -40.5t-39 -56t-12.5 -62q0 -30 17.5 -53.5t45.5 -44.5t64 -40.5l74 -41t74 -46.5t64 -56t45.5 -70.5t17.5 -89.5q0 -60 -15.5 -120.5t-50.5 -116.5t-91.5 -104.5t-140 -84.5t-195.5 -56.5t-257 -20.5
q-193 0 -324.5 40t-212.5 110t-116 165t-35 206v340h276v-326zM539 551h-482v172h97q-6 9 -10 22t-6.5 27t-3.5 27.5t-1 23.5q0 57 18.5 99.5t49.5 71t72 42.5t85 14q38 0 70.5 -8t56.5 -16v-164q-32 8 -55.5 12t-36.5 4q-48 0 -68 -22.5t-20 -52.5q0 -16 4.5 -30.5
t16 -25.5t31.5 -17.5t51 -6.5h131v-172z" />
    <glyph glyph-name="uniFE8B" unicode="&#x626;" horiz-adv-x="643" arabic-form="initial" 
d="M242 242v598h276v-840h-518q-17 0 -32 3t-26 14.5t-17.5 35t-6.5 64.5q0 72 19.5 98.5t62.5 26.5h242zM610 1051h-482v172h97q-6 9 -10 22t-6.5 27t-3.5 27.5t-1 23.5q0 57 18.5 99.5t49.5 71t72 42.5t85 14q38 0 70.5 -8t56.5 -16v-164q-32 8 -55.5 12t-36.5 4
q-48 0 -68 -22.5t-20 -52.5q0 -16 4.5 -30.5t16 -25.5t31.5 -17.5t51 -6.5h131v-172z" />
    <glyph glyph-name="uniFE8C" unicode="&#x626;" horiz-adv-x="706" arabic-form="medial" 
d="M127 242q36 0 60.5 4.5t40 17.5t22 37.5t6.5 63.5v475h276v-451q0 -40 8 -68t27.5 -45.5t53.5 -25.5t85 -8q16 0 31 -3t26 -14.5t18 -34.5t7 -63q0 -72 -20 -99.5t-62 -27.5q-31 0 -62 4t-60 15.5t-56 33t-49 56.5q-27 -38 -62 -59.5t-75 -32.5t-83.5 -14t-86.5 -3h-172
q-17 0 -32 3t-26 14.5t-17.5 35t-6.5 64.5q0 72 19.5 98.5t62.5 26.5h127zM644 1051h-482v172h97q-6 9 -10 22t-6.5 27t-3.5 27.5t-1 23.5q0 57 18.5 99.5t49.5 71t72 42.5t85 14q38 0 70.5 -8t56.5 -16v-164q-32 8 -55.5 12t-36.5 4q-48 0 -68 -22.5t-20 -52.5
q0 -16 4.5 -30.5t16 -25.5t31.5 -17.5t51 -6.5h131v-172z" />
    <glyph glyph-name="uniFE8A" unicode="&#x626;" horiz-adv-x="1556" arabic-form="final" 
d="M1447 0q5 -19 7.5 -42t2.5 -54q0 -87 -32.5 -160.5t-114.5 -126.5t-221 -83t-352 -30q-137 0 -242 18t-182.5 51t-130 79.5t-84 103t-45 122t-13.5 136.5v351h276v-342q0 -69 21.5 -120.5t71.5 -86.5t131 -52.5t200 -17.5q99 0 171.5 9t123 24t82.5 34t49.5 38.5t24 38
t6.5 32.5q0 28 -28.5 50.5t-80.5 43t-126 40.5t-164 42v252l137 -41.5t129.5 -34.5t119.5 -23.5t107 -8.5h265q16 0 30.5 -3t26 -14.5t18 -34.5t6.5 -63q0 -72 -19.5 -99.5t-61.5 -27.5h-109zM539 551h-482v172h97q-6 9 -10 22t-6.5 27t-3.5 27.5t-1 23.5q0 57 18.5 99.5
t49.5 71t72 42.5t85 14q38 0 70.5 -8t56.5 -16v-164q-32 8 -55.5 12t-36.5 4q-48 0 -68 -22.5t-20 -52.5q0 -16 4.5 -30.5t16 -25.5t31.5 -17.5t51 -6.5h131v-172z" />
    <glyph glyph-name="uni0627" unicode="&#x627;" horiz-adv-x="526" arabic-form="isolated" 
d="M401 1462v-1462h-276v1462h276z" />
    <glyph glyph-name="uniFE8E" unicode="&#x627;" horiz-adv-x="539" arabic-form="final" 
d="M623 127q0 -72 -20 -99.5t-62 -27.5h-90q-72 0 -131.5 15.5t-103 52t-67.5 98t-24 153.5v1143h276v-1106q0 -37 6.5 -59.5t19 -34.5t31.5 -16t44 -4h39q16 0 31 -3t26 -14.5t18 -34.5t7 -63z" />
    <glyph glyph-name="uni0628" unicode="&#x628;" horiz-adv-x="1865" arabic-form="isolated" 
d="M1740 0h-1262q-125 0 -209 18t-135 58t-72.5 103.5t-21.5 154.5v348h276v-309q0 -39 11 -64.5t38 -40.5t73.5 -20.5t117.5 -5.5h908v598h276v-840zM768 -354q0 31 11.5 58t32 47t47.5 32t58 12t58 -12t47.5 -32t32.5 -47t12 -58t-12 -58t-32.5 -47.5t-47.5 -32.5t-58 -12
t-58 12t-47.5 32.5t-32 47.5t-11.5 58z" />
    <glyph glyph-name="uniFE91" unicode="&#x628;" horiz-adv-x="643" arabic-form="initial" 
d="M242 242v598h276v-840h-518q-17 0 -32 3t-26 14.5t-17.5 35t-6.5 64.5q0 72 19.5 98.5t62.5 26.5h242zM209 -348q0 31 11.5 58t32 47t47.5 32t58 12t58 -12t47.5 -32t32.5 -47t12 -58t-12 -58t-32.5 -47.5t-47.5 -32.5t-58 -12t-58 12t-47.5 32.5t-32 47.5t-11.5 58z" />
    <glyph glyph-name="uniFE92" unicode="&#x628;" horiz-adv-x="706" arabic-form="medial" 
d="M127 242q36 0 60.5 4.5t40 17.5t22 37.5t6.5 63.5v475h276v-451q0 -40 8 -68t27.5 -45.5t53.5 -25.5t85 -8q16 0 31 -3t26 -14.5t18 -34.5t7 -63q0 -72 -20 -99.5t-62 -27.5q-31 0 -62 4t-60 15.5t-56 33t-49 56.5q-27 -38 -62 -59.5t-75 -32.5t-83.5 -14t-86.5 -3h-172
q-17 0 -32 3t-26 14.5t-17.5 35t-6.5 64.5q0 72 19.5 98.5t62.5 26.5h127zM244 -348q0 31 11.5 58t32 47t47.5 32t58 12t58 -12t47.5 -32t32.5 -47t12 -58t-12 -58t-32.5 -47.5t-47.5 -32.5t-58 -12t-58 12t-47.5 32.5t-32 47.5t-11.5 58z" />
    <glyph glyph-name="uniFE90" unicode="&#x628;" horiz-adv-x="1932" arabic-form="final" 
d="M1932 0q-31 0 -63 4t-62 16t-56 33.5t-44 55.5q-27 -38 -62 -59.5t-74.5 -32.5t-82.5 -14t-86 -3h-926q-125 0 -209 18t-134.5 58t-71.5 103.5t-21 154.5v348h276v-311q0 -40 11 -65t38 -39.5t73.5 -19.5t117.5 -5h797q36 0 60.5 4.5t40 17.5t22 37.5t6.5 63.5v475h276
v-451q0 -40 7.5 -68t27 -45.5t53.5 -25.5t86 -8q17 0 32 -3t26 -14.5t17.5 -34.5t6.5 -63q0 -72 -20 -99.5t-62 -27.5zM751 -354q0 31 11.5 58t32 47t47.5 32t58 12t58 -12t47.5 -32t32.5 -47t12 -58t-12 -58t-32.5 -47.5t-47.5 -32.5t-58 -12t-58 12t-47.5 32.5t-32 47.5
t-11.5 58z" />
    <glyph glyph-name="uni0629" unicode="&#x629;" horiz-adv-x="974" arabic-form="isolated" 
d="M448 618q-42 0 -71 -20t-47 -50.5t-26 -67t-8 -68.5q0 -85 37.5 -133t118.5 -48q67 0 107 43.5t40 134.5q0 39 -10 77t-29 67t-47 47t-65 18zM20 390q0 95 30.5 181.5t86.5 152t135 104t176 38.5q87 0 164.5 -31t135.5 -91.5t92 -149.5t34 -204q0 -77 -23 -149
t-73 -127.5t-130.5 -88.5t-195.5 -33q-89 0 -168 23.5t-137.5 72.5t-92.5 124t-34 178zM122 1204q0 31 12 58t32.5 47.5t47.5 32.5t58 12t58 -12t47 -32.5t32 -47.5t12 -58t-12 -58t-32 -47.5t-47 -32t-58 -11.5t-58 11.5t-47.5 32t-32.5 47.5t-12 58zM466 1204q0 31 12 58
t32.5 47.5t47.5 32.5t58 12t58 -12t47 -32.5t32 -47.5t12 -58t-12 -58t-32 -47.5t-47 -32t-58 -11.5t-58 11.5t-47.5 32t-32.5 47.5t-12 58z" />
    <glyph glyph-name="uniFE94" unicode="&#x629;" horiz-adv-x="1000" arabic-form="final" 
d="M288 549q0 -27 6 -55t22.5 -50.5t45.5 -36.5t74 -14q26 0 54.5 2t59.5 13v290h-106q-79 0 -117.5 -40.5t-38.5 -108.5zM876 0q-51 0 -98.5 7.5t-87.5 26.5t-70.5 52t-46.5 84q-37 -8 -74.5 -13t-75.5 -5q-35 0 -78.5 6.5t-88.5 23t-87.5 44.5t-75.5 71t-53 102t-20 138
q0 115 41 195t105.5 130.5t143 73t154.5 22.5h362v-630q0 -25 3 -41.5t10.5 -26.5t21.5 -14t36 -4h103q17 0 32 -3t26 -14.5t17.5 -34.5t6.5 -63q0 -72 -19.5 -99.5t-62.5 -27.5h-124zM161 1308q0 31 12 58t32.5 47.5t47.5 32.5t58 12t58 -12t47 -32.5t32 -47.5t12 -58
t-12 -58t-32 -47.5t-47 -32t-58 -11.5t-58 11.5t-47.5 32t-32.5 47.5t-12 58zM505 1308q0 31 12 58t32.5 47.5t47.5 32.5t58 12t58 -12t47 -32.5t32 -47.5t12 -58t-12 -58t-32 -47.5t-47 -32t-58 -11.5t-58 11.5t-47.5 32t-32.5 47.5t-12 58z" />
    <glyph glyph-name="uni062A" unicode="&#x62a;" horiz-adv-x="1865" arabic-form="isolated" 
d="M1740 0h-1262q-125 0 -209 18t-135 58t-72.5 103.5t-21.5 154.5v348h276v-309q0 -39 11 -64.5t38 -40.5t73.5 -20.5t117.5 -5.5h908v598h276v-840zM580 1080q0 31 12 58t32.5 47.5t47.5 32.5t58 12t58 -12t47 -32.5t32 -47.5t12 -58t-12 -58t-32 -47.5t-47 -32t-58 -11.5
t-58 11.5t-47.5 32t-32.5 47.5t-12 58zM924 1080q0 31 12 58t32.5 47.5t47.5 32.5t58 12t58 -12t47 -32.5t32 -47.5t12 -58t-12 -58t-32 -47.5t-47 -32t-58 -11.5t-58 11.5t-47.5 32t-32.5 47.5t-12 58z" />
    <glyph glyph-name="uniFE97" unicode="&#x62a;" horiz-adv-x="643" arabic-form="initial" 
d="M242 242v598h276v-840h-518q-17 0 -32 3t-26 14.5t-17.5 35t-6.5 64.5q0 72 19.5 98.5t62.5 26.5h242zM36 1204q0 31 12 58t32.5 47.5t47.5 32.5t58 12t58 -12t47 -32.5t32 -47.5t12 -58t-12 -58t-32 -47.5t-47 -32t-58 -11.5t-58 11.5t-47.5 32t-32.5 47.5t-12 58z
M380 1204q0 31 12 58t32.5 47.5t47.5 32.5t58 12t58 -12t47 -32.5t32 -47.5t12 -58t-12 -58t-32 -47.5t-47 -32t-58 -11.5t-58 11.5t-47.5 32t-32.5 47.5t-12 58z" />
    <glyph glyph-name="uniFE98" unicode="&#x62a;" horiz-adv-x="706" arabic-form="medial" 
d="M127 242q36 0 60.5 4.5t40 17.5t22 37.5t6.5 63.5v475h276v-451q0 -40 8 -68t27.5 -45.5t53.5 -25.5t85 -8q16 0 31 -3t26 -14.5t18 -34.5t7 -63q0 -72 -20 -99.5t-62 -27.5q-31 0 -62 4t-60 15.5t-56 33t-49 56.5q-27 -38 -62 -59.5t-75 -32.5t-83.5 -14t-86.5 -3h-172
q-17 0 -32 3t-26 14.5t-17.5 35t-6.5 64.5q0 72 19.5 98.5t62.5 26.5h127zM55 1204q0 31 12 58t32.5 47.5t47.5 32.5t58 12t58 -12t47 -32.5t32 -47.5t12 -58t-12 -58t-32 -47.5t-47 -32t-58 -11.5t-58 11.5t-47.5 32t-32.5 47.5t-12 58zM399 1204q0 31 12 58t32.5 47.5
t47.5 32.5t58 12t58 -12t47 -32.5t32 -47.5t12 -58t-12 -58t-32 -47.5t-47 -32t-58 -11.5t-58 11.5t-47.5 32t-32.5 47.5t-12 58z" />
    <glyph glyph-name="uniFE96" unicode="&#x62a;" horiz-adv-x="1932" arabic-form="final" 
d="M1932 0q-31 0 -63 4t-62 16t-56 33.5t-44 55.5q-27 -38 -62 -59.5t-74.5 -32.5t-82.5 -14t-86 -3h-926q-125 0 -209 18t-134.5 58t-71.5 103.5t-21 154.5v348h276v-311q0 -40 11 -65t38 -39.5t73.5 -19.5t117.5 -5h797q36 0 60.5 4.5t40 17.5t22 37.5t6.5 63.5v475h276
v-451q0 -40 7.5 -68t27 -45.5t53.5 -25.5t86 -8q17 0 32 -3t26 -14.5t17.5 -34.5t6.5 -63q0 -72 -20 -99.5t-62 -27.5zM572 1080q0 31 12 58t32.5 47.5t47.5 32.5t58 12t58 -12t47 -32.5t32 -47.5t12 -58t-12 -58t-32 -47.5t-47 -32t-58 -11.5t-58 11.5t-47.5 32t-32.5 47.5
t-12 58zM916 1080q0 31 12 58t32.5 47.5t47.5 32.5t58 12t58 -12t47 -32.5t32 -47.5t12 -58t-12 -58t-32 -47.5t-47 -32t-58 -11.5t-58 11.5t-47.5 32t-32.5 47.5t-12 58z" />
    <glyph glyph-name="uni062B" unicode="&#x62b;" horiz-adv-x="1865" arabic-form="isolated" 
d="M1740 0h-1262q-125 0 -209 18t-135 58t-72.5 103.5t-21.5 154.5v348h276v-309q0 -39 11 -64.5t38 -40.5t73.5 -20.5t117.5 -5.5h908v598h276v-840zM574 1080q0 31 12 58t32.5 47.5t47.5 32.5t58 12t58 -12t47 -32.5t32 -47.5t12 -58t-12 -58t-32 -47.5t-47 -32t-58 -11.5
t-58 11.5t-47.5 32t-32.5 47.5t-12 58zM918 1080q0 31 12 58t32.5 47.5t47.5 32.5t58 12t58 -12t47 -32.5t32 -47.5t12 -58t-12 -58t-32 -47.5t-47 -32t-58 -11.5t-58 11.5t-47.5 32t-32.5 47.5t-12 58zM750 1385q0 31 12 58.5t33 48.5t48 33t57 12q31 0 58.5 -12t48 -33
t32.5 -48.5t12 -58.5q0 -30 -12 -57t-32.5 -47.5t-48 -32.5t-58.5 -12q-30 0 -57 12t-48 32.5t-33 47.5t-12 57z" />
    <glyph glyph-name="uniFE9B" unicode="&#x62b;" horiz-adv-x="643" arabic-form="initial" 
d="M242 242v598h276v-840h-518q-17 0 -32 3t-26 14.5t-17.5 35t-6.5 64.5q0 72 19.5 98.5t62.5 26.5h242zM36 1204q0 31 12 58t32.5 47.5t47.5 32.5t58 12t58 -12t47 -32.5t32 -47.5t12 -58t-12 -58t-32 -47.5t-47 -32t-58 -11.5t-58 11.5t-47.5 32t-32.5 47.5t-12 58z
M380 1204q0 31 12 58t32.5 47.5t47.5 32.5t58 12t58 -12t47 -32.5t32 -47.5t12 -58t-12 -58t-32 -47.5t-47 -32t-58 -11.5t-58 11.5t-47.5 32t-32.5 47.5t-12 58zM212 1509q0 31 12 58.5t33 48.5t48 33t57 12q31 0 58.5 -12t48 -33t32.5 -48.5t12 -58.5q0 -30 -12 -57
t-32.5 -47.5t-48 -32.5t-58.5 -12q-30 0 -57 12t-48 32.5t-33 47.5t-12 57z" />
    <glyph glyph-name="uniFE9C" unicode="&#x62b;" horiz-adv-x="706" arabic-form="medial" 
d="M127 242q36 0 60.5 4.5t40 17.5t22 37.5t6.5 63.5v475h276v-451q0 -40 8 -68t27.5 -45.5t53.5 -25.5t85 -8q16 0 31 -3t26 -14.5t18 -34.5t7 -63q0 -72 -20 -99.5t-62 -27.5q-31 0 -62 4t-60 15.5t-56 33t-49 56.5q-27 -38 -62 -59.5t-75 -32.5t-83.5 -14t-86.5 -3h-172
q-17 0 -32 3t-26 14.5t-17.5 35t-6.5 64.5q0 72 19.5 98.5t62.5 26.5h127zM55 1204q0 31 12 58t32.5 47.5t47.5 32.5t58 12t58 -12t47 -32.5t32 -47.5t12 -58t-12 -58t-32 -47.5t-47 -32t-58 -11.5t-58 11.5t-47.5 32t-32.5 47.5t-12 58zM399 1204q0 31 12 58t32.5 47.5
t47.5 32.5t58 12t58 -12t47 -32.5t32 -47.5t12 -58t-12 -58t-32 -47.5t-47 -32t-58 -11.5t-58 11.5t-47.5 32t-32.5 47.5t-12 58zM231 1509q0 31 12 58.5t33 48.5t48 33t57 12q31 0 58.5 -12t48 -33t32.5 -48.5t12 -58.5q0 -30 -12 -57t-32.5 -47.5t-48 -32.5t-58.5 -12
q-30 0 -57 12t-48 32.5t-33 47.5t-12 57z" />
    <glyph glyph-name="uniFE9A" unicode="&#x62b;" horiz-adv-x="1932" arabic-form="final" 
d="M1932 0q-31 0 -63 4t-62 16t-56 33.5t-44 55.5q-27 -38 -62 -59.5t-74.5 -32.5t-82.5 -14t-86 -3h-926q-125 0 -209 18t-134.5 58t-71.5 103.5t-21 154.5v348h276v-311q0 -40 11 -65t38 -39.5t73.5 -19.5t117.5 -5h797q36 0 60.5 4.5t40 17.5t22 37.5t6.5 63.5v475h276
v-451q0 -40 7.5 -68t27 -45.5t53.5 -25.5t86 -8q17 0 32 -3t26 -14.5t17.5 -34.5t6.5 -63q0 -72 -20 -99.5t-62 -27.5zM574 1080q0 31 12 58t32.5 47.5t47.5 32.5t58 12t58 -12t47 -32.5t32 -47.5t12 -58t-12 -58t-32 -47.5t-47 -32t-58 -11.5t-58 11.5t-47.5 32t-32.5 47.5
t-12 58zM918 1080q0 31 12 58t32.5 47.5t47.5 32.5t58 12t58 -12t47 -32.5t32 -47.5t12 -58t-12 -58t-32 -47.5t-47 -32t-58 -11.5t-58 11.5t-47.5 32t-32.5 47.5t-12 58zM750 1385q0 31 12 58.5t33 48.5t48 33t57 12q31 0 58.5 -12t48 -33t32.5 -48.5t12 -58.5
q0 -30 -12 -57t-32.5 -47.5t-48 -32.5t-58.5 -12q-30 0 -57 12t-48 32.5t-33 47.5t-12 57z" />
    <glyph glyph-name="uni062C" unicode="&#x62c;" horiz-adv-x="1330" arabic-form="isolated" 
d="M953 242q-5 93 -27 164.5t-65.5 120.5t-110.5 74.5t-161 25.5q-17 0 -44.5 -3t-61.5 -8t-72.5 -12.5t-77.5 -17.5v245q25 9 59.5 18.5t75 18t85 14t88.5 5.5q163 0 275.5 -57t182.5 -153t100.5 -220.5t30.5 -259.5v-197h-622q-75 0 -132.5 -21t-97 -59t-60 -90.5
t-20.5 -116.5q0 -70 24 -124.5t67.5 -92t103.5 -57t133 -19.5q34 0 73 3.5t85 14t101 29.5t122 50l107 -197q-73 -48 -145 -79t-136 -48.5t-116 -24t-85 -6.5q-133 0 -245 32.5t-193.5 99.5t-127.5 169.5t-46 241.5q0 131 42.5 231.5t120.5 168.5t186.5 102.5t240.5 34.5
h343zM537 -291q0 31 11.5 58t32 47t47.5 32t58 12t58 -12t47.5 -32t32.5 -47t12 -58t-12 -58t-32.5 -47.5t-47.5 -32.5t-58 -12t-58 12t-47.5 32.5t-32 47.5t-11.5 58z" />
    <glyph glyph-name="uniFE9F" unicode="&#x62c;" horiz-adv-x="1126" arabic-form="initial" 
d="M751 242q-6 85 -27 156t-63 122t-110 79t-168 28q-16 0 -43.5 -2t-61.5 -7t-72 -13t-75 -19v245q25 9 59 18.5t73.5 18t83 14t87.5 5.5q165 0 278 -57t183 -153t100.5 -220.5t30.5 -259.5v-197h-1026q-17 0 -32 3t-26 14.5t-17.5 35t-6.5 64.5q0 72 19.5 98.5t62.5 26.5
h751zM332 -350q0 31 11.5 58t32 47t47.5 32t58 12t58 -12t47.5 -32t32.5 -47t12 -58t-12 -58t-32.5 -47.5t-47.5 -32.5t-58 -12t-58 12t-47.5 32.5t-32 47.5t-11.5 58z" />
    <glyph glyph-name="uniFEA0" unicode="&#x62c;" horiz-adv-x="1137" arabic-form="medial" 
d="M751 242q-6 85 -26.5 156t-62.5 122t-110 79t-169 28q-17 0 -44.5 -2.5t-61 -7.5t-71.5 -13t-75 -18v245q25 9 59 18.5t74 18t83.5 14t86.5 5.5q160 0 270 -52t179 -140.5t102 -205.5t39 -247h113q17 0 32 -3t26.5 -14.5t18.5 -34.5t7 -63q0 -72 -20 -99.5t-64 -27.5
h-1137q-17 0 -32 3t-26 14.5t-17.5 35t-6.5 64.5q0 72 19.5 98.5t62.5 26.5h751zM332 -350q0 31 11.5 58t32 47t47.5 32t58 12t58 -12t47.5 -32t32.5 -47t12 -58t-12 -58t-32.5 -47.5t-47.5 -32.5t-58 -12t-58 12t-47.5 32.5t-32 47.5t-11.5 58z" />
    <glyph glyph-name="uniFE9E" unicode="&#x62c;" horiz-adv-x="1343" arabic-form="final" 
d="M608 0q-75 0 -132.5 -21t-97 -59t-60 -90.5t-20.5 -116.5q0 -70 24.5 -124.5t68 -92t104 -57t131.5 -19.5q34 0 74 4t87 14.5t101.5 29.5t118.5 49l107 -197q-73 -48 -145 -79t-136 -48.5t-116 -24t-85 -6.5q-132 0 -244 32.5t-194 99.5t-128 169.5t-46 241.5
q0 131 43 231.5t121 168.5t186.5 102.5t239.5 34.5h345q-6 93 -28.5 164.5t-66 120.5t-110.5 74.5t-161 25.5q-16 0 -43.5 -2t-61.5 -6.5t-73 -12.5t-78 -20v245q25 9 59.5 18.5t75 18t85 14t88.5 5.5q156 0 266 -52t180 -140.5t103.5 -205.5t37.5 -247h115q17 0 31.5 -3
t25.5 -14.5t17.5 -34.5t6.5 -63q0 -72 -19 -99.5t-62 -27.5h-735zM537 -291q0 31 11.5 58t32 47t47.5 32t58 12t58 -12t47.5 -32t32.5 -47t12 -58t-12 -58t-32.5 -47.5t-47.5 -32.5t-58 -12t-58 12t-47.5 32.5t-32 47.5t-11.5 58z" />
    <glyph glyph-name="uni062D" unicode="&#x62d;" horiz-adv-x="1330" arabic-form="isolated" 
d="M953 242q-5 93 -27 164.5t-65.5 120.5t-110.5 74.5t-161 25.5q-17 0 -44.5 -3t-61.5 -8t-72.5 -12.5t-77.5 -17.5v245q25 9 59.5 18.5t75 18t85 14t88.5 5.5q163 0 275.5 -57t182.5 -153t100.5 -220.5t30.5 -259.5v-197h-622q-75 0 -132.5 -21t-97 -59t-60 -90.5
t-20.5 -116.5q0 -70 24 -124.5t67.5 -92t103.5 -57t133 -19.5q34 0 73 3.5t85 14t101 29.5t122 50l107 -197q-73 -48 -145 -79t-136 -48.5t-116 -24t-85 -6.5q-133 0 -245 32.5t-193.5 99.5t-127.5 169.5t-46 241.5q0 131 42.5 231.5t120.5 168.5t186.5 102.5t240.5 34.5
h343z" />
    <glyph glyph-name="uniFEA3" unicode="&#x62d;" horiz-adv-x="1126" arabic-form="initial" 
d="M751 242q-6 85 -27 156t-63 122t-110 79t-168 28q-16 0 -43.5 -2t-61.5 -7t-72 -13t-75 -19v245q25 9 59 18.5t73.5 18t83 14t87.5 5.5q165 0 278 -57t183 -153t100.5 -220.5t30.5 -259.5v-197h-1026q-17 0 -32 3t-26 14.5t-17.5 35t-6.5 64.5q0 72 19.5 98.5t62.5 26.5
h751z" />
    <glyph glyph-name="uniFEA4" unicode="&#x62d;" horiz-adv-x="1137" arabic-form="medial" 
d="M751 242q-6 85 -26.5 156t-62.5 122t-110 79t-169 28q-17 0 -44.5 -2.5t-61 -7.5t-71.5 -13t-75 -18v245q25 9 59 18.5t74 18t83.5 14t86.5 5.5q160 0 270 -52t179 -140.5t102 -205.5t39 -247h113q17 0 32 -3t26.5 -14.5t18.5 -34.5t7 -63q0 -72 -20 -99.5t-64 -27.5
h-1137q-17 0 -32 3t-26 14.5t-17.5 35t-6.5 64.5q0 72 19.5 98.5t62.5 26.5h751z" />
    <glyph glyph-name="uniFEA2" unicode="&#x62d;" horiz-adv-x="1343" arabic-form="final" 
d="M608 0q-75 0 -132.5 -21t-97 -59t-60 -90.5t-20.5 -116.5q0 -70 24.5 -124.5t68 -92t104 -57t131.5 -19.5q34 0 74 4t87 14.5t101.5 29.5t118.5 49l107 -197q-73 -48 -145 -79t-136 -48.5t-116 -24t-85 -6.5q-132 0 -244 32.5t-194 99.5t-128 169.5t-46 241.5
q0 131 43 231.5t121 168.5t186.5 102.5t239.5 34.5h345q-6 93 -28.5 164.5t-66 120.5t-110.5 74.5t-161 25.5q-16 0 -43.5 -2t-61.5 -6.5t-73 -12.5t-78 -20v245q25 9 59.5 18.5t75 18t85 14t88.5 5.5q156 0 266 -52t180 -140.5t103.5 -205.5t37.5 -247h115q17 0 31.5 -3
t25.5 -14.5t17.5 -34.5t6.5 -63q0 -72 -19 -99.5t-62 -27.5h-735z" />
    <glyph glyph-name="uni062E" unicode="&#x62e;" horiz-adv-x="1330" arabic-form="isolated" 
d="M953 242q-5 93 -27 164.5t-65.5 120.5t-110.5 74.5t-161 25.5q-17 0 -44.5 -3t-61.5 -8t-72.5 -12.5t-77.5 -17.5v245q25 9 59.5 18.5t75 18t85 14t88.5 5.5q163 0 275.5 -57t182.5 -153t100.5 -220.5t30.5 -259.5v-197h-622q-75 0 -132.5 -21t-97 -59t-60 -90.5
t-20.5 -116.5q0 -70 24 -124.5t67.5 -92t103.5 -57t133 -19.5q34 0 73 3.5t85 14t101 29.5t122 50l107 -197q-73 -48 -145 -79t-136 -48.5t-116 -24t-85 -6.5q-133 0 -245 32.5t-193.5 99.5t-127.5 169.5t-46 241.5q0 131 42.5 231.5t120.5 168.5t186.5 102.5t240.5 34.5
h343zM468 1204q0 31 12 58t32.5 47.5t47.5 32.5t58 12t58 -12t47 -32.5t32 -47.5t12 -58t-12 -58t-32 -47.5t-47 -32t-58 -11.5t-58 11.5t-47.5 32t-32.5 47.5t-12 58z" />
    <glyph glyph-name="uniFEA7" unicode="&#x62e;" horiz-adv-x="1126" arabic-form="initial" 
d="M751 242q-6 85 -27 156t-63 122t-110 79t-168 28q-16 0 -43.5 -2t-61.5 -7t-72 -13t-75 -19v245q25 9 59 18.5t73.5 18t83 14t87.5 5.5q165 0 278 -57t183 -153t100.5 -220.5t30.5 -259.5v-197h-1026q-17 0 -32 3t-26 14.5t-17.5 35t-6.5 64.5q0 72 19.5 98.5t62.5 26.5
h751zM258 1204q0 31 12 58t32.5 47.5t47.5 32.5t58 12t58 -12t47 -32.5t32 -47.5t12 -58t-12 -58t-32 -47.5t-47 -32t-58 -11.5t-58 11.5t-47.5 32t-32.5 47.5t-12 58z" />
    <glyph glyph-name="uniFEA8" unicode="&#x62e;" horiz-adv-x="1137" arabic-form="medial" 
d="M751 242q-6 85 -26.5 156t-62.5 122t-110 79t-169 28q-17 0 -44.5 -2.5t-61 -7.5t-71.5 -13t-75 -18v245q25 9 59 18.5t74 18t83.5 14t86.5 5.5q160 0 270 -52t179 -140.5t102 -205.5t39 -247h113q17 0 32 -3t26.5 -14.5t18.5 -34.5t7 -63q0 -72 -20 -99.5t-64 -27.5
h-1137q-17 0 -32 3t-26 14.5t-17.5 35t-6.5 64.5q0 72 19.5 98.5t62.5 26.5h751zM258 1204q0 31 12 58t32.5 47.5t47.5 32.5t58 12t58 -12t47 -32.5t32 -47.5t12 -58t-12 -58t-32 -47.5t-47 -32t-58 -11.5t-58 11.5t-47.5 32t-32.5 47.5t-12 58z" />
    <glyph glyph-name="uniFEA6" unicode="&#x62e;" horiz-adv-x="1343" arabic-form="final" 
d="M608 0q-75 0 -132.5 -21t-97 -59t-60 -90.5t-20.5 -116.5q0 -70 24.5 -124.5t68 -92t104 -57t131.5 -19.5q34 0 74 4t87 14.5t101.5 29.5t118.5 49l107 -197q-73 -48 -145 -79t-136 -48.5t-116 -24t-85 -6.5q-132 0 -244 32.5t-194 99.5t-128 169.5t-46 241.5
q0 131 43 231.5t121 168.5t186.5 102.5t239.5 34.5h345q-6 93 -28.5 164.5t-66 120.5t-110.5 74.5t-161 25.5q-16 0 -43.5 -2t-61.5 -6.5t-73 -12.5t-78 -20v245q25 9 59.5 18.5t75 18t85 14t88.5 5.5q156 0 266 -52t180 -140.5t103.5 -205.5t37.5 -247h115q17 0 31.5 -3
t25.5 -14.5t17.5 -34.5t6.5 -63q0 -72 -19 -99.5t-62 -27.5h-735zM468 1204q0 31 12 58t32.5 47.5t47.5 32.5t58 12t58 -12t47 -32.5t32 -47.5t12 -58t-12 -58t-32 -47.5t-47 -32t-58 -11.5t-58 11.5t-47.5 32t-32.5 47.5t-12 58z" />
    <glyph glyph-name="uni062F" unicode="&#x62f;" horiz-adv-x="959" arabic-form="isolated" 
d="M859 266q0 -54 -17.5 -102.5t-54 -85t-93 -57.5t-134.5 -21h-510v242h412q49 0 76.5 10t27.5 35q0 13 -3.5 26t-16 34.5t-36.5 57.5l-65 95l-166 250l248 159l184 -297l65 -109.5t46.5 -91t27.5 -77t9 -68.5z" />
    <glyph glyph-name="uniFEAA" unicode="&#x62f;" horiz-adv-x="996" arabic-form="final" 
d="M895 0q-28 0 -53 4t-47.5 15t-43 30t-38.5 48q-31 -34 -66 -53.5t-72.5 -29t-77.5 -12t-80 -2.5h-367v242h418q49 0 73.5 11t24.5 40q0 12 -4.5 25.5t-15.5 32.5t-29 46.5l-45 67.5l-193 285l250 159l262 -428l71 -114t52 -73.5t42 -39.5t40 -12q17 0 32 -3t26 -14.5
t17.5 -34.5t6.5 -63q0 -72 -19.5 -99.5t-62.5 -27.5h-101z" />
    <glyph glyph-name="uni0630" unicode="&#x630;" horiz-adv-x="959" arabic-form="isolated" 
d="M859 266q0 -54 -17.5 -102.5t-54 -85t-93 -57.5t-134.5 -21h-510v242h412q49 0 76.5 10t27.5 35q0 13 -3.5 26t-16 34.5t-36.5 57.5l-65 95l-166 250l248 159l184 -297l65 -109.5t46.5 -91t27.5 -77t9 -68.5zM217 1204q0 31 12 58t32.5 47.5t47.5 32.5t58 12t58 -12
t47 -32.5t32 -47.5t12 -58t-12 -58t-32 -47.5t-47 -32t-58 -11.5t-58 11.5t-47.5 32t-32.5 47.5t-12 58z" />
    <glyph glyph-name="uniFEAC" unicode="&#x630;" horiz-adv-x="996" arabic-form="final" 
d="M895 0q-28 0 -53 4t-47.5 15t-43 30t-38.5 48q-31 -34 -66 -53.5t-72.5 -29t-77.5 -12t-80 -2.5h-367v242h418q49 0 73.5 11t24.5 40q0 12 -4.5 25.5t-15.5 32.5t-29 46.5l-45 67.5l-193 285l250 159l262 -428l71 -114t52 -73.5t42 -39.5t40 -12q17 0 32 -3t26 -14.5
t17.5 -34.5t6.5 -63q0 -72 -19.5 -99.5t-62.5 -27.5h-101zM224 1204q0 31 12 58t32.5 47.5t47.5 32.5t58 12t58 -12t47 -32.5t32 -47.5t12 -58t-12 -58t-32 -47.5t-47 -32t-58 -11.5t-58 11.5t-47.5 32t-32.5 47.5t-12 58z" />
    <glyph glyph-name="uni0631" unicode="&#x631;" horiz-adv-x="682" arabic-form="isolated" 
d="M281 840h276v-833q0 -141 -27 -237t-84 -155t-144 -85t-207 -26h-65v256h33q56 0 97 8t68 34t40 76t13 133v829z" />
    <glyph glyph-name="uniFEAE" unicode="&#x631;" horiz-adv-x="731" arabic-form="final" 
d="M281 840h276v-451q0 -41 13.5 -69.5t35.5 -45.5t50 -24.5t56 -7.5h19q15 0 28 -4.5t23 -17.5t16 -35t6 -58q0 -66 -18.5 -96.5t-54.5 -30.5h-19q-13 0 -32 2t-40.5 8.5t-43 19.5t-39.5 35q0 -281 -111 -421t-351 -140h-65v256h33q56 0 97 8t68 34t40 76t13 133v829z" />
    <glyph glyph-name="uni0632" unicode="&#x632;" horiz-adv-x="682" arabic-form="isolated" 
d="M281 840h276v-833q0 -141 -27 -237t-84 -155t-144 -85t-207 -26h-65v256h33q56 0 97 8t68 34t40 76t13 133v829zM261 1204q0 31 12 58t32.5 47.5t47.5 32.5t58 12t58 -12t47 -32.5t32 -47.5t12 -58t-12 -58t-32 -47.5t-47 -32t-58 -11.5t-58 11.5t-47.5 32t-32.5 47.5
t-12 58z" />
    <glyph glyph-name="uniFEB0" unicode="&#x632;" horiz-adv-x="731" arabic-form="final" 
d="M281 840h276v-451q0 -41 13.5 -69.5t35.5 -45.5t50 -24.5t56 -7.5h19q15 0 28 -4.5t23 -17.5t16 -35t6 -58q0 -66 -18.5 -96.5t-54.5 -30.5h-19q-13 0 -32 2t-40.5 8.5t-43 19.5t-39.5 35q0 -281 -111 -421t-351 -140h-65v256h33q56 0 97 8t68 34t40 76t13 133v829z
M270 1204q0 31 12 58t32.5 47.5t47.5 32.5t58 12t58 -12t47 -32.5t32 -47.5t12 -58t-12 -58t-32 -47.5t-47 -32t-58 -11.5t-58 11.5t-47.5 32t-32.5 47.5t-12 58z" />
    <glyph glyph-name="uni0633" unicode="&#x633;" horiz-adv-x="2424" arabic-form="isolated" 
d="M1443 0q-55 0 -96 7t-71 18t-50 24t-33 25q-2 -163 -42.5 -272.5t-114.5 -175.5t-181 -94t-242 -28q-573 0 -573 547v289h276v-291q0 -148 74.5 -225.5t227.5 -77.5q79 0 136 15.5t94 50t55 89.5t18 134v713h276v-359q0 -68 35.5 -107.5t116.5 -39.5q30 0 55 4t42.5 15.5
t27.5 31t10 51.5v404h276v-359q0 -75 25 -111t97 -36h141v598h276v-840h-322q-60 0 -104 8.5t-74.5 23t-51 35t-34.5 44.5q-27 -35 -58.5 -57t-66 -34t-71.5 -16t-74 -4z" />
    <glyph glyph-name="uniFEB3" unicode="&#x633;" horiz-adv-x="1767" arabic-form="initial" 
d="M1323 0q-57 0 -99.5 8t-75 22t-56.5 34.5t-44 46.5q-27 -35 -58.5 -57t-66 -34t-71.5 -16t-74 -4q-218 0 -305 111q-28 -37 -65 -59t-84 -33.5t-105.5 -15t-128.5 -3.5h-90q-17 0 -32 3t-26 14.5t-17.5 35t-6.5 64.5q0 72 19.5 98.5t62.5 26.5h94q46 0 77 2.5t50 13
t27 31t8 55.5v404h276v-359q0 -68 35.5 -107.5t116.5 -39.5q30 0 55 4t42.5 15.5t27.5 31t10 51.5v404h276v-359q0 -38 6 -65.5t22 -45.5t44 -27t72 -9h129v598h274v-840h-319z" />
    <glyph glyph-name="uniFEB4" unicode="&#x633;" horiz-adv-x="1808" arabic-form="medial" 
d="M473 111q-28 -37 -65 -59t-84 -33.5t-105.5 -15t-128.5 -3.5h-90q-17 0 -32 3t-26 14.5t-17.5 35t-6.5 64.5q0 72 19.5 98.5t62.5 26.5h94q46 0 77 2.5t50 13t27 31t8 55.5v404h276v-359q0 -68 35.5 -107.5t116.5 -39.5q30 0 55 4t42.5 15.5t27.5 31t10 51.5v404h276
v-359q0 -38 6 -65.5t22 -45.5t44 -27t72 -9q26 0 48 4t37.5 16t24.5 33t9 55v490h276v-451q0 -40 8 -68t27.5 -45.5t53.5 -25.5t85 -8q16 0 31 -3t26 -14.5t18 -34.5t7 -63q0 -72 -20 -99.5t-62 -27.5q-31 0 -63 5t-62 17.5t-56.5 34.5t-45.5 56q-29 -38 -61.5 -60t-66 -34
t-67 -15.5t-63.5 -3.5q-57 0 -99.5 8t-75 22t-56.5 34.5t-44 46.5q-27 -35 -58.5 -57t-66 -34t-71.5 -16t-74 -4q-218 0 -305 111z" />
    <glyph glyph-name="uniFEB2" unicode="&#x633;" horiz-adv-x="2472" arabic-form="final" 
d="M2023 840h276v-451q0 -40 8 -68t27.5 -45.5t53.5 -25.5t85 -8q16 0 31 -3t26 -14.5t18 -34.5t7 -63q0 -72 -20 -99.5t-62 -27.5q-31 0 -63 5t-62 17.5t-56.5 34.5t-45.5 56q-29 -38 -61.5 -60t-66 -34t-67 -15.5t-63.5 -3.5q-57 0 -99.5 8t-75 22t-56.5 34.5t-44 46.5
q-27 -35 -58.5 -57t-66 -34t-71.5 -16t-74 -4q-55 0 -96 7t-71 18t-50 24t-33 25q-2 -163 -42.5 -272.5t-114.5 -175.5t-181 -94t-242 -28q-573 0 -573 547v289h276v-291q0 -148 74.5 -225.5t227.5 -77.5q79 0 136 15.5t94 50t55 89.5t18 134v713h276v-359
q0 -68 35.5 -107.5t116.5 -39.5q30 0 55 4t42.5 15.5t27.5 31t10 51.5v404h276v-359q0 -38 6 -65.5t22 -45.5t44 -27t72 -9q26 0 48 4t37.5 16t24.5 33t9 55v490z" />
    <glyph glyph-name="uni0634" unicode="&#x634;" horiz-adv-x="2424" arabic-form="isolated" 
d="M1443 0q-55 0 -96 7t-71 18t-50 24t-33 25q-2 -163 -42.5 -272.5t-114.5 -175.5t-181 -94t-242 -28q-573 0 -573 547v289h276v-291q0 -148 74.5 -225.5t227.5 -77.5q79 0 136 15.5t94 50t55 89.5t18 134v713h276v-359q0 -68 35.5 -107.5t116.5 -39.5q30 0 55 4t42.5 15.5
t27.5 31t10 51.5v404h276v-359q0 -75 25 -111t97 -36h141v598h276v-840h-322q-60 0 -104 8.5t-74.5 23t-51 35t-34.5 44.5q-27 -35 -58.5 -57t-66 -34t-71.5 -16t-74 -4zM1299 1204q0 31 12 58t32.5 47.5t47.5 32.5t58 12t58 -12t47 -32.5t32 -47.5t12 -58t-12 -58
t-32 -47.5t-47 -32t-58 -11.5t-58 11.5t-47.5 32t-32.5 47.5t-12 58zM1643 1204q0 31 12 58t32.5 47.5t47.5 32.5t58 12t58 -12t47 -32.5t32 -47.5t12 -58t-12 -58t-32 -47.5t-47 -32t-58 -11.5t-58 11.5t-47.5 32t-32.5 47.5t-12 58zM1475 1509q0 31 12 58.5t33 48.5t48 33
t57 12q31 0 58.5 -12t48 -33t32.5 -48.5t12 -58.5q0 -30 -12 -57t-32.5 -47.5t-48 -32.5t-58.5 -12q-30 0 -57 12t-48 32.5t-33 47.5t-12 57z" />
    <glyph glyph-name="uniFEB7" unicode="&#x634;" horiz-adv-x="1767" arabic-form="initial" 
d="M1323 0q-57 0 -99.5 8t-75 22t-56.5 34.5t-44 46.5q-27 -35 -58.5 -57t-66 -34t-71.5 -16t-74 -4q-218 0 -305 111q-28 -37 -65 -59t-84 -33.5t-105.5 -15t-128.5 -3.5h-90q-17 0 -32 3t-26 14.5t-17.5 35t-6.5 64.5q0 72 19.5 98.5t62.5 26.5h94q46 0 77 2.5t50 13
t27 31t8 55.5v404h276v-359q0 -68 35.5 -107.5t116.5 -39.5q30 0 55 4t42.5 15.5t27.5 31t10 51.5v404h276v-359q0 -38 6 -65.5t22 -45.5t44 -27t72 -9h129v598h274v-840h-319zM644 1204q0 31 12 58t32.5 47.5t47.5 32.5t58 12t58 -12t47 -32.5t32 -47.5t12 -58t-12 -58
t-32 -47.5t-47 -32t-58 -11.5t-58 11.5t-47.5 32t-32.5 47.5t-12 58zM988 1204q0 31 12 58t32.5 47.5t47.5 32.5t58 12t58 -12t47 -32.5t32 -47.5t12 -58t-12 -58t-32 -47.5t-47 -32t-58 -11.5t-58 11.5t-47.5 32t-32.5 47.5t-12 58zM820 1509q0 31 12 58.5t33 48.5t48 33
t57 12q31 0 58.5 -12t48 -33t32.5 -48.5t12 -58.5q0 -30 -12 -57t-32.5 -47.5t-48 -32.5t-58.5 -12q-30 0 -57 12t-48 32.5t-33 47.5t-12 57z" />
    <glyph glyph-name="uniFEB8" unicode="&#x634;" horiz-adv-x="1808" arabic-form="medial" 
d="M473 111q-28 -37 -65 -59t-84 -33.5t-105.5 -15t-128.5 -3.5h-90q-17 0 -32 3t-26 14.5t-17.5 35t-6.5 64.5q0 72 19.5 98.5t62.5 26.5h94q46 0 77 2.5t50 13t27 31t8 55.5v404h276v-359q0 -68 35.5 -107.5t116.5 -39.5q30 0 55 4t42.5 15.5t27.5 31t10 51.5v404h276
v-359q0 -38 6 -65.5t22 -45.5t44 -27t72 -9q26 0 48 4t37.5 16t24.5 33t9 55v490h276v-451q0 -40 8 -68t27.5 -45.5t53.5 -25.5t85 -8q16 0 31 -3t26 -14.5t18 -34.5t7 -63q0 -72 -20 -99.5t-62 -27.5q-31 0 -63 5t-62 17.5t-56.5 34.5t-45.5 56q-29 -38 -61.5 -60t-66 -34
t-67 -15.5t-63.5 -3.5q-57 0 -99.5 8t-75 22t-56.5 34.5t-44 46.5q-27 -35 -58.5 -57t-66 -34t-71.5 -16t-74 -4q-218 0 -305 111zM644 1204q0 31 12 58t32.5 47.5t47.5 32.5t58 12t58 -12t47 -32.5t32 -47.5t12 -58t-12 -58t-32 -47.5t-47 -32t-58 -11.5t-58 11.5t-47.5 32
t-32.5 47.5t-12 58zM988 1204q0 31 12 58t32.5 47.5t47.5 32.5t58 12t58 -12t47 -32.5t32 -47.5t12 -58t-12 -58t-32 -47.5t-47 -32t-58 -11.5t-58 11.5t-47.5 32t-32.5 47.5t-12 58zM820 1509q0 31 12 58.5t33 48.5t48 33t57 12q31 0 58.5 -12t48 -33t32.5 -48.5t12 -58.5
q0 -30 -12 -57t-32.5 -47.5t-48 -32.5t-58.5 -12q-30 0 -57 12t-48 32.5t-33 47.5t-12 57z" />
    <glyph glyph-name="uniFEB6" unicode="&#x634;" horiz-adv-x="2472" arabic-form="final" 
d="M2023 840h276v-451q0 -40 8 -68t27.5 -45.5t53.5 -25.5t85 -8q16 0 31 -3t26 -14.5t18 -34.5t7 -63q0 -72 -20 -99.5t-62 -27.5q-31 0 -63 5t-62 17.5t-56.5 34.5t-45.5 56q-29 -38 -61.5 -60t-66 -34t-67 -15.5t-63.5 -3.5q-57 0 -99.5 8t-75 22t-56.5 34.5t-44 46.5
q-27 -35 -58.5 -57t-66 -34t-71.5 -16t-74 -4q-55 0 -96 7t-71 18t-50 24t-33 25q-2 -163 -42.5 -272.5t-114.5 -175.5t-181 -94t-242 -28q-573 0 -573 547v289h276v-291q0 -148 74.5 -225.5t227.5 -77.5q79 0 136 15.5t94 50t55 89.5t18 134v713h276v-359
q0 -68 35.5 -107.5t116.5 -39.5q30 0 55 4t42.5 15.5t27.5 31t10 51.5v404h276v-359q0 -38 6 -65.5t22 -45.5t44 -27t72 -9q26 0 48 4t37.5 16t24.5 33t9 55v490zM1297 1204q0 31 12 58t32.5 47.5t47.5 32.5t58 12t58 -12t47 -32.5t32 -47.5t12 -58t-12 -58t-32 -47.5
t-47 -32t-58 -11.5t-58 11.5t-47.5 32t-32.5 47.5t-12 58zM1641 1204q0 31 12 58t32.5 47.5t47.5 32.5t58 12t58 -12t47 -32.5t32 -47.5t12 -58t-12 -58t-32 -47.5t-47 -32t-58 -11.5t-58 11.5t-47.5 32t-32.5 47.5t-12 58zM1473 1509q0 31 12 58.5t33 48.5t48 33t57 12
q31 0 58.5 -12t48 -33t32.5 -48.5t12 -58.5q0 -30 -12 -57t-32.5 -47.5t-48 -32.5t-58.5 -12q-30 0 -57 12t-48 32.5t-33 47.5t-12 57z" />
    <glyph glyph-name="uni0635" unicode="&#x635;" horiz-adv-x="2753" arabic-form="isolated" 
d="M2367 242v100q0 53 -9 106t-32.5 96t-64 69.5t-103.5 26.5q-67 0 -128.5 -31.5t-116 -85.5t-100.5 -126.5t-83 -154.5h637zM1193 74q-2 -163 -42.5 -272.5t-114.5 -175.5t-181 -94t-242 -28q-573 0 -573 547v289h276v-291q0 -148 74.5 -225.5t227.5 -77.5q79 0 136 15.5
t94 50t55 89.5t18 134v713h276v-359q0 -34 12 -61t42 -46t80 -29.5t125 -10.5q47 129 117 245.5t162 205.5t204 141.5t243 52.5q110 0 195.5 -36t144.5 -102.5t90 -160.5t31 -211v-377h-1110q-77 0 -129.5 4.5t-90.5 14t-65.5 23.5t-54.5 32z" />
    <glyph glyph-name="uniFEBB" unicode="&#x635;" horiz-adv-x="1976" arabic-form="initial" 
d="M1590 242v100q0 53 -9 106t-32.5 96t-64 69.5t-103.5 26.5q-67 0 -128.5 -31.5t-116 -85.5t-100.5 -126.5t-83 -154.5h637zM679 242q47 129 117 245.5t162 205.5t204 141.5t243 52.5q110 0 195.5 -36t144.5 -102.5t90 -160.5t31 -211v-377h-1110q-55 0 -100 9.5t-81 25
t-62 35.5t-42 41q-29 -37 -65.5 -59t-83 -33.5t-104.5 -15t-128 -3.5h-90q-17 0 -32 3t-26 14.5t-17.5 35t-6.5 64.5q0 72 19.5 98.5t62.5 26.5h94q45 0 76.5 2.5t51 13t28 31t8.5 55.5v404h268v-359q0 -68 36.5 -107.5t116.5 -39.5z" />
    <glyph glyph-name="uniFEBC" unicode="&#x635;" horiz-adv-x="1998" arabic-form="medial" 
d="M1864 242h134q16 0 31 -3t26 -14.5t18 -34.5t7 -63q0 -72 -20 -99.5t-62 -27.5h-1244q-55 0 -100 9.5t-81 25t-62 35.5t-42 41q-29 -37 -65.5 -59t-83 -33.5t-104.5 -15t-128 -3.5h-88q-17 0 -32 3t-26 14.5t-17.5 35t-6.5 64.5q0 72 19.5 98.5t62.5 26.5h92
q45 0 76.5 2.5t51 13t28 31t8.5 55.5v404h268v-359q0 -68 36.5 -107.5t116.5 -39.5q47 129 117 245.5t162 205.5t204 141.5t243 52.5q110 0 195.5 -36t144.5 -102.5t90 -160.5t31 -211v-135zM1588 242v100q0 53 -9 106t-32.5 96t-64 69.5t-103.5 26.5q-67 0 -128.5 -31.5
t-116 -85.5t-100.5 -126.5t-83 -154.5h637z" />
    <glyph glyph-name="uniFEBA" unicode="&#x635;" horiz-adv-x="2777" arabic-form="final" 
d="M2367 242v100q0 53 -9 106t-32.5 96t-64 69.5t-103.5 26.5q-67 0 -128.5 -31.5t-116 -85.5t-100.5 -126.5t-83 -154.5h637zM1533 0q-77 0 -129.5 4.5t-90.5 14t-65.5 23.5t-54.5 32q-2 -163 -42.5 -272.5t-114.5 -175.5t-181 -94t-242 -28q-573 0 -573 547v289h276v-291
q0 -148 74.5 -225.5t227.5 -77.5q79 0 136 15.5t94 50t55 89.5t18 134v713h276v-359q0 -34 12 -61t42 -46t80 -29.5t125 -10.5q47 129 117 245.5t162 205.5t204 141.5t243 52.5q110 0 195.5 -36t144.5 -102.5t90 -160.5t31 -211v-135h134q17 0 32 -3t26.5 -14.5t18.5 -34.5
t7 -63q0 -72 -20.5 -99.5t-63.5 -27.5h-1244z" />
    <glyph glyph-name="uni0636" unicode="&#x636;" horiz-adv-x="2753" arabic-form="isolated" 
d="M2367 242v100q0 53 -9 106t-32.5 96t-64 69.5t-103.5 26.5q-67 0 -128.5 -31.5t-116 -85.5t-100.5 -126.5t-83 -154.5h637zM1193 74q-2 -163 -42.5 -272.5t-114.5 -175.5t-181 -94t-242 -28q-573 0 -573 547v289h276v-291q0 -148 74.5 -225.5t227.5 -77.5q79 0 136 15.5
t94 50t55 89.5t18 134v713h276v-359q0 -34 12 -61t42 -46t80 -29.5t125 -10.5q47 129 117 245.5t162 205.5t204 141.5t243 52.5q110 0 195.5 -36t144.5 -102.5t90 -160.5t31 -211v-377h-1110q-77 0 -129.5 4.5t-90.5 14t-65.5 23.5t-54.5 32zM2028 1204q0 31 12 58
t32.5 47.5t47.5 32.5t58 12t58 -12t47 -32.5t32 -47.5t12 -58t-12 -58t-32 -47.5t-47 -32t-58 -11.5t-58 11.5t-47.5 32t-32.5 47.5t-12 58z" />
    <glyph glyph-name="uniFEBF" unicode="&#x636;" horiz-adv-x="1976" arabic-form="initial" 
d="M1590 242v100q0 53 -9 106t-32.5 96t-64 69.5t-103.5 26.5q-67 0 -128.5 -31.5t-116 -85.5t-100.5 -126.5t-83 -154.5h637zM679 242q47 129 117 245.5t162 205.5t204 141.5t243 52.5q110 0 195.5 -36t144.5 -102.5t90 -160.5t31 -211v-377h-1110q-55 0 -100 9.5t-81 25
t-62 35.5t-42 41q-29 -37 -65.5 -59t-83 -33.5t-104.5 -15t-128 -3.5h-90q-17 0 -32 3t-26 14.5t-17.5 35t-6.5 64.5q0 72 19.5 98.5t62.5 26.5h94q45 0 76.5 2.5t51 13t28 31t8.5 55.5v404h268v-359q0 -68 36.5 -107.5t116.5 -39.5zM1230 1204q0 31 12 58t32.5 47.5
t47.5 32.5t58 12t58 -12t47 -32.5t32 -47.5t12 -58t-12 -58t-32 -47.5t-47 -32t-58 -11.5t-58 11.5t-47.5 32t-32.5 47.5t-12 58z" />
    <glyph glyph-name="uniFEC0" unicode="&#x636;" horiz-adv-x="1998" arabic-form="medial" 
d="M1864 242h134q16 0 31 -3t26 -14.5t18 -34.5t7 -63q0 -72 -20 -99.5t-62 -27.5h-1244q-55 0 -100 9.5t-81 25t-62 35.5t-42 41q-29 -37 -65.5 -59t-83 -33.5t-104.5 -15t-128 -3.5h-88q-17 0 -32 3t-26 14.5t-17.5 35t-6.5 64.5q0 72 19.5 98.5t62.5 26.5h92
q45 0 76.5 2.5t51 13t28 31t8.5 55.5v404h268v-359q0 -68 36.5 -107.5t116.5 -39.5q47 129 117 245.5t162 205.5t204 141.5t243 52.5q110 0 195.5 -36t144.5 -102.5t90 -160.5t31 -211v-135zM1588 242v100q0 53 -9 106t-32.5 96t-64 69.5t-103.5 26.5q-67 0 -128.5 -31.5
t-116 -85.5t-100.5 -126.5t-83 -154.5h637zM1257 1204q0 31 12 58t32.5 47.5t47.5 32.5t58 12t58 -12t47 -32.5t32 -47.5t12 -58t-12 -58t-32 -47.5t-47 -32t-58 -11.5t-58 11.5t-47.5 32t-32.5 47.5t-12 58z" />
    <glyph glyph-name="uniFEBE" unicode="&#x636;" horiz-adv-x="2777" arabic-form="final" 
d="M2367 242v100q0 53 -9 106t-32.5 96t-64 69.5t-103.5 26.5q-67 0 -128.5 -31.5t-116 -85.5t-100.5 -126.5t-83 -154.5h637zM1533 0q-77 0 -129.5 4.5t-90.5 14t-65.5 23.5t-54.5 32q-2 -163 -42.5 -272.5t-114.5 -175.5t-181 -94t-242 -28q-573 0 -573 547v289h276v-291
q0 -148 74.5 -225.5t227.5 -77.5q79 0 136 15.5t94 50t55 89.5t18 134v713h276v-359q0 -34 12 -61t42 -46t80 -29.5t125 -10.5q47 129 117 245.5t162 205.5t204 141.5t243 52.5q110 0 195.5 -36t144.5 -102.5t90 -160.5t31 -211v-135h134q17 0 32 -3t26.5 -14.5t18.5 -34.5
t7 -63q0 -72 -20.5 -99.5t-63.5 -27.5h-1244zM2030 1204q0 31 12 58t32.5 47.5t47.5 32.5t58 12t58 -12t47 -32.5t32 -47.5t12 -58t-12 -58t-32 -47.5t-47 -32t-58 -11.5t-58 11.5t-47.5 32t-32.5 47.5t-12 58z" />
    <glyph glyph-name="uni0637" unicode="&#x637;" horiz-adv-x="1592" arabic-form="isolated" 
d="M1205 242v100q0 53 -9 106t-32.5 96t-64 69.5t-103.5 26.5q-67 0 -128.5 -31.5t-116 -85.5t-100.5 -126.5t-83 -154.5h637zM575 627q41 63 92 111.5t108 81.5t119.5 50t125.5 17q110 0 196 -36t145 -102.5t90 -160.5t31 -211v-377h-1462v242h279v1220h276v-835z" />
    <glyph glyph-name="uniFEC3" unicode="&#x637;" horiz-adv-x="1540" arabic-form="initial" 
d="M968 887q110 0 195.5 -36t144.5 -102.5t90 -160.5t31 -211v-377h-1429q-17 0 -32 3t-26 14.5t-17.5 35t-6.5 64.5q0 72 19.5 98.5t62.5 26.5h247v1220h276v-835q41 63 92 111.5t108 81.5t119.5 50t125.5 17zM944 640q-67 0 -128.5 -31.5t-116 -85.5t-100.5 -126.5
t-83 -154.5h637v100q0 53 -9 106t-32.5 96t-64 69.5t-103.5 26.5z" />
    <glyph glyph-name="uniFEC4" unicode="&#x637;" horiz-adv-x="1565" arabic-form="medial" 
d="M968 887q110 0 195.5 -36t144.5 -102.5t90 -160.5t31 -211v-135h136q16 0 31 -3t26 -14.5t18 -34.5t7 -63q0 -72 -20 -99.5t-62 -27.5h-1565q-17 0 -32 3t-26 14.5t-17.5 35t-6.5 64.5q0 72 19.5 98.5t62.5 26.5h247v1220h276v-835q41 63 92 111.5t108 81.5t119.5 50
t125.5 17zM944 640q-67 0 -128.5 -31.5t-116 -85.5t-100.5 -126.5t-83 -154.5h637v100q0 53 -9 106t-32.5 96t-64 69.5t-103.5 26.5z" />
    <glyph glyph-name="uniFEC2" unicode="&#x637;" horiz-adv-x="1615" arabic-form="final" 
d="M1020 887q110 0 195.5 -36t144.5 -102.5t90 -160.5t31 -211v-135h134q16 0 31 -3t26 -14.5t18 -34.5t7 -63q0 -72 -20 -99.5t-62 -27.5h-1595v242h279v1220h276v-835q41 63 92 111.5t108 81.5t119.5 50t125.5 17zM996 640q-67 0 -128.5 -31.5t-116 -85.5t-100.5 -126.5
t-83 -154.5h637v100q0 53 -9 106t-32.5 96t-64 69.5t-103.5 26.5z" />
    <glyph glyph-name="uni0638" unicode="&#x638;" horiz-adv-x="1592" arabic-form="isolated" 
d="M1205 242v100q0 53 -9 106t-32.5 96t-64 69.5t-103.5 26.5q-67 0 -128.5 -31.5t-116 -85.5t-100.5 -126.5t-83 -154.5h637zM575 627q41 63 92 111.5t108 81.5t119.5 50t125.5 17q110 0 196 -36t145 -102.5t90 -160.5t31 -211v-377h-1462v242h279v1220h276v-835zM604 1204
q0 31 12 58t32.5 47.5t47.5 32.5t58 12t58 -12t47 -32.5t32 -47.5t12 -58t-12 -58t-32 -47.5t-47 -32t-58 -11.5t-58 11.5t-47.5 32t-32.5 47.5t-12 58z" />
    <glyph glyph-name="uniFEC7" unicode="&#x638;" horiz-adv-x="1540" arabic-form="initial" 
d="M968 887q110 0 195.5 -36t144.5 -102.5t90 -160.5t31 -211v-377h-1429q-17 0 -32 3t-26 14.5t-17.5 35t-6.5 64.5q0 72 19.5 98.5t62.5 26.5h247v1220h276v-835q41 63 92 111.5t108 81.5t119.5 50t125.5 17zM944 640q-67 0 -128.5 -31.5t-116 -85.5t-100.5 -126.5
t-83 -154.5h637v100q0 53 -9 106t-32.5 96t-64 69.5t-103.5 26.5zM789 1204q0 31 12 58t32.5 47.5t47.5 32.5t58 12t58 -12t47 -32.5t32 -47.5t12 -58t-12 -58t-32 -47.5t-47 -32t-58 -11.5t-58 11.5t-47.5 32t-32.5 47.5t-12 58z" />
    <glyph glyph-name="uniFEC8" unicode="&#x638;" horiz-adv-x="1565" arabic-form="medial" 
d="M968 887q110 0 195.5 -36t144.5 -102.5t90 -160.5t31 -211v-135h136q16 0 31 -3t26 -14.5t18 -34.5t7 -63q0 -72 -20 -99.5t-62 -27.5h-1565q-17 0 -32 3t-26 14.5t-17.5 35t-6.5 64.5q0 72 19.5 98.5t62.5 26.5h247v1220h276v-835q41 63 92 111.5t108 81.5t119.5 50
t125.5 17zM944 640q-67 0 -128.5 -31.5t-116 -85.5t-100.5 -126.5t-83 -154.5h637v100q0 53 -9 106t-32.5 96t-64 69.5t-103.5 26.5zM813 1204q0 31 12 58t32.5 47.5t47.5 32.5t58 12t58 -12t47 -32.5t32 -47.5t12 -58t-12 -58t-32 -47.5t-47 -32t-58 -11.5t-58 11.5
t-47.5 32t-32.5 47.5t-12 58z" />
    <glyph glyph-name="uniFEC6" unicode="&#x638;" horiz-adv-x="1615" arabic-form="final" 
d="M1020 887q110 0 195.5 -36t144.5 -102.5t90 -160.5t31 -211v-135h134q16 0 31 -3t26 -14.5t18 -34.5t7 -63q0 -72 -20 -99.5t-62 -27.5h-1595v242h279v1220h276v-835q41 63 92 111.5t108 81.5t119.5 50t125.5 17zM996 640q-67 0 -128.5 -31.5t-116 -85.5t-100.5 -126.5
t-83 -154.5h637v100q0 53 -9 106t-32.5 96t-64 69.5t-103.5 26.5zM873 1204q0 31 12 58t32.5 47.5t47.5 32.5t58 12t58 -12t47 -32.5t32 -47.5t12 -58t-12 -58t-32 -47.5t-47 -32t-58 -11.5t-58 11.5t-47.5 32t-32.5 47.5t-12 58z" />
    <glyph glyph-name="uni0639" unicode="&#x639;" horiz-adv-x="1174" arabic-form="isolated" 
d="M20 -295q0 87 20 162.5t57.5 138.5t91 113t120.5 86v6q-38 54 -58 118.5t-20 121.5q0 113 42 195t109 135.5t151.5 79.5t168.5 26q34 0 69 -4t67 -10.5t59 -14t45 -14.5v-249q-69 14 -124.5 23t-99.5 9q-54 0 -93.5 -14.5t-65 -39t-38 -58t-12.5 -70.5q0 -42 11.5 -79
t38.5 -64.5t70.5 -43.5t107.5 -16h336v-242h-465q-76 0 -133.5 -21t-96 -59t-58 -90.5t-19.5 -116.5q0 -70 23.5 -124.5t66 -92t102.5 -57t133 -19.5q34 0 73.5 4t86 15.5t100.5 30.5t119 49l109 -199q-74 -48 -146.5 -79t-136.5 -48.5t-116 -24t-83 -6.5q-133 0 -245 32.5
t-193.5 99.5t-127.5 169.5t-46 241.5z" />
    <glyph glyph-name="uniFECB" unicode="&#x639;" horiz-adv-x="1032" arabic-form="initial" 
d="M202 242q-10 21 -17.5 49t-13 57t-8 56.5t-2.5 46.5q0 113 42 195t109 135.5t151 79.5t167 26q34 0 69 -4t67 -10.5t59.5 -14t45.5 -14.5v-249q-33 5 -68 11t-67 10.5t-57.5 7.5t-40.5 3q-62 0 -105.5 -14.5t-71 -39t-40.5 -58t-13 -70.5q0 -42 12.5 -79t40 -64.5
t71.5 -43.5t106 -16h334v-242h-972q-17 0 -32 3t-26 14.5t-17.5 35t-6.5 64.5q0 72 19.5 98.5t62.5 26.5h202z" />
    <glyph glyph-name="uniFECC" unicode="&#x639;" horiz-adv-x="1117" arabic-form="medial" 
d="M618 650q-75 0 -124.5 -19t-80.5 -39l45 -61l52 -71l53.5 -68.5t49.5 -53.5q28 18 51.5 45.5t39.5 58t25 60.5t9 51q0 15 -4 32.5t-17 31.5t-36.5 23.5t-62.5 9.5zM183 242q44 0 93.5 3t93.5 11l-211 273q6 28 16.5 59t24 59t27.5 51.5t28 37.5q66 71 162.5 111t208.5 40
q97 0 169.5 -25t119.5 -66t70.5 -94t23.5 -108q0 -36 -13 -81.5t-37.5 -93.5t-61 -94t-83.5 -83h303q17 0 32 -3t26 -14.5t17.5 -34.5t6.5 -63q0 -72 -20 -99.5t-62 -27.5h-303q-28 0 -59.5 4.5t-64.5 14t-65.5 24t-60.5 35.5q-94 -35 -184.5 -56.5t-187.5 -21.5h-192
q-17 0 -32 3t-26 14.5t-17.5 35t-6.5 64.5q0 72 19.5 98.5t62.5 26.5h183z" />
    <glyph glyph-name="uniFECA" unicode="&#x639;" horiz-adv-x="1153" arabic-form="final" 
d="M645 650q-34 0 -63.5 -5.5t-55 -13.5t-45.5 -18.5t-35 -20.5l42 -60l50 -69t52 -66t49 -51q28 18 52.5 44.5t42.5 55.5t28 57.5t10 49.5q0 15 -4.5 32.5t-18.5 31.5t-39 23.5t-65 9.5zM847 0q-27 0 -59 5.5t-65 16t-65 26t-60 36.5q-85 -53 -140.5 -104.5t-88 -101.5
t-45.5 -100.5t-13 -101.5q0 -59 23.5 -106.5t65 -80.5t98.5 -50.5t124 -17.5q34 0 71.5 5t82 16t97.5 29.5t118 45.5l104 -197q-75 -49 -146.5 -80t-135 -48t-117 -23.5t-92.5 -6.5q-124 0 -230.5 34.5t-185 98t-123.5 154.5t-45 205q0 91 25 170.5t74.5 151t123.5 136.5
t172 128l-225 289q9 28 20.5 58.5t24 58t26.5 51.5t27 39q68 69 163 110t208 41q97 0 169 -25t119.5 -66t71 -94t23.5 -108q0 -36 -13 -81.5t-37.5 -93.5t-61 -94t-83.5 -83h306q16 0 31 -3t26 -14.5t18 -34.5t7 -63q0 -72 -20 -99.5t-62 -27.5h-306z" />
    <glyph glyph-name="uni063A" unicode="&#x63a;" horiz-adv-x="1174" arabic-form="isolated" 
d="M20 -295q0 87 20 162.5t57.5 138.5t91 113t120.5 86v6q-38 54 -58 118.5t-20 121.5q0 113 42 195t109 135.5t151.5 79.5t168.5 26q34 0 69 -4t67 -10.5t59 -14t45 -14.5v-249q-69 14 -124.5 23t-99.5 9q-54 0 -93.5 -14.5t-65 -39t-38 -58t-12.5 -70.5q0 -42 11.5 -79
t38.5 -64.5t70.5 -43.5t107.5 -16h336v-242h-465q-76 0 -133.5 -21t-96 -59t-58 -90.5t-19.5 -116.5q0 -70 23.5 -124.5t66 -92t102.5 -57t133 -19.5q34 0 73.5 4t86 15.5t100.5 30.5t119 49l109 -199q-74 -48 -146.5 -79t-136.5 -48.5t-116 -24t-83 -6.5q-133 0 -245 32.5
t-193.5 99.5t-127.5 169.5t-46 241.5zM554 1203q0 31 12 58t32.5 47.5t47.5 32.5t58 12t58 -12t47 -32.5t32 -47.5t12 -58t-12 -58t-32 -47.5t-47 -32t-58 -11.5t-58 11.5t-47.5 32t-32.5 47.5t-12 58z" />
    <glyph glyph-name="uniFECF" unicode="&#x63a;" horiz-adv-x="1032" arabic-form="initial" 
d="M202 242q-10 21 -17.5 49t-13 57t-8 56.5t-2.5 46.5q0 113 42 195t109 135.5t151 79.5t167 26q34 0 69 -4t67 -10.5t59.5 -14t45.5 -14.5v-249q-33 5 -68 11t-67 10.5t-57.5 7.5t-40.5 3q-62 0 -105.5 -14.5t-71 -39t-40.5 -58t-13 -70.5q0 -42 12.5 -79t40 -64.5
t71.5 -43.5t106 -16h334v-242h-972q-17 0 -32 3t-26 14.5t-17.5 35t-6.5 64.5q0 72 19.5 98.5t62.5 26.5h202zM492 1204q0 31 12 58t32.5 47.5t47.5 32.5t58 12t58 -12t47 -32.5t32 -47.5t12 -58t-12 -58t-32 -47.5t-47 -32t-58 -11.5t-58 11.5t-47.5 32t-32.5 47.5t-12 58z
" />
    <glyph glyph-name="uniFED0" unicode="&#x63a;" horiz-adv-x="1117" arabic-form="medial" 
d="M618 650q-75 0 -124.5 -19t-80.5 -39l45 -61l52 -71l53.5 -68.5t49.5 -53.5q28 18 51.5 45.5t39.5 58t25 60.5t9 51q0 15 -4 32.5t-17 31.5t-36.5 23.5t-62.5 9.5zM183 242q44 0 93.5 3t93.5 11l-211 273q6 28 16.5 59t24 59t27.5 51.5t28 37.5q66 71 162.5 111t208.5 40
q97 0 169.5 -25t119.5 -66t70.5 -94t23.5 -108q0 -36 -13 -81.5t-37.5 -93.5t-61 -94t-83.5 -83h303q17 0 32 -3t26 -14.5t17.5 -34.5t6.5 -63q0 -72 -20 -99.5t-62 -27.5h-303q-28 0 -59.5 4.5t-64.5 14t-65.5 24t-60.5 35.5q-94 -35 -184.5 -56.5t-187.5 -21.5h-192
q-17 0 -32 3t-26 14.5t-17.5 35t-6.5 64.5q0 72 19.5 98.5t62.5 26.5h183zM476 1204q0 31 12 58t32.5 47.5t47.5 32.5t58 12t58 -12t47 -32.5t32 -47.5t12 -58t-12 -58t-32 -47.5t-47 -32t-58 -11.5t-58 11.5t-47.5 32t-32.5 47.5t-12 58z" />
    <glyph glyph-name="uniFECE" unicode="&#x63a;" horiz-adv-x="1153" arabic-form="final" 
d="M645 650q-34 0 -63.5 -5.5t-55 -13.5t-45.5 -18.5t-35 -20.5l42 -60l50 -69t52 -66t49 -51q28 18 52.5 44.5t42.5 55.5t28 57.5t10 49.5q0 15 -4.5 32.5t-18.5 31.5t-39 23.5t-65 9.5zM847 0q-27 0 -59 5.5t-65 16t-65 26t-60 36.5q-85 -53 -140.5 -104.5t-88 -101.5
t-45.5 -100.5t-13 -101.5q0 -59 23.5 -106.5t65 -80.5t98.5 -50.5t124 -17.5q34 0 71.5 5t82 16t97.5 29.5t118 45.5l104 -197q-75 -49 -146.5 -80t-135 -48t-117 -23.5t-92.5 -6.5q-124 0 -230.5 34.5t-185 98t-123.5 154.5t-45 205q0 91 25 170.5t74.5 151t123.5 136.5
t172 128l-225 289q9 28 20.5 58.5t24 58t26.5 51.5t27 39q68 69 163 110t208 41q97 0 169 -25t119.5 -66t71 -94t23.5 -108q0 -36 -13 -81.5t-37.5 -93.5t-61 -94t-83.5 -83h306q16 0 31 -3t26 -14.5t18 -34.5t7 -63q0 -72 -20 -99.5t-62 -27.5h-306zM503 1204q0 31 12 58
t32.5 47.5t47.5 32.5t58 12t58 -12t47 -32.5t32 -47.5t12 -58t-12 -58t-32 -47.5t-47 -32t-58 -11.5t-58 11.5t-47.5 32t-32.5 47.5t-12 58z" />
    <glyph glyph-name="uni0641" unicode="&#x641;" horiz-adv-x="2132" arabic-form="isolated" 
d="M1457 457q0 -54 13.5 -94.5t36.5 -67.5t54.5 -40t67.5 -13h117v182q0 41 -5.5 79.5t-20.5 68.5t-42.5 48.5t-70.5 18.5q-42 0 -71 -15.5t-46.5 -41t-25 -58.5t-7.5 -67zM476 0q-125 0 -209 18t-134.5 58t-71.5 103.5t-21 154.5v348h276v-311q0 -40 11 -65t38 -39.5
t73.5 -19.5t117.5 -5h666q-9 18 -15 43.5t-10 53.5t-6 56t-2 50q0 83 29 162.5t84 141.5t134.5 100t180.5 38q80 0 141.5 -19.5t106.5 -53.5t75 -79t48.5 -96t26 -104t7.5 -104v-431h-1546zM1453 1204q0 31 12 58t32.5 47.5t47.5 32.5t58 12t58 -12t47 -32.5t32 -47.5
t12 -58t-12 -58t-32 -47.5t-47 -32t-58 -11.5t-58 11.5t-47.5 32t-32.5 47.5t-12 58z" />
    <glyph glyph-name="uniFED3" unicode="&#x641;" horiz-adv-x="1121" arabic-form="initial" 
d="M446 457q0 -54 13.5 -94.5t36.5 -67.5t54.5 -40t67.5 -13h119v182q0 41 -5.5 79.5t-21 68.5t-43 48.5t-70.5 18.5t-72 -15.5t-46.5 -41t-25 -58.5t-7.5 -67zM212 242q-9 18 -15 43.5t-10 53.5t-5.5 56t-1.5 50q0 83 28 162.5t82 141.5t134 100t184 38q80 0 141 -19.5
t106 -53.5t75 -79t48 -96t25.5 -104t7.5 -104v-431h-1011q-17 0 -32 3t-26 14.5t-17.5 35t-6.5 64.5q0 72 19.5 98.5t62.5 26.5h212zM449 1204q0 31 12 58t32.5 47.5t47.5 32.5t58 12t58 -12t47 -32.5t32 -47.5t12 -58t-12 -58t-32 -47.5t-47 -32t-58 -11.5t-58 11.5
t-47.5 32t-32.5 47.5t-12 58z" />
    <glyph glyph-name="uniFED4" unicode="&#x641;" horiz-adv-x="1122" arabic-form="medial" 
d="M186 242q-9 18 -15 43.5t-10 53.5t-5.5 56t-1.5 50q0 83 28.5 162.5t83 141.5t133.5 100t181 38q80 0 141.5 -19.5t106.5 -53.5t75.5 -79t49 -96t26.5 -104t8 -104v-189h135q17 0 32 -3t26 -14.5t17.5 -34.5t6.5 -63q0 -72 -19.5 -99.5t-62.5 -27.5h-1122q-17 0 -32 3
t-26 14.5t-17.5 35t-6.5 64.5q0 72 19.5 98.5t62.5 26.5h186zM418 457q0 -54 13.5 -94.5t36.5 -67.5t54.5 -40t67.5 -13h121v182q0 41 -5 79.5t-20.5 68.5t-43.5 48.5t-73 18.5q-43 0 -72 -15.5t-46.5 -41t-25 -58.5t-7.5 -67zM424 1204q0 31 12 58t32.5 47.5t47.5 32.5
t58 12t58 -12t47 -32.5t32 -47.5t12 -58t-12 -58t-32 -47.5t-47 -32t-58 -11.5t-58 11.5t-47.5 32t-32.5 47.5t-12 58z" />
    <glyph glyph-name="uniFED2" unicode="&#x641;" horiz-adv-x="2160" arabic-form="final" 
d="M478 0q-125 0 -209 18t-135 58t-72.5 103.5t-21.5 154.5v348h276v-311q0 -40 11 -65t38 -39.5t73.5 -19.5t117.5 -5h668q-9 18 -14.5 43.5t-9.5 53.5t-5.5 56t-1.5 50q0 83 28.5 162.5t83 141.5t134 100t180.5 38q80 0 141.5 -19.5t106.5 -53.5t75.5 -79t49 -96
t26.5 -104t8 -104v-189h134q16 0 31 -3t26 -14.5t18 -34.5t7 -63q0 -72 -20 -99.5t-62 -27.5h-1682zM1459 457q0 -54 13.5 -94.5t37 -67.5t54 -40t65.5 -13h121v182q0 41 -5 79.5t-20 68.5t-43 48.5t-73 18.5q-42 0 -71 -15.5t-46.5 -41t-25 -58.5t-7.5 -67zM1453 1204
q0 31 12 58t32.5 47.5t47.5 32.5t58 12t58 -12t47 -32.5t32 -47.5t12 -58t-12 -58t-32 -47.5t-47 -32t-58 -11.5t-58 11.5t-47.5 32t-32.5 47.5t-12 58z" />
    <glyph glyph-name="uni0642" unicode="&#x642;" horiz-adv-x="1555" arabic-form="isolated" 
d="M1445 160q0 -330 -183 -493t-550 -163q-332 0 -502 127.5t-170 393.5v340h276v-281q0 -85 20.5 -148.5t68.5 -105.5t127.5 -63t197.5 -21q120 0 200.5 22t130 59.5t71.5 87t26 103.5q-65 -18 -155 -18q-85 0 -158.5 25t-127.5 77t-85 130t-31 185q0 92 28 177t82 150
t134.5 104t185.5 39q116 0 195.5 -39.5t128 -107t69.5 -157.5t21 -192v-231zM872 426q0 -88 39.5 -139t117.5 -51q87 0 140 30v140q0 54 -7.5 97.5t-24.5 74t-45 47t-69 16.5t-69.5 -15.5t-46.5 -43.5t-26.5 -68t-8.5 -88zM681 1204q0 31 12 58t32.5 47.5t47.5 32.5t58 12
t58 -12t47 -32.5t32 -47.5t12 -58t-12 -58t-32 -47.5t-47 -32t-58 -11.5t-58 11.5t-47.5 32t-32.5 47.5t-12 58zM1025 1204q0 31 12 58t32.5 47.5t47.5 32.5t58 12t58 -12t47 -32.5t32 -47.5t12 -58t-12 -58t-32 -47.5t-47 -32t-58 -11.5t-58 11.5t-47.5 32t-32.5 47.5
t-12 58z" />
    <glyph glyph-name="uniFED7" unicode="&#x642;" horiz-adv-x="1121" arabic-form="initial" 
d="M446 457q0 -54 13.5 -94.5t36.5 -67.5t54.5 -40t67.5 -13h119v182q0 41 -5.5 79.5t-21 68.5t-43 48.5t-70.5 18.5t-72 -15.5t-46.5 -41t-25 -58.5t-7.5 -67zM212 242q-9 18 -15 43.5t-10 53.5t-5.5 56t-1.5 50q0 83 28 162.5t82 141.5t134 100t184 38q80 0 141 -19.5
t106 -53.5t75 -79t48 -96t25.5 -104t7.5 -104v-431h-1011q-17 0 -32 3t-26 14.5t-17.5 35t-6.5 64.5q0 72 19.5 98.5t62.5 26.5h212zM255 1204q0 31 12 58t32.5 47.5t47.5 32.5t58 12t58 -12t47 -32.5t32 -47.5t12 -58t-12 -58t-32 -47.5t-47 -32t-58 -11.5t-58 11.5
t-47.5 32t-32.5 47.5t-12 58zM599 1204q0 31 12 58t32.5 47.5t47.5 32.5t58 12t58 -12t47 -32.5t32 -47.5t12 -58t-12 -58t-32 -47.5t-47 -32t-58 -11.5t-58 11.5t-47.5 32t-32.5 47.5t-12 58z" />
    <glyph glyph-name="uniFED8" unicode="&#x642;" horiz-adv-x="1122" arabic-form="medial" 
d="M186 242q-9 18 -15 43.5t-10 53.5t-5.5 56t-1.5 50q0 83 28.5 162.5t83 141.5t133.5 100t181 38q80 0 141.5 -19.5t106.5 -53.5t75.5 -79t49 -96t26.5 -104t8 -104v-189h135q17 0 32 -3t26 -14.5t17.5 -34.5t6.5 -63q0 -72 -19.5 -99.5t-62.5 -27.5h-1122q-17 0 -32 3
t-26 14.5t-17.5 35t-6.5 64.5q0 72 19.5 98.5t62.5 26.5h186zM418 457q0 -54 13.5 -94.5t36.5 -67.5t54.5 -40t67.5 -13h121v182q0 41 -5 79.5t-20.5 68.5t-43.5 48.5t-73 18.5q-43 0 -72 -15.5t-46.5 -41t-25 -58.5t-7.5 -67zM243 1204q0 31 12 58t32.5 47.5t47.5 32.5
t58 12t58 -12t47 -32.5t32 -47.5t12 -58t-12 -58t-32 -47.5t-47 -32t-58 -11.5t-58 11.5t-47.5 32t-32.5 47.5t-12 58zM587 1204q0 31 12 58t32.5 47.5t47.5 32.5t58 12t58 -12t47 -32.5t32 -47.5t12 -58t-12 -58t-32 -47.5t-47 -32t-58 -11.5t-58 11.5t-47.5 32t-32.5 47.5
t-12 58z" />
    <glyph glyph-name="uniFED6" unicode="&#x642;" horiz-adv-x="1576" arabic-form="final" 
d="M1154 0h-131q-94 0 -172 23t-134.5 74t-88 133t-31.5 200q0 86 28.5 168.5t83 146.5t134.5 103t184 39q116 0 195.5 -40t128.5 -112.5t70.5 -173t21.5 -221.5v-98h133q17 0 32 -3t26 -14.5t17.5 -34.5t6.5 -63q0 -72 -19.5 -99.5t-62.5 -27.5h-146q-21 -117 -76 -209.5
t-144.5 -156t-213.5 -97t-284 -33.5q-332 0 -502 127.5t-170 393.5v340h276v-281q0 -85 20.5 -148.5t68.5 -105.5t127.5 -63t197.5 -21q102 0 177.5 20.5t126.5 55.5t80 81t40 97zM868 426q0 -96 42.5 -140t114.5 -44h140v164q0 51 -7.5 94.5t-24.5 74.5t-46 48.5t-72 17.5
q-39 0 -67 -15.5t-45.5 -44t-26 -68t-8.5 -87.5zM699 1204q0 31 12 58t32.5 47.5t47.5 32.5t58 12t58 -12t47 -32.5t32 -47.5t12 -58t-12 -58t-32 -47.5t-47 -32t-58 -11.5t-58 11.5t-47.5 32t-32.5 47.5t-12 58zM1043 1204q0 31 12 58t32.5 47.5t47.5 32.5t58 12t58 -12
t47 -32.5t32 -47.5t12 -58t-12 -58t-32 -47.5t-47 -32t-58 -11.5t-58 11.5t-47.5 32t-32.5 47.5t-12 58z" />
    <glyph glyph-name="uni0643" unicode="&#x643;" horiz-adv-x="1865" arabic-form="isolated" 
d="M1740 0h-1262q-125 0 -209 18t-135 58t-72.5 103.5t-21.5 154.5v348h276v-311q0 -40 11 -65t38 -39.5t73.5 -19.5t117.5 -5h908v1220h276v-1462zM1125 612h-411v148h86q-6 7 -9.5 18t-5.5 23t-3 24t-1 21q0 48 16.5 85t43 61.5t61 37t70.5 12.5q35 0 62.5 -6t47.5 -14
v-139q-54 12 -77 12q-42 0 -59 -20t-17 -46q0 -29 17.5 -49t68.5 -20h110v-148z" />
    <glyph glyph-name="uniFEDB" unicode="&#x643;" horiz-adv-x="983" arabic-form="initial" 
d="M479 242q64 0 94 23t30 69q0 38 -31.5 87t-91 102t-144.5 107t-192 103v294l724 384v-315l-411 -199v-7q98 -61 168 -116t117.5 -105t75.5 -95.5t42.5 -87.5t18.5 -82t4 -78q0 -25 -6 -58.5t-21 -69.5t-41.5 -71.5t-68 -63.5t-99.5 -45.5t-137 -17.5h-510q-17 0 -32 3
t-26 14.5t-17.5 35t-6.5 64.5q0 72 19.5 98.5t62.5 26.5h479z" />
    <glyph glyph-name="uniFEDC" unicode="&#x643;" horiz-adv-x="1073" arabic-form="medial" 
d="M805 115q-21 -24 -48.5 -45t-63.5 -36.5t-81.5 -24.5t-101.5 -9h-510q-17 0 -32 3t-26 14.5t-17.5 35t-6.5 64.5q0 72 19.5 98.5t62.5 26.5h479q64 0 94 23t30 69q0 38 -34.5 88.5t-96 104.5t-145.5 107.5t-183 98.5v294l724 384v-315l-411 -199v-7q115 -71 189.5 -134
t120.5 -119.5t70 -107.5t37 -97q13 -48 30.5 -83.5t40.5 -59t54.5 -35.5t73.5 -12q18 0 33 -3t26 -14.5t17 -34.5t6 -63q0 -72 -19.5 -99.5t-62.5 -27.5q-34 0 -68.5 3t-68.5 14.5t-67 34.5t-64 63z" />
    <glyph glyph-name="uniFEDA" unicode="&#x643;" horiz-adv-x="1928" arabic-form="final" 
d="M1123 612h-411v148h84q-6 7 -10 18t-6.5 23t-3.5 24t-1 21q0 48 17.5 85t45.5 61.5t62.5 37t69.5 12.5t61 -6t49 -14v-139q-54 12 -77 12q-42 0 -59 -20t-17 -46q0 -29 17.5 -49t68.5 -20h110v-148zM1928 0q-31 0 -62.5 4t-60.5 16t-54.5 33.5t-43.5 55.5
q-27 -38 -62 -59.5t-74.5 -32.5t-82.5 -14t-86 -3h-926q-125 0 -209 18t-134.5 58t-71.5 103.5t-21 154.5v348h274v-311q0 -40 11 -65t38 -39.5t73.5 -19.5t117.5 -5h804q36 0 60.5 4.5t40 17.5t22 37.5t6.5 63.5v1097h271v-1073q0 -40 7 -68t26 -45.5t52 -25.5t85 -8
q17 0 32 -3t26 -14.5t17.5 -34.5t6.5 -63q0 -72 -20 -99.5t-62 -27.5z" />
    <glyph glyph-name="uni0644" unicode="&#x644;" horiz-adv-x="1322" arabic-form="isolated" 
d="M1193 74q0 -160 -40 -269t-115 -176t-182.5 -96t-242.5 -29q-573 0 -573 547v289h276v-291q0 -148 74.5 -225.5t227.5 -77.5q79 0 136 15.5t94 50t55 89.5t18 134v1427h276z" />
    <glyph glyph-name="uniFEDF" unicode="&#x644;" horiz-adv-x="643" arabic-form="initial" 
d="M242 242v1220h276v-1462h-518q-17 0 -32 3t-26 14.5t-17.5 35t-6.5 64.5q0 72 19.5 98.5t62.5 26.5h242z" />
    <glyph glyph-name="uniFEE0" unicode="&#x644;" horiz-adv-x="707" arabic-form="medial" 
d="M127 242q36 0 60.5 4.5t40 17.5t22 37.5t6.5 63.5v1097h276v-1073q0 -39 8 -67t27.5 -45.5t53.5 -26t86 -8.5q16 0 31 -3t26 -14.5t18 -34.5t7 -63q0 -72 -20 -99.5t-62 -27.5q-31 0 -63.5 4t-63 16t-57 33.5t-44.5 55.5q-27 -38 -62 -59.5t-75 -32.5t-83.5 -14t-86.5 -3
h-172q-17 0 -32 3t-26 14.5t-17.5 35t-6.5 64.5q0 72 19.5 98.5t62.5 26.5h127z" />
    <glyph glyph-name="uniFEDE" unicode="&#x644;" horiz-adv-x="1371" arabic-form="final" 
d="M1193 74q-2 -163 -42 -272.5t-114.5 -175.5t-181.5 -94t-242 -28q-573 0 -573 547v289h276v-291q0 -148 74.5 -225.5t227.5 -77.5q79 0 136 15.5t94 50t55 89.5t18 134v1427h276v-1071q0 -42 16 -70.5t41 -46t56 -25t61 -7.5q16 0 31 -3t26 -14.5t18 -34.5t7 -63
q0 -72 -20 -99.5t-62 -27.5q-15 0 -39.5 3t-50 11t-49.5 22.5t-39 37.5z" />
    <glyph glyph-name="uni0645" unicode="&#x645;" horiz-adv-x="1359" arabic-form="isolated" 
d="M985 393q0 34 -10 65.5t-29.5 55.5t-48.5 38.5t-66 14.5q-32 0 -63 -14.5t-58 -46.5t-47 -83t-28 -124q26 -18 55 -31.5t57.5 -22.5t55 -13.5t47.5 -4.5q60 0 97.5 38.5t37.5 127.5zM495 100q-42 -16 -75.5 -41.5t-56.5 -67t-35 -101.5t-12 -144v-584h-276v588
q0 128 18 220.5t57.5 160.5t103 117t153.5 90q15 96 44.5 169t68 126.5t84 89t92.5 57t93 30.5t86 9q99 0 177 -34t132 -91t82 -133t28 -160q0 -93 -25.5 -171t-75.5 -135t-123.5 -88.5t-168.5 -31.5q-179 0 -371 125z" />
    <glyph glyph-name="uniFEE3" unicode="&#x645;" horiz-adv-x="1167" arabic-form="initial" 
d="M791 393q0 31 -7.5 63t-24.5 58t-43.5 42t-64.5 16q-26 0 -54.5 -16.5t-56 -51t-52 -87t-42.5 -124.5q45 -29 97.5 -47.5t106.5 -18.5q67 0 104 38.5t37 127.5zM36 242q28 0 51 7t43.5 25t38.5 50.5t37 83.5q48 129 105 209.5t118 125.5t123 60.5t120 15.5
q81 0 153 -29.5t125.5 -84.5t85 -134.5t31.5 -178.5q0 -91 -24 -167.5t-72 -132t-120 -86.5t-167 -31q-85 0 -171 24.5t-179 86.5q-28 -31 -55.5 -48t-56 -25.5t-59 -10.5t-64.5 -2h-99q-17 0 -32 3t-26 14.5t-17.5 35t-6.5 64.5q0 72 19.5 98.5t62.5 26.5h36z" />
    <glyph glyph-name="uniFEE4" unicode="&#x645;" horiz-adv-x="1196" arabic-form="medial" 
d="M1065 334q10 -25 27 -42.5t35.5 -28.5t37 -16t31.5 -5q17 0 32 -3t26 -14.5t17.5 -34.5t6.5 -63q0 -72 -19.5 -99.5t-62.5 -27.5q-25 0 -50 5t-50 19t-49 39.5t-46 67.5q-45 -73 -125 -114.5t-192 -41.5q-85 0 -171 24.5t-179 86.5q-28 -31 -55.5 -48t-56 -25.5
t-59 -10.5t-64.5 -2h-99q-17 0 -32 3t-26 14.5t-17.5 35t-6.5 64.5q0 72 19.5 98.5t62.5 26.5h36q28 0 51 7t43.5 25t38.5 50.5t37 83.5q48 129 105 209.5t118 125.5t123 60.5t120 15.5q81 0 153 -29.5t125.5 -84.5t85 -134.5t31.5 -178.5v-29.5t-2 -28.5zM791 393
q0 31 -7.5 63t-24.5 58t-43.5 42t-64.5 16q-26 0 -54.5 -16.5t-56 -51t-52 -87t-42.5 -124.5q45 -29 97.5 -47.5t106.5 -18.5q67 0 104 38.5t37 127.5z" />
    <glyph glyph-name="uniFEE2" unicode="&#x645;" horiz-adv-x="1388" arabic-form="final" 
d="M985 393q0 34 -10 65.5t-29.5 55.5t-48.5 38.5t-66 14.5q-32 0 -63 -15.5t-58 -48t-48 -83.5t-32 -121q26 -18 56 -31.5t59.5 -22.5t56.5 -13.5t48 -4.5q60 0 97.5 38.5t37.5 127.5zM1257 334q10 -25 27 -42.5t35.5 -28.5t37 -16t31.5 -5q17 0 32 -3t26 -14.5t17.5 -34.5
t6.5 -63q0 -72 -19.5 -99.5t-62.5 -27.5q-25 0 -53.5 8t-55.5 24.5t-49.5 41t-36.5 57.5q-57 -73 -137.5 -114.5t-189.5 -41.5q-179 0 -371 125q-42 -16 -75.5 -41.5t-56.5 -67t-35 -101.5t-12 -144v-584h-276v588q0 128 18 220.5t57.5 160.5t103 117t153.5 90
q15 96 44.5 169t68 126.5t84 89t92.5 57t93 30.5t86 9q99 0 177 -34t132 -91t82 -133t28 -160v-34t-2 -33z" />
    <glyph glyph-name="uni0646" unicode="&#x646;" horiz-adv-x="1322" arabic-form="isolated" 
d="M1193 275q0 -160 -40 -269t-115 -176t-182.5 -96t-242.5 -29q-573 0 -573 547v289h276v-291q0 -148 74.5 -225.5t227.5 -77.5q79 0 136 15.5t94 50t55 89.5t18 134v579h276zM478 929q0 31 12 58t32.5 47.5t47.5 32.5t58 12t58 -12t47 -32.5t32 -47.5t12 -58t-12 -58
t-32 -47.5t-47 -32t-58 -11.5t-58 11.5t-47.5 32t-32.5 47.5t-12 58z" />
    <glyph glyph-name="uniFEE7" unicode="&#x646;" horiz-adv-x="643" arabic-form="initial" 
d="M242 242v598h276v-840h-518q-17 0 -32 3t-26 14.5t-17.5 35t-6.5 64.5q0 72 19.5 98.5t62.5 26.5h242zM229 1204q0 31 12 58t32.5 47.5t47.5 32.5t58 12t58 -12t47 -32.5t32 -47.5t12 -58t-12 -58t-32 -47.5t-47 -32t-58 -11.5t-58 11.5t-47.5 32t-32.5 47.5t-12 58z" />
    <glyph glyph-name="uniFEE8" unicode="&#x646;" horiz-adv-x="706" arabic-form="medial" 
d="M127 242q36 0 60.5 4.5t40 17.5t22 37.5t6.5 63.5v475h276v-451q0 -40 8 -68t27.5 -45.5t53.5 -25.5t85 -8q16 0 31 -3t26 -14.5t18 -34.5t7 -63q0 -72 -20 -99.5t-62 -27.5q-31 0 -62 4t-60 15.5t-56 33t-49 56.5q-27 -38 -62 -59.5t-75 -32.5t-83.5 -14t-86.5 -3h-172
q-17 0 -32 3t-26 14.5t-17.5 35t-6.5 64.5q0 72 19.5 98.5t62.5 26.5h127zM243 1204q0 31 12 58t32.5 47.5t47.5 32.5t58 12t58 -12t47 -32.5t32 -47.5t12 -58t-12 -58t-32 -47.5t-47 -32t-58 -11.5t-58 11.5t-47.5 32t-32.5 47.5t-12 58z" />
    <glyph glyph-name="uniFEE6" unicode="&#x646;" horiz-adv-x="1371" arabic-form="final" 
d="M1193 74q-2 -163 -42 -272.5t-114.5 -175.5t-181.5 -94t-242 -28q-573 0 -573 547v289h276v-291q0 -148 74.5 -225.5t227.5 -77.5q79 0 136 15.5t94 50t55 89.5t18 134v538h276v-182q0 -42 16 -70.5t41 -46t56 -25t61 -7.5q16 0 31 -3t26 -14.5t18 -34.5t7 -63
q0 -72 -20 -99.5t-62 -27.5q-15 0 -39.5 3t-50 11t-49.5 22.5t-39 37.5zM488 791q0 31 12 58t32.5 47.5t47.5 32.5t58 12t58 -12t47 -32.5t32 -47.5t12 -58t-12 -58t-32 -47.5t-47 -32t-58 -11.5t-58 11.5t-47.5 32t-32.5 47.5t-12 58z" />
    <glyph glyph-name="uniFEE9" unicode="&#x647;" horiz-adv-x="1431" arabic-form="isolated" 
d="M246 436q0 75 18 143t50 124q-25 -2 -50 -2.5t-50 -1.5v211q31 4 68 7t75 5t74.5 3t66.5 1q196 0 350 -37.5t260.5 -123t162.5 -225t56 -343.5v-197h-1045q-13 0 -21 -8.5t-12 -24t-5.5 -36.5t-2.5 -46h-172q-12 31 -21.5 60.5t-15.5 55.5t-9 47t-3 34q0 55 20.5 87
t53 48t71.5 20.5t76 4.5h39q-17 44 -25.5 92.5t-8.5 101.5zM473 436q0 -40 7.5 -75t21 -61t31.5 -41t39 -15t39 15t31.5 41t21 61t7.5 75t-7.5 75t-21 61t-31.5 41t-39 15t-39 -15t-31.5 -41t-21 -61t-7.5 -75zM1049 269q0 76 -13.5 136t-38 105.5t-59 78t-76.5 54.5
q19 -46 29.5 -98t10.5 -109q0 -53 -8.5 -101.5t-25.5 -92.5h181v27z" />
    <glyph glyph-name="uniFEEB" unicode="&#x647;" horiz-adv-x="1402" arabic-form="initial" 
d="M221 436q0 75 18 143t50 124q-25 -2 -50 -2.5t-50 -1.5v211q31 4 68 7t75 5t74.5 3t66.5 1q196 0 350 -37.5t260.5 -123t162.5 -225t56 -343.5v-197h-1302q-17 0 -32 3t-26 14.5t-17.5 35t-6.5 64.5q0 72 19.5 98.5t62.5 26.5h255q-17 44 -25.5 92.5t-8.5 101.5zM448 436
q0 -40 7.5 -75t21 -61t31.5 -41t39 -15t39 15t31.5 41t21 61t7.5 75t-7.5 75t-21 61t-31.5 41t-39 15t-39 -15t-31.5 -41t-21 -61t-7.5 -75zM1024 269q0 76 -13.5 136t-38 105.5t-59 78t-76.5 54.5q19 -46 29.5 -98t10.5 -109q0 -53 -8.5 -101.5t-25.5 -92.5h181v27z" />
    <glyph glyph-name="uniFEEC" unicode="&#x647;" horiz-adv-x="1128" arabic-form="medial" 
d="M201 242v107q0 127 29 227t83 169t131.5 105.5t174.5 36.5q103 0 174 -35.5t115.5 -89.5t64.5 -117t20 -118q0 -34 -3.5 -70.5t-12.5 -73t-23.5 -70t-35.5 -61.5v-10h210q17 0 32 -3t26.5 -14.5t18.5 -34.5t7 -63q0 -72 -20.5 -99.5t-63.5 -27.5h-204v-6q21 -19 34 -43.5
t20 -49.5t9 -46.5t2 -34.5q0 -68 -22 -128.5t-67 -106t-113.5 -72.5t-161.5 -27q-109 0 -189 34t-132 98.5t-77.5 157.5t-25.5 210v14h-201q-17 0 -32 3t-26 14.5t-17.5 35t-6.5 64.5q0 72 19.5 98.5t62.5 26.5h201zM467 242h51q56 0 96 23.5t65 61t36.5 84t11.5 91.5
q0 60 -28 97.5t-92 37.5q-71 0 -105.5 -65.5t-34.5 -192.5v-137zM467 0q0 -61 7 -110.5t25 -85t48.5 -55t77.5 -19.5q53 0 78.5 33t25.5 87q0 21 -6 47.5t-22.5 49t-47.5 38t-80 15.5h-106z" />
    <glyph glyph-name="uniFEEA" unicode="&#x647;" horiz-adv-x="1000" arabic-form="final" 
d="M288 549q0 -27 6 -55t22.5 -50.5t45.5 -36.5t74 -14q26 0 54.5 2t59.5 13v290h-106q-79 0 -117.5 -40.5t-38.5 -108.5zM876 0q-51 0 -98.5 7.5t-87.5 26.5t-70.5 52t-46.5 84q-37 -8 -74.5 -13t-75.5 -5q-35 0 -78.5 6.5t-88.5 23t-87.5 44.5t-75.5 71t-53 102t-20 138
q0 115 41 195t105.5 130.5t143 73t154.5 22.5h362v-630q0 -25 3 -41.5t10.5 -26.5t21.5 -14t36 -4h103q17 0 32 -3t26 -14.5t17.5 -34.5t6.5 -63q0 -72 -19.5 -99.5t-62.5 -27.5h-124z" />
    <glyph glyph-name="uni0648" unicode="&#x648;" horiz-adv-x="1064" arabic-form="isolated" 
d="M954 127q0 -147 -32 -263t-110 -196t-208 -122t-326 -42h-65v256h49q86 0 149 11t107 30.5t72 45t44 54t23.5 59t9.5 58.5q-65 -18 -155 -18q-85 0 -158.5 25t-127.5 77t-85 130t-31 185q0 92 28 177t82 150t134.5 104t185.5 39q116 0 195.5 -39.5t128 -107t69.5 -157.5
t21 -192v-264zM381 426q0 -88 39.5 -139t117.5 -51q87 0 140 30v140q0 54 -7.5 97.5t-24.5 74t-45 47t-69 16.5t-69.5 -15.5t-46.5 -43.5t-26.5 -68t-8.5 -88z" />
    <glyph glyph-name="uniFEEE" unicode="&#x648;" horiz-adv-x="1090" arabic-form="final" 
d="M943 0q-15 -114 -50.5 -206t-109 -156.5t-195.5 -99t-310 -34.5h-65v256h49q126 0 203 22t120 56.5t59.5 77t22.5 84.5h-131q-94 0 -172 23t-134.5 74t-88 133t-31.5 200q0 86 28.5 168.5t83 146.5t134.5 103t184 39q116 0 195.5 -40t128.5 -112.5t70.5 -173t21.5 -221.5
v-98h134q17 0 32 -3t26 -14.5t17.5 -34.5t6.5 -63q0 -72 -19.5 -99.5t-62.5 -27.5h-147zM381 426q0 -96 42.5 -140t114.5 -44h140v164q0 51 -7.5 94.5t-24.5 74.5t-46 48.5t-72 17.5q-39 0 -67 -15.5t-45.5 -44t-26 -68t-8.5 -87.5z" />
    <glyph glyph-name="uni0649" unicode="&#x649;" horiz-adv-x="1580" arabic-form="isolated" 
d="M316 39q0 -60 15.5 -113.5t60.5 -93t125 -63t209 -23.5q103 0 178.5 9.5t127.5 26t84.5 37.5t50.5 44t24 46.5t6 43.5q0 29 -17 50.5t-44.5 40t-63 36t-73 38t-73 46.5t-63 61.5t-44.5 82.5t-17 110q0 83 29 166.5t87.5 151t147 109.5t207.5 42q39 0 73.5 -5t63.5 -12
t52 -14.5t38 -13.5v-246q-74 17 -128 22t-83 5q-55 0 -95 -15.5t-66.5 -40.5t-39 -56t-12.5 -62q0 -30 17.5 -53.5t45.5 -44.5t64 -40.5l74 -41t74 -46.5t64 -56t45.5 -70.5t17.5 -89.5q0 -60 -15.5 -120.5t-50.5 -116.5t-91.5 -104.5t-140 -84.5t-195.5 -56.5t-257 -20.5
q-193 0 -324.5 40t-212.5 110t-116 165t-35 206v340h276v-326z" />
    <glyph glyph-name="uniFBE8" unicode="&#x649;" horiz-adv-x="643" arabic-form="initial" 
d="M242 242v598h276v-840h-518q-17 0 -32 3t-26 14.5t-17.5 35t-6.5 64.5q0 72 19.5 98.5t62.5 26.5h242z" />
    <glyph glyph-name="uniFBE9" unicode="&#x649;" horiz-adv-x="706" arabic-form="medial" 
d="M127 242q36 0 60.5 4.5t40 17.5t22 37.5t6.5 63.5v475h276v-451q0 -40 8 -68t27.5 -45.5t53.5 -25.5t85 -8q16 0 31 -3t26 -14.5t18 -34.5t7 -63q0 -72 -20 -99.5t-62 -27.5q-31 0 -62 4t-60 15.5t-56 33t-49 56.5q-27 -38 -62 -59.5t-75 -32.5t-83.5 -14t-86.5 -3h-172
q-17 0 -32 3t-26 14.5t-17.5 35t-6.5 64.5q0 72 19.5 98.5t62.5 26.5h127z" />
    <glyph glyph-name="uniFEF0" unicode="&#x649;" horiz-adv-x="1556" arabic-form="final" 
d="M1447 0q5 -19 7.5 -42t2.5 -54q0 -87 -32.5 -160.5t-114.5 -126.5t-221 -83t-352 -30q-137 0 -242 18t-182.5 51t-130 79.5t-84 103t-45 122t-13.5 136.5v351h276v-342q0 -69 21.5 -120.5t71.5 -86.5t131 -52.5t200 -17.5q99 0 171.5 9t123 24t82.5 34t49.5 38.5t24 38
t6.5 32.5q0 28 -28.5 50.5t-80.5 43t-126 40.5t-164 42v252l137 -41.5t129.5 -34.5t119.5 -23.5t107 -8.5h265q16 0 30.5 -3t26 -14.5t18 -34.5t6.5 -63q0 -72 -19.5 -99.5t-61.5 -27.5h-109z" />
    <glyph glyph-name="uni064A" unicode="&#x64a;" horiz-adv-x="1580" arabic-form="isolated" 
d="M316 197q0 -60 15.5 -113.5t60.5 -93t125 -63t209 -23.5q103 0 178.5 9.5t127.5 26t84.5 37.5t50.5 44t24 46.5t6 43.5q0 29 -17 50.5t-44.5 40t-63 36t-73 38t-73 46.5t-63 61.5t-44.5 82.5t-17 110q0 83 29 166.5t87.5 151t147 109.5t207.5 42q39 0 73.5 -5t63.5 -12
t52 -14.5t38 -13.5v-246q-74 17 -128 22t-83 5q-55 0 -95 -15.5t-66.5 -40.5t-39 -56t-12.5 -62q0 -30 17.5 -53.5t45.5 -44.5t64 -40.5l74 -41t74 -46.5t64 -56t45.5 -70.5t17.5 -89.5q0 -60 -15.5 -120.5t-50.5 -116.5t-91.5 -104.5t-140 -84.5t-195.5 -56.5t-257 -20.5
q-193 0 -324.5 40t-212.5 110t-116 165t-35 206v340h276v-326zM435 -611q0 31 12 58t32.5 47t47.5 32t58 12t58 -12t47 -32t32 -47t12 -58t-12 -58t-32 -47.5t-47 -32.5t-58 -12t-58 12t-47.5 32.5t-32.5 47.5t-12 58zM779 -611q0 31 12 58t32.5 47t47.5 32t58 12t58 -12
t47 -32t32 -47t12 -58t-12 -58t-32 -47.5t-47 -32.5t-58 -12t-58 12t-47.5 32.5t-32.5 47.5t-12 58z" />
    <glyph glyph-name="uniFEF3" unicode="&#x64a;" horiz-adv-x="733" arabic-form="initial" 
d="M0 0q-17 0 -32 3t-26 14.5t-17.5 35t-6.5 64.5q0 72 19.5 98.5t62.5 26.5h334v598h276v-840h-610zM23 -354q0 31 12 58t32.5 47t47.5 32t57 12q31 0 58.5 -12t48.5 -32t33 -47t12 -58t-12 -58t-33 -47.5t-48.5 -32.5t-58.5 -12q-30 0 -57 12t-47.5 32.5t-32.5 47.5
t-12 58zM367 -354q0 31 11.5 58t32 47t47.5 32t58 12t58 -12t47.5 -32t32.5 -47t12 -58t-12 -58t-32.5 -47.5t-47.5 -32.5t-58 -12t-58 12t-47.5 32.5t-32 47.5t-11.5 58z" />
    <glyph glyph-name="uniFEF4" unicode="&#x64a;" horiz-adv-x="756" arabic-form="medial" 
d="M756 0q-32 0 -65 4t-64.5 15.5t-59.5 33t-49 56.5q-25 -38 -60 -59.5t-75.5 -32.5t-84 -14t-85.5 -3h-213q-17 0 -32 3t-26 14.5t-17.5 35t-6.5 64.5q0 72 19.5 98.5t62.5 26.5h168q36 0 60.5 4.5t40 17.5t22 37.5t6.5 63.5v475h274v-451q0 -40 9.5 -68t31 -45.5
t57 -25.5t87.5 -8q16 0 31 -3t26 -14.5t18 -34.5t7 -63q0 -72 -20 -99.5t-62 -27.5zM55 -354q0 31 12 58t32.5 47t47.5 32t58 12t58 -12t47 -32t32 -47t12 -58t-12 -58t-32 -47.5t-47 -32.5t-58 -12t-58 12t-47.5 32.5t-32.5 47.5t-12 58zM399 -354q0 31 12 58t32.5 47
t47.5 32t58 12t58 -12t47 -32t32 -47t12 -58t-12 -58t-32 -47.5t-47 -32.5t-58 -12t-58 12t-47.5 32.5t-32.5 47.5t-12 58z" />
    <glyph glyph-name="uniFEF2" unicode="&#x64a;" horiz-adv-x="1556" arabic-form="final" 
d="M1447 0q5 -19 7.5 -42t2.5 -54q0 -87 -32.5 -160.5t-114.5 -126.5t-221 -83t-352 -30q-137 0 -242 18t-182.5 51t-130 79.5t-84 103t-45 122t-13.5 136.5v351h276v-342q0 -69 21.5 -120.5t71.5 -86.5t131 -52.5t200 -17.5q99 0 171.5 9t123 24t82.5 34t49.5 38.5t24 38
t6.5 32.5q0 28 -28.5 50.5t-80.5 43t-126 40.5t-164 42v252l137 -41.5t129.5 -34.5t119.5 -23.5t107 -8.5h265q16 0 30.5 -3t26 -14.5t18 -34.5t6.5 -63q0 -72 -19.5 -99.5t-61.5 -27.5h-109zM414 -795q0 31 12 58t32.5 47t47.5 32t58 12t58 -12t47 -32t32 -47t12 -58
t-12 -58t-32 -47.5t-47 -32.5t-58 -12t-58 12t-47.5 32.5t-32.5 47.5t-12 58zM758 -795q0 31 12 58t32.5 47t47.5 32t58 12t58 -12t47 -32t32 -47t12 -58t-12 -58t-32 -47.5t-47 -32.5t-58 -12t-58 12t-47.5 32.5t-32.5 47.5t-12 58z" />
    <glyph glyph-name="uni0671" unicode="&#x671;" horiz-adv-x="526" arabic-form="isolated" 
d="M401 1462v-1462h-276v1462h276zM392 1741v10q0 13 -2 25.5t-8 22t-17 15t-29 5.5q-13 0 -29 -4.5t-32.5 -12t-32 -18t-27.5 -22.5v-21h177zM215 1874q29 23 61 37t71 14q68 0 105.5 -43t37.5 -119v-125h-449v103h74v164h100v-31z" />
    <glyph glyph-name="uniFB51" unicode="&#x671;" horiz-adv-x="539" arabic-form="final" 
d="M623 127q0 -72 -20 -99.5t-62 -27.5h-90q-72 0 -131.5 15.5t-103 52t-67.5 98t-24 153.5v1143h276v-1106q0 -37 6.5 -59.5t19 -34.5t31.5 -16t44 -4h39q16 0 31 -3t26 -14.5t18 -34.5t7 -63zM410 1741v10q0 13 -2 25.5t-8 22t-17 15t-29 5.5q-13 0 -29 -4.5t-32.5 -12
t-32 -18t-27.5 -22.5v-21h177zM233 1874q29 23 61 37t71 14q68 0 105.5 -43t37.5 -119v-125h-449v103h74v164h100v-31z" />
    <glyph glyph-name="uni0679" unicode="&#x679;" horiz-adv-x="1865" arabic-form="isolated" 
d="M1740 0h-1262q-125 0 -209 18t-135 58t-72.5 103.5t-21.5 154.5v348h276v-309q0 -39 11 -64.5t38 -40.5t73.5 -20.5t117.5 -5.5h908v598h276v-840zM1077 1013v16q0 18 -3 35t-11 29.5t-23 20t-39 7.5q-48 0 -92 -29.5t-69 -78.5h237zM840 1168q43 44 83 61t91 17
q85 0 132.5 -53.5t47.5 -147.5v-157h-567v125h96v419h117v-264z" />
    <glyph glyph-name="uniFB68" unicode="&#x679;" horiz-adv-x="643" arabic-form="initial" 
d="M242 242v598h276v-840h-518q-17 0 -32 3t-26 14.5t-17.5 35t-6.5 64.5q0 72 19.5 98.5t62.5 26.5h242zM499 1137v16q0 18 -3 35t-11 29.5t-23 20t-39 7.5q-48 0 -92 -29.5t-69 -78.5h237zM262 1292q43 44 83 61t91 17q85 0 132.5 -53.5t47.5 -147.5v-157h-567v125h96v419
h117v-264z" />
    <glyph glyph-name="uniFB69" unicode="&#x679;" horiz-adv-x="706" arabic-form="medial" 
d="M127 242q36 0 60.5 4.5t40 17.5t22 37.5t6.5 63.5v475h276v-451q0 -40 8 -68t27.5 -45.5t53.5 -25.5t85 -8q16 0 31 -3t26 -14.5t18 -34.5t7 -63q0 -72 -20 -99.5t-62 -27.5q-31 0 -62 4t-60 15.5t-56 33t-49 56.5q-27 -38 -62 -59.5t-75 -32.5t-83.5 -14t-86.5 -3h-172
q-17 0 -32 3t-26 14.5t-17.5 35t-6.5 64.5q0 72 19.5 98.5t62.5 26.5h127zM519 1137v16q0 18 -3 35t-11 29.5t-23 20t-39 7.5q-48 0 -92 -29.5t-69 -78.5h237zM282 1292q43 44 83 61t91 17q85 0 132.5 -53.5t47.5 -147.5v-157h-567v125h96v419h117v-264z" />
    <glyph glyph-name="uniFB67" unicode="&#x679;" horiz-adv-x="1932" arabic-form="final" 
d="M1932 0q-31 0 -63 4t-62 16t-56 33.5t-44 55.5q-27 -38 -62 -59.5t-74.5 -32.5t-82.5 -14t-86 -3h-926q-125 0 -209 18t-134.5 58t-71.5 103.5t-21 154.5v348h276v-311q0 -40 11 -65t38 -39.5t73.5 -19.5t117.5 -5h797q36 0 60.5 4.5t40 17.5t22 37.5t6.5 63.5v475h276
v-451q0 -40 7.5 -68t27 -45.5t53.5 -25.5t86 -8q17 0 32 -3t26 -14.5t17.5 -34.5t6.5 -63q0 -72 -20 -99.5t-62 -27.5zM1076 1016v16q0 18 -3 35t-11 29.5t-23 20t-39 7.5q-48 0 -92 -29.5t-69 -78.5h237zM839 1171q43 44 83 61t91 17q85 0 132.5 -53.5t47.5 -147.5v-157
h-567v125h96v419h117v-264z" />
    <glyph glyph-name="uni067E" unicode="&#x67e;" horiz-adv-x="1865" arabic-form="isolated" 
d="M1740 0h-1262q-125 0 -209 18t-135 58t-72.5 103.5t-21.5 154.5v348h276v-309q0 -39 11 -64.5t38 -40.5t73.5 -20.5t117.5 -5.5h908v598h276v-840zM763 -659q0 30 12 57t32.5 47.5t48 32.5t58.5 12q30 0 57 -12t48 -32.5t33 -47.5t12 -57q0 -31 -12 -58.5t-33 -48.5
t-48 -33t-57 -12q-31 0 -58.5 12t-48 33t-32.5 48.5t-12 58.5zM591 -354q0 31 11.5 58t32 47t47.5 32t58 12t58 -12t47.5 -32t32.5 -47t12 -58t-12 -58t-32.5 -47.5t-47.5 -32.5t-58 -12t-58 12t-47.5 32.5t-32 47.5t-11.5 58zM935 -354q0 31 11.5 58t32 47t47.5 32t58 12
t58 -12t47.5 -32t32.5 -47t12 -58t-12 -58t-32.5 -47.5t-47.5 -32.5t-58 -12t-58 12t-47.5 32.5t-32 47.5t-11.5 58z" />
    <glyph glyph-name="uniFB58" unicode="&#x67e;" horiz-adv-x="733" arabic-form="initial" 
d="M0 0q-17 0 -32 3t-26 14.5t-17.5 35t-6.5 64.5q0 72 19.5 98.5t62.5 26.5h334v598h276v-840h-610zM209 -659q0 30 11.5 57t32 47.5t47.5 32.5t58 12t58 -12t47.5 -32.5t32.5 -47.5t12 -57q0 -31 -12 -58.5t-32.5 -48.5t-47.5 -33t-58 -12t-58 12t-47.5 33t-32 48.5
t-11.5 58.5zM37 -354q0 31 11.5 58t32 47t47.5 32t58 12t58 -12t47.5 -32t32.5 -47t12 -58t-12 -58t-32.5 -47.5t-47.5 -32.5t-58 -12t-58 12t-47.5 32.5t-32 47.5t-11.5 58zM379 -354q0 31 12 58t33 47t48.5 32t57.5 12t57 -12t48 -32t33 -47t12 -58t-12 -58t-33 -47.5
t-48 -32.5t-57 -12t-57.5 12t-48.5 32.5t-33 47.5t-12 58z" />
    <glyph glyph-name="uniFB59" unicode="&#x67e;" horiz-adv-x="756" arabic-form="medial" 
d="M756 0q-32 0 -65 4t-64.5 15.5t-59.5 33t-49 56.5q-25 -38 -60 -59.5t-75.5 -32.5t-84 -14t-85.5 -3h-213q-17 0 -32 3t-26 14.5t-17.5 35t-6.5 64.5q0 72 19.5 98.5t62.5 26.5h168q36 0 60.5 4.5t40 17.5t22 37.5t6.5 63.5v475h274v-451q0 -40 9.5 -68t31 -45.5
t57 -25.5t87.5 -8q16 0 31 -3t26 -14.5t18 -34.5t7 -63q0 -72 -20 -99.5t-62 -27.5zM240 -659q0 30 12 57t32.5 47.5t48 32.5t58.5 12q30 0 57 -12t48 -32.5t33 -47.5t12 -57q0 -31 -12 -58.5t-33 -48.5t-48 -33t-57 -12q-31 0 -58.5 12t-48 33t-32.5 48.5t-12 58.5z
M68 -354q0 31 11.5 58t32 47t47.5 32t58 12t58 -12t47.5 -32t32.5 -47t12 -58t-12 -58t-32.5 -47.5t-47.5 -32.5t-58 -12t-58 12t-47.5 32.5t-32 47.5t-11.5 58zM412 -354q0 31 11.5 58t32 47t47.5 32t58 12t58 -12t47.5 -32t32.5 -47t12 -58t-12 -58t-32.5 -47.5
t-47.5 -32.5t-58 -12t-58 12t-47.5 32.5t-32 47.5t-11.5 58z" />
    <glyph glyph-name="uniFB57" unicode="&#x67e;" horiz-adv-x="1932" arabic-form="final" 
d="M1932 0q-31 0 -63 4t-62 16t-56 33.5t-44 55.5q-27 -38 -62 -59.5t-74.5 -32.5t-82.5 -14t-86 -3h-926q-125 0 -209 18t-134.5 58t-71.5 103.5t-21 154.5v348h276v-311q0 -40 11 -65t38 -39.5t73.5 -19.5t117.5 -5h797q36 0 60.5 4.5t40 17.5t22 37.5t6.5 63.5v475h276
v-451q0 -40 7.5 -68t27 -45.5t53.5 -25.5t86 -8q17 0 32 -3t26 -14.5t17.5 -34.5t6.5 -63q0 -72 -20 -99.5t-62 -27.5zM761 -659q0 30 12 57t32.5 47.5t48 32.5t58.5 12q30 0 57 -12t48 -32.5t33 -47.5t12 -57q0 -31 -12 -58.5t-33 -48.5t-48 -33t-57 -12q-31 0 -58.5 12
t-48 33t-32.5 48.5t-12 58.5zM589 -354q0 31 11.5 58t32 47t47.5 32t58 12t58 -12t47.5 -32t32.5 -47t12 -58t-12 -58t-32.5 -47.5t-47.5 -32.5t-58 -12t-58 12t-47.5 32.5t-32 47.5t-11.5 58zM933 -354q0 31 11.5 58t32 47t47.5 32t58 12t58 -12t47.5 -32t32.5 -47t12 -58
t-12 -58t-32.5 -47.5t-47.5 -32.5t-58 -12t-58 12t-47.5 32.5t-32 47.5t-11.5 58z" />
    <glyph glyph-name="uni0686" unicode="&#x686;" horiz-adv-x="1330" arabic-form="isolated" 
d="M953 242q-5 93 -27 164.5t-65.5 120.5t-110.5 74.5t-161 25.5q-17 0 -44.5 -3t-61.5 -8t-72.5 -12.5t-77.5 -17.5v245q25 9 59.5 18.5t75 18t85 14t88.5 5.5q163 0 275.5 -57t182.5 -153t100.5 -220.5t30.5 -259.5v-197h-622q-75 0 -132.5 -21t-97 -59t-60 -90.5
t-20.5 -116.5q0 -70 24 -124.5t67.5 -92t103.5 -57t133 -19.5q34 0 73 3.5t85 14t101 29.5t122 50l107 -197q-73 -48 -145 -79t-136 -48.5t-116 -24t-85 -6.5q-133 0 -245 32.5t-193.5 99.5t-127.5 169.5t-46 241.5q0 131 42.5 231.5t120.5 168.5t186.5 102.5t240.5 34.5
h343zM603.994 -391.384q0 17.999 7.19922 34.1982q7.2002 16.1992 19.5 28.499q12.2988 12.2998 28.7988 19.499q16.499 7.2002 35.0986 7.2002q17.999 0 34.1982 -7.2002q16.1992 -7.19922 28.7988 -19.499t19.7988 -28.499q7.2002 -16.1992 7.2002 -34.1982
q0 -18.5996 -7.2002 -35.0986q-7.19922 -16.499 -19.7988 -29.0986t-28.7988 -19.7998q-16.1992 -7.19922 -34.1982 -7.19922q-18.5996 0 -35.0986 7.19922q-16.5 7.2002 -28.7988 19.7998q-12.2998 12.5996 -19.5 29.0986q-7.19922 16.499 -7.19922 35.0986z
M500.799 -208.392q0 18.5996 6.89941 34.7988t19.1992 28.1992q12.2998 11.999 28.499 19.1992q16.1992 7.19922 34.7979 7.19922q18.5996 0 34.7988 -7.19922q16.1992 -7.2002 28.499 -19.1992q12.2998 -12 19.499 -28.1992q7.2002 -16.1992 7.2002 -34.7988
q0 -18.5986 -7.2002 -34.7979q-7.19922 -16.2002 -19.499 -28.499q-12.2998 -12.2998 -28.499 -19.499q-16.1992 -7.2002 -34.7988 -7.2002q-18.5986 0 -34.7979 7.2002q-16.1992 7.19922 -28.499 19.499q-12.2998 12.2988 -19.1992 28.499
q-6.89941 16.1992 -6.89941 34.7979zM707.189 -208.392q0 18.5996 6.90039 34.7988q6.89941 16.1992 19.1992 28.1992q12.2988 11.999 28.499 19.1992q16.1992 7.19922 34.7979 7.19922q18.5996 0 34.7988 -7.19922q16.1992 -7.2002 28.499 -19.1992
q12.2998 -12 19.499 -28.1992q7.2002 -16.1992 7.2002 -34.7988q0 -18.5986 -7.2002 -34.7979q-7.19922 -16.2002 -19.499 -28.499q-12.2998 -12.2998 -28.499 -19.499q-16.1992 -7.2002 -34.7988 -7.2002q-18.5986 0 -34.7979 7.2002q-16.2002 7.19922 -28.499 19.499
q-12.2998 12.2988 -19.1992 28.499q-6.90039 16.1992 -6.90039 34.7979z" />
    <glyph glyph-name="uniFB7C" unicode="&#x686;" horiz-adv-x="1126" arabic-form="initial" 
d="M751 242q-6 85 -27 156t-63 122t-110 79t-168 28q-16 0 -43.5 -2t-61.5 -7t-72 -13t-75 -19v245q25 9 59 18.5t73.5 18t83 14t87.5 5.5q165 0 278 -57t183 -153t100.5 -220.5t30.5 -259.5v-197h-1026q-17 0 -32 3t-26 14.5t-17.5 35t-6.5 64.5q0 72 19.5 98.5t62.5 26.5
h751zM318 -659q0 30 12 57t32.5 47.5t48 32.5t58.5 12q30 0 57 -12t48 -32.5t33 -47.5t12 -57q0 -31 -12 -58.5t-33 -48.5t-48 -33t-57 -12q-31 0 -58.5 12t-48 33t-32.5 48.5t-12 58.5zM146 -354q0 31 11.5 58t32 47t47.5 32t58 12t58 -12t47.5 -32t32.5 -47t12 -58
t-12 -58t-32.5 -47.5t-47.5 -32.5t-58 -12t-58 12t-47.5 32.5t-32 47.5t-11.5 58zM490 -354q0 31 11.5 58t32 47t47.5 32t58 12t58 -12t47.5 -32t32.5 -47t12 -58t-12 -58t-32.5 -47.5t-47.5 -32.5t-58 -12t-58 12t-47.5 32.5t-32 47.5t-11.5 58z" />
    <glyph glyph-name="uniFB7D" unicode="&#x686;" horiz-adv-x="1137" arabic-form="medial" 
d="M751 242q-6 85 -26.5 156t-62.5 122t-110 79t-169 28q-17 0 -44.5 -2.5t-61 -7.5t-71.5 -13t-75 -18v245q25 9 59 18.5t74 18t83.5 14t86.5 5.5q160 0 270 -52t179 -140.5t102 -205.5t39 -247h113q17 0 32 -3t26.5 -14.5t18.5 -34.5t7 -63q0 -72 -20 -99.5t-64 -27.5
h-1137q-17 0 -32 3t-26 14.5t-17.5 35t-6.5 64.5q0 72 19.5 98.5t62.5 26.5h751zM318 -659q0 30 12 57t32.5 47.5t48 32.5t58.5 12q30 0 57 -12t48 -32.5t33 -47.5t12 -57q0 -31 -12 -58.5t-33 -48.5t-48 -33t-57 -12q-31 0 -58.5 12t-48 33t-32.5 48.5t-12 58.5zM146 -354
q0 31 11.5 58t32 47t47.5 32t58 12t58 -12t47.5 -32t32.5 -47t12 -58t-12 -58t-32.5 -47.5t-47.5 -32.5t-58 -12t-58 12t-47.5 32.5t-32 47.5t-11.5 58zM490 -354q0 31 11.5 58t32 47t47.5 32t58 12t58 -12t47.5 -32t32.5 -47t12 -58t-12 -58t-32.5 -47.5t-47.5 -32.5
t-58 -12t-58 12t-47.5 32.5t-32 47.5t-11.5 58z" />
    <glyph glyph-name="uniFB7B" unicode="&#x686;" horiz-adv-x="1343" arabic-form="final" 
d="M608 0q-75 0 -132.5 -21t-97 -59t-60 -90.5t-20.5 -116.5q0 -70 24.5 -124.5t68 -92t104 -57t131.5 -19.5q34 0 74 4t87 14.5t101.5 29.5t118.5 49l107 -197q-73 -48 -145 -79t-136 -48.5t-116 -24t-85 -6.5q-132 0 -244 32.5t-194 99.5t-128 169.5t-46 241.5
q0 131 43 231.5t121 168.5t186.5 102.5t239.5 34.5h345q-6 93 -28.5 164.5t-66 120.5t-110.5 74.5t-161 25.5q-16 0 -43.5 -2t-61.5 -6.5t-73 -12.5t-78 -20v245q25 9 59.5 18.5t75 18t85 14t88.5 5.5q156 0 266 -52t180 -140.5t103.5 -205.5t37.5 -247h115q17 0 31.5 -3
t25.5 -14.5t17.5 -34.5t6.5 -63q0 -72 -19 -99.5t-62 -27.5h-735zM591.994 -391.384q0 17.999 7.19922 34.1982q7.2002 16.1992 19.5 28.499q12.2988 12.2998 28.7988 19.499q16.499 7.2002 35.0986 7.2002q17.999 0 34.1982 -7.2002q16.1992 -7.19922 28.7988 -19.499
t19.7988 -28.499q7.2002 -16.1992 7.2002 -34.1982q0 -18.5996 -7.2002 -35.0986q-7.19922 -16.499 -19.7988 -29.0986t-28.7988 -19.7998q-16.1992 -7.19922 -34.1982 -7.19922q-18.5996 0 -35.0986 7.19922q-16.5 7.2002 -28.7988 19.7998q-12.2998 12.5996 -19.5 29.0986
q-7.19922 16.499 -7.19922 35.0986zM488.799 -208.392q0 18.5996 6.89941 34.7988t19.1992 28.1992q12.2998 11.999 28.499 19.1992q16.1992 7.19922 34.7979 7.19922q18.5996 0 34.7988 -7.19922q16.1992 -7.2002 28.499 -19.1992q12.2998 -12 19.499 -28.1992
q7.2002 -16.1992 7.2002 -34.7988q0 -18.5986 -7.2002 -34.7979q-7.19922 -16.2002 -19.499 -28.499q-12.2998 -12.2998 -28.499 -19.499q-16.1992 -7.2002 -34.7988 -7.2002q-18.5986 0 -34.7979 7.2002q-16.1992 7.19922 -28.499 19.499q-12.2998 12.2988 -19.1992 28.499
q-6.89941 16.1992 -6.89941 34.7979zM695.189 -208.392q0 18.5996 6.90039 34.7988q6.89941 16.1992 19.1992 28.1992q12.2988 11.999 28.499 19.1992q16.1992 7.19922 34.7979 7.19922q18.5996 0 34.7988 -7.19922q16.1992 -7.2002 28.499 -19.1992
q12.2998 -12 19.499 -28.1992q7.2002 -16.1992 7.2002 -34.7988q0 -18.5986 -7.2002 -34.7979q-7.19922 -16.2002 -19.499 -28.499q-12.2998 -12.2998 -28.499 -19.499q-16.1992 -7.2002 -34.7988 -7.2002q-18.5986 0 -34.7979 7.2002q-16.2002 7.19922 -28.499 19.499
q-12.2998 12.2988 -19.1992 28.499q-6.90039 16.1992 -6.90039 34.7979z" />
    <glyph glyph-name="uni0688" unicode="&#x688;" horiz-adv-x="959" arabic-form="isolated" 
d="M859 266q0 -54 -17.5 -102.5t-54 -85t-93 -57.5t-134.5 -21h-510v242h412q49 0 76.5 10t27.5 35q0 13 -3.5 26t-16 34.5t-36.5 57.5l-65 95l-166 250l248 159l184 -297l65 -109.5t46.5 -91t27.5 -77t9 -68.5zM672 1137v16q0 18 -3 35t-11 29.5t-23 20t-39 7.5
q-48 0 -92 -29.5t-69 -78.5h237zM435 1292q43 44 83 61t91 17q85 0 132.5 -53.5t47.5 -147.5v-157h-567v125h96v419h117v-264z" />
    <glyph glyph-name="uniFB89" unicode="&#x688;" horiz-adv-x="996" arabic-form="final" 
d="M895 0q-28 0 -53 4t-47.5 15t-43 30t-38.5 48q-31 -34 -66 -53.5t-72.5 -29t-77.5 -12t-80 -2.5h-367v242h418q49 0 73.5 11t24.5 40q0 12 -4.5 25.5t-15.5 32.5t-29 46.5l-45 67.5l-193 285l250 159l262 -428l71 -114t52 -73.5t42 -39.5t40 -12q17 0 32 -3t26 -14.5
t17.5 -34.5t6.5 -63q0 -72 -19.5 -99.5t-62.5 -27.5h-101zM672 1137v16q0 18 -3 35t-11 29.5t-23 20t-39 7.5q-48 0 -92 -29.5t-69 -78.5h237zM435 1292q43 44 83 61t91 17q85 0 132.5 -53.5t47.5 -147.5v-157h-567v125h96v419h117v-264z" />
    <glyph glyph-name="uni0691" unicode="&#x691;" horiz-adv-x="682" arabic-form="isolated" 
d="M281 840h276v-833q0 -141 -27 -237t-84 -155t-144 -85t-207 -26h-65v256h33q56 0 97 8t68 34t40 76t13 133v829zM544 1137v16q0 18 -3 35t-11 29.5t-23 20t-39 7.5q-48 0 -92 -29.5t-69 -78.5h237zM307 1292q43 44 83 61t91 17q85 0 132.5 -53.5t47.5 -147.5v-157h-567
v125h96v419h117v-264z" />
    <glyph glyph-name="uniFB8D" unicode="&#x691;" horiz-adv-x="731" arabic-form="final" 
d="M281 840h276v-451q0 -41 13.5 -69.5t35.5 -45.5t50 -24.5t56 -7.5h19q15 0 28 -4.5t23 -17.5t16 -35t6 -58q0 -66 -18.5 -96.5t-54.5 -30.5h-19q-13 0 -32 2t-40.5 8.5t-43 19.5t-39.5 35q0 -281 -111 -421t-351 -140h-65v256h33q56 0 97 8t68 34t40 76t13 133v829z
M544 1137v16q0 18 -3 35t-11 29.5t-23 20t-39 7.5q-48 0 -92 -29.5t-69 -78.5h237zM307 1292q43 44 83 61t91 17q85 0 132.5 -53.5t47.5 -147.5v-157h-567v125h96v419h117v-264z" />
    <glyph glyph-name="uni0698" unicode="&#x698;" horiz-adv-x="682" arabic-form="isolated" 
d="M281 840h276v-833q0 -141 -27 -237t-84 -155t-144 -85t-207 -26h-65v256h33q56 0 97 8t68 34t40 76t13 133v829zM81 1080q0 31 12 58t32.5 47.5t47.5 32.5t58 12t58 -12t47 -32.5t32 -47.5t12 -58t-12 -58t-32 -47.5t-47 -32t-58 -11.5t-58 11.5t-47.5 32t-32.5 47.5
t-12 58zM425 1080q0 31 12 58t32.5 47.5t47.5 32.5t58 12t58 -12t47 -32.5t32 -47.5t12 -58t-12 -58t-32 -47.5t-47 -32t-58 -11.5t-58 11.5t-47.5 32t-32.5 47.5t-12 58zM257 1385q0 31 12 58.5t33 48.5t48 33t57 12q31 0 58.5 -12t48 -33t32.5 -48.5t12 -58.5
q0 -30 -12 -57t-32.5 -47.5t-48 -32.5t-58.5 -12q-30 0 -57 12t-48 32.5t-33 47.5t-12 57z" />
    <glyph glyph-name="uniFB8B" unicode="&#x698;" horiz-adv-x="731" arabic-form="final" 
d="M281 840h276v-451q0 -41 13.5 -69.5t35.5 -45.5t50 -24.5t56 -7.5h19q15 0 28 -4.5t23 -17.5t16 -35t6 -58q0 -66 -18.5 -96.5t-54.5 -30.5h-19q-13 0 -32 2t-40.5 8.5t-43 19.5t-39.5 35q0 -281 -111 -421t-351 -140h-65v256h33q56 0 97 8t68 34t40 76t13 133v829z
M96 1080q0 31 12 58t32.5 47.5t47.5 32.5t58 12t58 -12t47 -32.5t32 -47.5t12 -58t-12 -58t-32 -47.5t-47 -32t-58 -11.5t-58 11.5t-47.5 32t-32.5 47.5t-12 58zM440 1080q0 31 12 58t32.5 47.5t47.5 32.5t58 12t58 -12t47 -32.5t32 -47.5t12 -58t-12 -58t-32 -47.5t-47 -32
t-58 -11.5t-58 11.5t-47.5 32t-32.5 47.5t-12 58zM272 1385q0 31 12 58.5t33 48.5t48 33t57 12q31 0 58.5 -12t48 -33t32.5 -48.5t12 -58.5q0 -30 -12 -57t-32.5 -47.5t-48 -32.5t-58.5 -12q-30 0 -57 12t-48 32.5t-33 47.5t-12 57z" />
    <glyph glyph-name="uni06A4" unicode="&#x6a4;" horiz-adv-x="2132" arabic-form="isolated" 
d="M1457 457q0 -54 13.5 -94.5t36.5 -67.5t54.5 -40t67.5 -13h117v182q0 41 -5.5 79.5t-20.5 68.5t-42.5 48.5t-70.5 18.5q-42 0 -71 -15.5t-46.5 -41t-25 -58.5t-7.5 -67zM476 0q-125 0 -209 18t-134.5 58t-71.5 103.5t-21 154.5v348h276v-311q0 -40 11 -65t38 -39.5
t73.5 -19.5t117.5 -5h666q-9 18 -15 43.5t-10 53.5t-6 56t-2 50q0 83 29 162.5t84 141.5t134.5 100t180.5 38q80 0 141.5 -19.5t106.5 -53.5t75 -79t48.5 -96t26 -104t7.5 -104v-431h-1546zM1283 1204q0 31 12 58t32.5 47.5t47.5 32.5t58 12t58 -12t47 -32.5t32 -47.5
t12 -58t-12 -58t-32 -47.5t-47 -32t-58 -11.5t-58 11.5t-47.5 32t-32.5 47.5t-12 58zM1627 1204q0 31 12 58t32.5 47.5t47.5 32.5t58 12t58 -12t47 -32.5t32 -47.5t12 -58t-12 -58t-32 -47.5t-47 -32t-58 -11.5t-58 11.5t-47.5 32t-32.5 47.5t-12 58zM1459 1509
q0 31 12 58.5t33 48.5t48 33t57 12q31 0 58.5 -12t48 -33t32.5 -48.5t12 -58.5q0 -30 -12 -57t-32.5 -47.5t-48 -32.5t-58.5 -12q-30 0 -57 12t-48 32.5t-33 47.5t-12 57z" />
    <glyph glyph-name="uniFB6C" unicode="&#x6a4;" horiz-adv-x="1121" arabic-form="initial" 
d="M446 457q0 -54 13.5 -94.5t36.5 -67.5t54.5 -40t67.5 -13h119v182q0 41 -5.5 79.5t-21 68.5t-43 48.5t-70.5 18.5t-72 -15.5t-46.5 -41t-25 -58.5t-7.5 -67zM212 242q-9 18 -15 43.5t-10 53.5t-5.5 56t-1.5 50q0 83 28 162.5t82 141.5t134 100t184 38q80 0 141 -19.5
t106 -53.5t75 -79t48 -96t25.5 -104t7.5 -104v-431h-1011q-17 0 -32 3t-26 14.5t-17.5 35t-6.5 64.5q0 72 19.5 98.5t62.5 26.5h212zM263 1204q0 31 12 58t32.5 47.5t47.5 32.5t58 12t58 -12t47 -32.5t32 -47.5t12 -58t-12 -58t-32 -47.5t-47 -32t-58 -11.5t-58 11.5
t-47.5 32t-32.5 47.5t-12 58zM607 1204q0 31 12 58t32.5 47.5t47.5 32.5t58 12t58 -12t47 -32.5t32 -47.5t12 -58t-12 -58t-32 -47.5t-47 -32t-58 -11.5t-58 11.5t-47.5 32t-32.5 47.5t-12 58zM439 1509q0 31 12 58.5t33 48.5t48 33t57 12q31 0 58.5 -12t48 -33t32.5 -48.5
t12 -58.5q0 -30 -12 -57t-32.5 -47.5t-48 -32.5t-58.5 -12q-30 0 -57 12t-48 32.5t-33 47.5t-12 57z" />
    <glyph glyph-name="uniFB6D" unicode="&#x6a4;" horiz-adv-x="1143" arabic-form="medial" 
d="M258 1204q0 31 12 58t32.5 47.5t47.5 32.5t58 12t58 -12t47 -32.5t32 -47.5t12 -58t-12 -58t-32 -47.5t-47 -32t-58 -11.5t-58 11.5t-47.5 32t-32.5 47.5t-12 58zM602 1204q0 31 12 58t32.5 47.5t47.5 32.5t58 12t58 -12t47 -32.5t32 -47.5t12 -58t-12 -58t-32 -47.5
t-47 -32t-58 -11.5t-58 11.5t-47.5 32t-32.5 47.5t-12 58zM434 1509q0 31 12 58.5t33 48.5t48 33t57 12q31 0 58.5 -12t48 -33t32.5 -48.5t12 -58.5q0 -30 -12 -57t-32.5 -47.5t-48 -32.5t-58.5 -12q-30 0 -57 12t-48 32.5t-33 47.5t-12 57zM186 242q-9 18 -15 43.5
t-10 53.5t-5.5 56t-1.5 50q0 83 28.5 162.5t83 141.5t133.5 100t181 38q80 0 141.5 -19.5t106.5 -53.5t75.5 -79t49 -96t26.5 -104t8 -104v-189h135q17 0 32 -3t26 -14.5t17.5 -34.5t6.5 -63q0 -72 -19.5 -99.5t-62.5 -27.5h-1122q-17 0 -32 3t-26 14.5t-17.5 35t-6.5 64.5
q0 72 19.5 98.5t62.5 26.5h186zM418 457q0 -54 13.5 -94.5t36.5 -67.5t54.5 -40t67.5 -13h121v182q0 41 -5 79.5t-20.5 68.5t-43.5 48.5t-73 18.5q-43 0 -72 -15.5t-46.5 -41t-25 -58.5t-7.5 -67z" />
    <glyph glyph-name="uniFB6B" unicode="&#x6a4;" horiz-adv-x="2160" arabic-form="final" 
d="M478 0q-125 0 -209 18t-135 58t-72.5 103.5t-21.5 154.5v348h276v-311q0 -40 11 -65t38 -39.5t73.5 -19.5t117.5 -5h668q-9 18 -14.5 43.5t-9.5 53.5t-5.5 56t-1.5 50q0 83 28.5 162.5t83 141.5t134 100t180.5 38q80 0 141.5 -19.5t106.5 -53.5t75.5 -79t49 -96
t26.5 -104t8 -104v-189h134q16 0 31 -3t26 -14.5t18 -34.5t7 -63q0 -72 -20 -99.5t-62 -27.5h-1682zM1459 457q0 -54 13.5 -94.5t37 -67.5t54 -40t65.5 -13h121v182q0 41 -5 79.5t-20 68.5t-43 48.5t-73 18.5q-42 0 -71 -15.5t-46.5 -41t-25 -58.5t-7.5 -67zM1285 1204
q0 31 12 58t32.5 47.5t47.5 32.5t58 12t58 -12t47 -32.5t32 -47.5t12 -58t-12 -58t-32 -47.5t-47 -32t-58 -11.5t-58 11.5t-47.5 32t-32.5 47.5t-12 58zM1629 1204q0 31 12 58t32.5 47.5t47.5 32.5t58 12t58 -12t47 -32.5t32 -47.5t12 -58t-12 -58t-32 -47.5t-47 -32
t-58 -11.5t-58 11.5t-47.5 32t-32.5 47.5t-12 58zM1461 1509q0 31 12 58.5t33 48.5t48 33t57 12q31 0 58.5 -12t48 -33t32.5 -48.5t12 -58.5q0 -30 -12 -57t-32.5 -47.5t-48 -32.5t-58.5 -12q-30 0 -57 12t-48 32.5t-33 47.5t-12 57z" />
    <glyph glyph-name="uni06A9" unicode="&#x6a9;" horiz-adv-x="1844" arabic-form="isolated" 
d="M1340 242q64 0 94 23t30 69q0 38 -31.5 87t-91 102t-144.5 107t-192 103v294l724 384v-315l-411 -199v-7q98 -61 168 -116t117.5 -105t75.5 -95.5t42.5 -87.5t18.5 -82t4 -78q0 -25 -6 -58.5t-21 -69.5t-41.5 -71.5t-68 -63.5t-99.5 -45.5t-137 -17.5h-895
q-125 0 -209 18t-134.5 58t-71.5 103.5t-21 154.5v348h276v-311q0 -40 11 -65t38 -39.5t73.5 -19.5t117.5 -5h784z" />
    <glyph glyph-name="uniFB90" unicode="&#x6a9;" horiz-adv-x="983" arabic-form="initial" 
d="M479 242q64 0 94 23t30 69q0 38 -31.5 87t-91 102t-144.5 107t-192 103v294l724 384v-315l-411 -199v-7q98 -61 168 -116t117.5 -105t75.5 -95.5t42.5 -87.5t18.5 -82t4 -78q0 -25 -6 -58.5t-21 -69.5t-41.5 -71.5t-68 -63.5t-99.5 -45.5t-137 -17.5h-510q-17 0 -32 3
t-26 14.5t-17.5 35t-6.5 64.5q0 72 19.5 98.5t62.5 26.5h479z" />
    <glyph glyph-name="uniFB91" unicode="&#x6a9;" horiz-adv-x="1073" arabic-form="medial" 
d="M805 115q-21 -24 -48.5 -45t-63.5 -36.5t-81.5 -24.5t-101.5 -9h-510q-17 0 -32 3t-26 14.5t-17.5 35t-6.5 64.5q0 72 19.5 98.5t62.5 26.5h479q64 0 94 23t30 69q0 38 -34.5 88.5t-96 104.5t-145.5 107.5t-183 98.5v294l724 384v-315l-411 -199v-7q115 -71 189.5 -134
t120.5 -119.5t70 -107.5t37 -97q13 -48 30.5 -83.5t40.5 -59t54.5 -35.5t73.5 -12q18 0 33 -3t26 -14.5t17 -34.5t6 -63q0 -72 -19.5 -99.5t-62.5 -27.5q-34 0 -68.5 3t-68.5 14.5t-67 34.5t-64 63z" />
    <glyph glyph-name="uniFB8F" unicode="&#x6a9;" horiz-adv-x="1957" arabic-form="final" 
d="M1361 242q64 0 94 23t30 69q0 38 -34.5 88.5t-96 104.5t-145.5 107.5t-183 98.5v294l724 384v-315l-411 -199v-7q115 -71 189.5 -134t120.5 -119.5t70 -107.5t37 -97q13 -48 30.5 -83.5t40.5 -59t54.5 -35.5t73.5 -12q18 0 33 -3t26 -14.5t17 -34.5t6 -63
q0 -72 -19.5 -99.5t-62.5 -27.5q-34 0 -68.5 3t-68.5 14.5t-67 34.5t-64 63q-21 -24 -48.5 -45t-63.5 -36.5t-81.5 -24.5t-101.5 -9h-916q-125 0 -209 18t-134.5 58t-71.5 103.5t-21 154.5v348h274v-311q0 -40 11.5 -65t39 -39.5t74 -19.5t117.5 -5h805z" />
    <glyph glyph-name="uni06AF" unicode="&#x6af;" horiz-adv-x="1844" arabic-form="isolated" 
d="M1340 242q64 0 94 23t30 69q0 38 -31.5 87t-91 102t-144.5 107t-192 103v294l724 384v-315l-411 -199v-7q98 -61 168 -116t117.5 -105t75.5 -95.5t42.5 -87.5t18.5 -82t4 -78q0 -25 -6 -58.5t-21 -69.5t-41.5 -71.5t-68 -63.5t-99.5 -45.5t-137 -17.5h-895
q-125 0 -209 18t-134.5 58t-71.5 103.5t-21 154.5v348h276v-311q0 -40 11 -65t38 -39.5t73.5 -19.5t117.5 -5h784zM1010 1146v260l721 384v-257z" />
    <glyph glyph-name="uniFB94" unicode="&#x6af;" horiz-adv-x="983" arabic-form="initial" 
d="M479 242q64 0 94 23t30 69q0 38 -31.5 87t-91 102t-144.5 107t-192 103v294l724 384v-315l-411 -199v-7q98 -61 168 -116t117.5 -105t75.5 -95.5t42.5 -87.5t18.5 -82t4 -78q0 -25 -6 -58.5t-21 -69.5t-41.5 -71.5t-68 -63.5t-99.5 -45.5t-137 -17.5h-510q-17 0 -32 3
t-26 14.5t-17.5 35t-6.5 64.5q0 72 19.5 98.5t62.5 26.5h479zM147 1146v260l721 384v-257z" />
    <glyph glyph-name="uniFB95" unicode="&#x6af;" horiz-adv-x="1073" arabic-form="medial" 
d="M805 115q-21 -24 -48.5 -45t-63.5 -36.5t-81.5 -24.5t-101.5 -9h-510q-17 0 -32 3t-26 14.5t-17.5 35t-6.5 64.5q0 72 19.5 98.5t62.5 26.5h479q64 0 94 23t30 69q0 38 -34.5 88.5t-96 104.5t-145.5 107.5t-183 98.5v294l724 384v-315l-411 -199v-7q115 -71 189.5 -134
t120.5 -119.5t70 -107.5t37 -97q13 -48 30.5 -83.5t40.5 -59t54.5 -35.5t73.5 -12q18 0 33 -3t26 -14.5t17 -34.5t6 -63q0 -72 -19.5 -99.5t-62.5 -27.5q-34 0 -68.5 3t-68.5 14.5t-67 34.5t-64 63zM147 1146v260l721 384v-257z" />
    <glyph glyph-name="uniFB93" unicode="&#x6af;" horiz-adv-x="1957" arabic-form="final" 
d="M1361 242q64 0 94 23t30 69q0 38 -34.5 88.5t-96 104.5t-145.5 107.5t-183 98.5v294l724 384v-315l-411 -199v-7q115 -71 189.5 -134t120.5 -119.5t70 -107.5t37 -97q13 -48 30.5 -83.5t40.5 -59t54.5 -35.5t73.5 -12q18 0 33 -3t26 -14.5t17 -34.5t6 -63
q0 -72 -19.5 -99.5t-62.5 -27.5q-34 0 -68.5 3t-68.5 14.5t-67 34.5t-64 63q-21 -24 -48.5 -45t-63.5 -36.5t-81.5 -24.5t-101.5 -9h-916q-125 0 -209 18t-134.5 58t-71.5 103.5t-21 154.5v348h274v-311q0 -40 11.5 -65t39 -39.5t74 -19.5t117.5 -5h805zM1029 1146v260
l721 384v-257z" />
    <glyph glyph-name="uni06BA" unicode="&#x6ba;" horiz-adv-x="1322" arabic-form="isolated" 
d="M1193 275q0 -160 -40 -269t-115 -176t-182.5 -96t-242.5 -29q-573 0 -573 547v289h276v-291q0 -148 74.5 -225.5t227.5 -77.5q79 0 136 15.5t94 50t55 89.5t18 134v579h276z" />
    <glyph glyph-name="uniFB9F" unicode="&#x6ba;" horiz-adv-x="1371" arabic-form="final" 
d="M1193 74q-2 -163 -42 -272.5t-114.5 -175.5t-181.5 -94t-242 -28q-573 0 -573 547v289h276v-291q0 -148 74.5 -225.5t227.5 -77.5q79 0 136 15.5t94 50t55 89.5t18 134v538h276v-182q0 -42 16 -70.5t41 -46t56 -25t61 -7.5q16 0 31 -3t26 -14.5t18 -34.5t7 -63
q0 -72 -20 -99.5t-62 -27.5q-15 0 -39.5 3t-50 11t-49.5 22.5t-39 37.5z" />
    <glyph glyph-name="uniFBAC" unicode="&#x6be;" horiz-adv-x="1402" arabic-form="initial" 
d="M221 436q0 75 18 143t50 124q-25 -2 -50 -2.5t-50 -1.5v211q31 4 68 7t75 5t74.5 3t66.5 1q196 0 350 -37.5t260.5 -123t162.5 -225t56 -343.5v-197h-1302q-17 0 -32 3t-26 14.5t-17.5 35t-6.5 64.5q0 72 19.5 98.5t62.5 26.5h255q-17 44 -25.5 92.5t-8.5 101.5zM448 436
q0 -40 7.5 -75t21 -61t31.5 -41t39 -15t39 15t31.5 41t21 61t7.5 75t-7.5 75t-21 61t-31.5 41t-39 15t-39 -15t-31.5 -41t-21 -61t-7.5 -75zM1024 269q0 76 -13.5 136t-38 105.5t-59 78t-76.5 54.5q19 -46 29.5 -98t10.5 -109q0 -53 -8.5 -101.5t-25.5 -92.5h181v27z" />
    <glyph glyph-name="uniFBAD" unicode="&#x6be;" horiz-adv-x="1128" arabic-form="medial" 
d="M201 242v107q0 127 29 227t83 169t131.5 105.5t174.5 36.5q103 0 174 -35.5t115.5 -89.5t64.5 -117t20 -118q0 -34 -3.5 -70.5t-12.5 -73t-23.5 -70t-35.5 -61.5v-10h210q17 0 32 -3t26.5 -14.5t18.5 -34.5t7 -63q0 -72 -20.5 -99.5t-63.5 -27.5h-204v-6q21 -19 34 -43.5
t20 -49.5t9 -46.5t2 -34.5q0 -68 -22 -128.5t-67 -106t-113.5 -72.5t-161.5 -27q-109 0 -189 34t-132 98.5t-77.5 157.5t-25.5 210v14h-201q-17 0 -32 3t-26 14.5t-17.5 35t-6.5 64.5q0 72 19.5 98.5t62.5 26.5h201zM467 242h51q56 0 96 23.5t65 61t36.5 84t11.5 91.5
q0 60 -28 97.5t-92 37.5q-71 0 -105.5 -65.5t-34.5 -192.5v-137zM467 0q0 -61 7 -110.5t25 -85t48.5 -55t77.5 -19.5q53 0 78.5 33t25.5 87q0 21 -6 47.5t-22.5 49t-47.5 38t-80 15.5h-106z" />
    <glyph glyph-name="uniFBAB" unicode="&#x6be;" horiz-adv-x="1274" arabic-form="final" 
d="M348 0h-90q-19 0 -30 -8.5t-17 -24t-8 -36.5t-3 -46h-133q-12 28 -21 57.5t-15 56t-8.5 48.5t-2.5 35q0 53 17 84.5t44.5 48.5t63.5 22t74 5h129v107q0 127 29 227t83 169t131.5 105.5t174.5 36.5q103 0 174 -35.5t115.5 -89.5t64.5 -117t20 -118q0 -34 -3.5 -70.5
t-12.5 -73t-23.5 -70t-35.5 -61.5v-10h209q17 0 32 -3t26.5 -14.5t18.5 -34.5t7 -63q0 -72 -20.5 -99.5t-63.5 -27.5h-203v-6q21 -19 34 -43.5t20 -49.5t9 -46.5t2 -34.5q0 -68 -22 -128.5t-67 -106t-113.5 -72.5t-161.5 -27q-109 0 -189 34t-132 98.5t-77.5 157.5
t-25.5 210v14zM614 242h51q56 0 96 23.5t65 61t36.5 84t11.5 91.5q0 60 -28 97.5t-92 37.5q-71 0 -105.5 -65.5t-34.5 -192.5v-137zM614 0q0 -61 7 -110.5t25 -85t48.5 -55t77.5 -19.5q53 0 78.5 33t25.5 87q0 21 -6 47.5t-22.5 49t-47.5 38t-80 15.5h-106z" />
    <glyph glyph-name="uni06C0" unicode="&#x6c0;" horiz-adv-x="974" arabic-form="isolated" 
d="M448 618q-42 0 -71 -20t-47 -50.5t-26 -67t-8 -68.5q0 -85 37.5 -133t118.5 -48q67 0 107 43.5t40 134.5q0 39 -10 77t-29 67t-47 47t-65 18zM20 390q0 95 30.5 181.5t86.5 152t135 104t176 38.5q87 0 164.5 -31t135.5 -91.5t92 -149.5t34 -204q0 -77 -23 -149
t-73 -127.5t-130.5 -88.5t-195.5 -33q-89 0 -168 23.5t-137.5 72.5t-92.5 124t-34 178zM616 1055h-410v148h84q-11 17 -15.5 43t-4.5 45q0 48 17 84t44 60.5t61.5 37t69.5 12.5t61.5 -6t49.5 -14v-139q-56 12 -78 12q-42 0 -59 -18.5t-17 -47.5t18 -49t68 -20h111v-148z" />
    <glyph glyph-name="uni06C1" unicode="&#x6c1;" horiz-adv-x="974" arabic-form="isolated" 
d="M448 618q-42 0 -71 -20t-47 -50.5t-26 -67t-8 -68.5q0 -85 37.5 -133t118.5 -48q67 0 107 43.5t40 134.5q0 39 -10 77t-29 67t-47 47t-65 18zM20 390q0 95 30.5 181.5t86.5 152t135 104t176 38.5q87 0 164.5 -31t135.5 -91.5t92 -149.5t34 -204q0 -77 -23 -149
t-73 -127.5t-130.5 -88.5t-195.5 -33q-89 0 -168 23.5t-137.5 72.5t-92.5 124t-34 178z" />
    <glyph glyph-name="uniFBA8" unicode="&#x6c1;" horiz-adv-x="643" arabic-form="initial" 
d="M242 242v598h276v-840h-143q-70 -107 -70 -180q0 -21 7.5 -33.5t19.5 -19.5t26 -9t27 -2q14 0 32.5 5.5l43.5 13.5q-9 -59 -28.5 -99t-45 -64.5t-53.5 -35t-53 -10.5q-92 0 -137.5 52.5t-45.5 139.5q0 25 6 56t17.5 63t27 63.5t33.5 59.5h-182q-17 0 -32 3t-26 14.5
t-17.5 35t-6.5 64.5q0 72 19.5 98.5t62.5 26.5h242z" />
    <glyph glyph-name="uniFBA9" unicode="&#x6c1;" horiz-adv-x="928" arabic-form="medial" 
d="M403 242q-37 -108 -52 -179.5t-15 -121.5q0 -34 10 -62t25.5 -50t36 -38.5t41.5 -28.5q19 126 47 216.5t74 149t114.5 86.5t167.5 28h76q17 0 32 -3t26 -14.5t17.5 -34.5t6.5 -63q0 -72 -19.5 -99.5t-62.5 -27.5h-19q-45 0 -82.5 -25.5t-71 -87.5t-64 -165.5
t-60.5 -258.5q-143 28 -248 67t-173.5 89t-101.5 111.5t-33 134.5q0 18 3 55t14 80h-92q-17 0 -32 3t-26 14.5t-17.5 35t-6.5 64.5q0 72 19.5 98.5t62.5 26.5h403z" />
    <glyph glyph-name="uniFBA7" unicode="&#x6c1;" horiz-adv-x="754" arabic-form="final" 
d="M717 0q-48 0 -84.5 19.5t-65 49t-51.5 64t-45.5 64t-46 49t-53.5 19.5q-41 0 -62 -37.5t-21 -106.5q0 -32 3 -71t11 -95h-252q-2 21 -4 46t-3.5 49t-2 44.5t-0.5 33.5q0 81 15.5 156t49.5 132.5t88.5 91.5t133.5 34q64 0 110 -22t81 -55.5t62 -72.5l52.5 -72.5
t52.5 -55.5t63 -22h6q17 0 32 -3t26 -14.5t17.5 -34.5t6.5 -63q0 -72 -19.5 -99.5t-62.5 -27.5h-37z" />
    <glyph glyph-name="uni06C2.fina" unicode="&#x6c2;" horiz-adv-x="754" 
d="M717 0q-48 0 -84.5 19.5t-65 49t-51.5 64t-45.5 64t-46 49t-53.5 19.5q-41 0 -62 -37.5t-21 -106.5q0 -32 3 -71t11 -95h-252q-2 21 -4 46t-3.5 49t-2 44.5t-0.5 33.5q0 81 15.5 156t49.5 132.5t88.5 91.5t133.5 34q64 0 110 -22t81 -55.5t62 -72.5l52.5 -72.5
t52.5 -55.5t63 -22h6q17 0 32 -3t26 -14.5t17.5 -34.5t6.5 -63q0 -72 -19.5 -99.5t-62.5 -27.5h-37zM525 689h-410v148h84q-11 17 -15.5 43t-4.5 45q0 48 17 84t44 60.5t61.5 37t69.5 12.5t61.5 -6t49.5 -14v-139q-56 12 -78 12q-42 0 -59 -18.5t-17 -47.5t18 -49t68 -20
h111v-148z" />
    <glyph glyph-name="uni06C3.fina" unicode="&#x6c3;" horiz-adv-x="1000" 
d="M288 549q0 -27 6 -55t22.5 -50.5t45.5 -36.5t74 -14q26 0 54.5 2t59.5 13v290h-106q-79 0 -117.5 -40.5t-38.5 -108.5zM876 0q-51 0 -98.5 7.5t-87.5 26.5t-70.5 52t-46.5 84q-37 -8 -74.5 -13t-75.5 -5q-35 0 -78.5 6.5t-88.5 23t-87.5 44.5t-75.5 71t-53 102t-20 138
q0 115 41 195t105.5 130.5t143 73t154.5 22.5h362v-630q0 -25 3 -41.5t10.5 -26.5t21.5 -14t36 -4h103q17 0 32 -3t26 -14.5t17.5 -34.5t6.5 -63q0 -72 -19.5 -99.5t-62.5 -27.5h-124zM161 1308q0 31 12 58t32.5 47.5t47.5 32.5t58 12t58 -12t47 -32.5t32 -47.5t12 -58
t-12 -58t-32 -47.5t-47 -32t-58 -11.5t-58 11.5t-47.5 32t-32.5 47.5t-12 58zM505 1308q0 31 12 58t32.5 47.5t47.5 32.5t58 12t58 -12t47 -32.5t32 -47.5t12 -58t-12 -58t-32 -47.5t-47 -32t-58 -11.5t-58 11.5t-47.5 32t-32.5 47.5t-12 58z" />
    <glyph glyph-name="uni06CC" unicode="&#x6cc;" horiz-adv-x="1580" arabic-form="isolated" 
d="M316 39q0 -60 15.5 -113.5t60.5 -93t125 -63t209 -23.5q103 0 178.5 9.5t127.5 26t84.5 37.5t50.5 44t24 46.5t6 43.5q0 29 -17 50.5t-44.5 40t-63 36t-73 38t-73 46.5t-63 61.5t-44.5 82.5t-17 110q0 83 29 166.5t87.5 151t147 109.5t207.5 42q39 0 73.5 -5t63.5 -12
t52 -14.5t38 -13.5v-246q-74 17 -128 22t-83 5q-55 0 -95 -15.5t-66.5 -40.5t-39 -56t-12.5 -62q0 -30 17.5 -53.5t45.5 -44.5t64 -40.5l74 -41t74 -46.5t64 -56t45.5 -70.5t17.5 -89.5q0 -60 -15.5 -120.5t-50.5 -116.5t-91.5 -104.5t-140 -84.5t-195.5 -56.5t-257 -20.5
q-193 0 -324.5 40t-212.5 110t-116 165t-35 206v340h276v-326z" />
    <glyph glyph-name="uniFBFE" unicode="&#x6cc;" horiz-adv-x="733" arabic-form="initial" 
d="M0 0q-17 0 -32 3.5t-26 15.5t-17.5 35.5t-6.5 64.5q0 72 19.5 98.5t62.5 26.5h334v596h276v-840h-610zM23 -354q0 31 12 58t32.5 47t47.5 32t57 12q31 0 58.5 -12t48.5 -32t33 -47t12 -58t-12 -58t-33 -47.5t-48.5 -32.5t-58.5 -12q-30 0 -57 12t-47.5 32.5t-32.5 47.5
t-12 58zM367 -354q0 31 11.5 58t32 47t47.5 32t58 12t58 -12t47.5 -32t32.5 -47t12 -58t-12 -58t-32.5 -47.5t-47.5 -32.5t-58 -12t-58 12t-47.5 32.5t-32 47.5t-11.5 58z" />
    <glyph glyph-name="uniFBFF" unicode="&#x6cc;" horiz-adv-x="756" arabic-form="medial" 
d="M756 0q-32 0 -65 4t-64.5 15.5t-59.5 33t-49 56.5q-25 -38 -60 -59.5t-75.5 -32.5t-84 -14t-85.5 -3h-213q-17 0 -32 3t-26 14.5t-17.5 35t-6.5 64.5q0 72 19.5 98.5t62.5 26.5h168q36 0 60.5 4.5t40 17.5t22 37.5t6.5 63.5v475h274v-451q0 -40 9.5 -68t31 -45.5
t57 -25.5t87.5 -8q16 0 31 -3t26 -14.5t18 -34.5t7 -63q0 -72 -20 -99.5t-62 -27.5zM55 -354q0 31 12 58t32.5 47t47.5 32t58 12t58 -12t47 -32t32 -47t12 -58t-12 -58t-32 -47.5t-47 -32.5t-58 -12t-58 12t-47.5 32.5t-32.5 47.5t-12 58zM399 -354q0 31 12 58t32.5 47
t47.5 32t58 12t58 -12t47 -32t32 -47t12 -58t-12 -58t-32 -47.5t-47 -32.5t-58 -12t-58 12t-47.5 32.5t-32.5 47.5t-12 58z" />
    <glyph glyph-name="uniFBFD" unicode="&#x6cc;" horiz-adv-x="1556" arabic-form="final" 
d="M1447 0q5 -19 7.5 -42t2.5 -54q0 -87 -32.5 -160.5t-114.5 -126.5t-221 -83t-352 -30q-137 0 -242 18t-182.5 51t-130 79.5t-84 103t-45 122t-13.5 136.5v351h276v-342q0 -69 21.5 -120.5t71.5 -86.5t131 -52.5t200 -17.5q99 0 171.5 9t123 24t82.5 34t49.5 38.5t24 38
t6.5 32.5q0 28 -28.5 50.5t-80.5 43t-126 40.5t-164 42v252l137 -41.5t129.5 -34.5t119.5 -23.5t107 -8.5h265q16 0 30.5 -3t26 -14.5t18 -34.5t6.5 -63q0 -72 -19.5 -99.5t-61.5 -27.5h-109z" />
    <glyph glyph-name="uni06D2" unicode="&#x6d2;" horiz-adv-x="1658" arabic-form="isolated" 
d="M811 821q2 -111 -25 -184.5t-74.5 -120.5t-111.5 -74t-136 -45q-52 -13 -86.5 -25.5t-55.5 -24.5t-29.5 -25t-8.5 -27q0 -23 23 -38.5t76.5 -25t141.5 -14t218 -4.5q67 0 143.5 3.5t155 9.5t157 14.5t151 18t135.5 19.5t110 20v-247q-103 -22 -221.5 -38.5t-234.5 -27.5
t-222.5 -16.5t-185.5 -5.5q-176 0 -309 13.5t-222.5 48.5t-134.5 95.5t-45 155.5q0 71 28 127.5t78.5 99.5t119.5 73.5t151 50.5q41 10 67 24t41.5 36.5t24 55t14.5 78.5h267z" />
    <glyph glyph-name="uniFBAF" unicode="&#x6d2;" horiz-adv-x="927" arabic-form="final" 
d="M526 0q-75 0 -123 -5.5t-75.5 -15t-37.5 -23.5t-10 -32q0 -20 17 -37.5t64 -30.5t130.5 -20.5t216.5 -7.5q50 0 118.5 4t147.5 11t165 17t171 22v-232q-186 -32 -347 -47t-286 -15q-202 0 -330 26t-200.5 71t-99.5 107t-27 134q0 76 32 135t92.5 99t148 61t197.5 21h437
q17 0 32 -3t26 -14.5t17.5 -34.5t6.5 -63q0 -72 -20 -99.5t-62 -27.5h-401z" />
    <glyph glyph-name="uni06D3" unicode="&#x6d3;" horiz-adv-x="1658" arabic-form="isolated" 
d="M811 821q2 -111 -25 -184.5t-74.5 -120.5t-111.5 -74t-136 -45q-52 -13 -86.5 -25.5t-55.5 -24.5t-29.5 -25t-8.5 -27q0 -23 23 -38.5t76.5 -25t141.5 -14t218 -4.5q67 0 143.5 3.5t155 9.5t157 14.5t151 18t135.5 19.5t110 20v-247q-103 -22 -221.5 -38.5t-234.5 -27.5
t-222.5 -16.5t-185.5 -5.5q-176 0 -309 13.5t-222.5 48.5t-134.5 95.5t-45 155.5q0 71 28 127.5t78.5 99.5t119.5 73.5t151 50.5q41 10 67 24t41.5 36.5t24 55t14.5 78.5h267zM514 943h-410v148h84q-11 17 -15.5 43t-4.5 45q0 48 17 84t44 60.5t61.5 37t69.5 12.5t61.5 -6
t49.5 -14v-139q-56 12 -78 12q-42 0 -59 -18.5t-17 -47.5t18 -49t68 -20h111v-148z" />
    <glyph glyph-name="uniFBB1" unicode="&#x6d3;" horiz-adv-x="927" arabic-form="final" 
d="M526 0q-75 0 -123 -5.5t-75.5 -15t-37.5 -23.5t-10 -32q0 -20 17 -37.5t64 -30.5t130.5 -20.5t216.5 -7.5q50 0 118.5 4t147.5 11t165 17t171 22v-232q-186 -32 -347 -47t-286 -15q-202 0 -330 26t-200.5 71t-99.5 107t-27 134q0 76 32 135t92.5 99t148 61t197.5 21h437
q17 0 32 -3t26 -14.5t17.5 -34.5t6.5 -63q0 -72 -20 -99.5t-62 -27.5h-401zM508 437h-410v148h84q-11 17 -15.5 43t-4.5 45q0 48 17 84t44 60.5t61.5 37t69.5 12.5t61.5 -6t49.5 -14v-139q-56 12 -78 12q-42 0 -59 -18.5t-17 -47.5t18 -49t68 -20h111v-148z" />
    <glyph glyph-name="uni06D5.fina" unicode="&#x6d5;" horiz-adv-x="1000" 
d="M288 549q0 -27 6 -55t22.5 -50.5t45.5 -36.5t74 -14q26 0 54.5 2t59.5 13v290h-106q-79 0 -117.5 -40.5t-38.5 -108.5zM876 0q-51 0 -98.5 7.5t-87.5 26.5t-70.5 52t-46.5 84q-37 -8 -74.5 -13t-75.5 -5q-35 0 -78.5 6.5t-88.5 23t-87.5 44.5t-75.5 71t-53 102t-20 138
q0 115 41 195t105.5 130.5t143 73t154.5 22.5h362v-630q0 -25 3 -41.5t10.5 -26.5t21.5 -14t36 -4h103q17 0 32 -3t26 -14.5t17.5 -34.5t6.5 -63q0 -72 -19.5 -99.5t-62.5 -27.5h-124z" />
    <glyph glyph-name="uniFDF2" unicode="&#xfdf2;" horiz-adv-x="2941" arabic-form="isolated" 
d="M408 152q-36 0 -79.5 6.5t-88.5 23t-88 44.5t-76.5 71t-53.5 102t-20 138q0 115 41 195t105.5 130.5t144 73t156.5 22.5h358v-630q0 -25 3 -41.5t10.5 -26.5t21.5 -14t37 -4h254q34 0 58.5 4.5t39.5 17.5t22 37.5t7 63.5v1097h273v-1073q0 -39 5 -67t21.5 -45.5t47 -26
t82.5 -8.5h304v1220h278v-1462h-581q-30 0 -58.5 4t-55 16t-50.5 33.5t-45 55.5q-26 -38 -60 -59.5t-74 -32.5t-83.5 -14t-87.5 -3h-318q-50 0 -97 7.5t-87 26.5t-70.5 52t-46.5 84q-37 -8 -74.5 -13t-74.5 -5zM270 549q0 -27 7 -51.5t24 -43t46 -29.5t73 -11q26 0 55 1.5
t60 12.5v270h-107q-80 0 -119 -40.5t-39 -108.5zM2802 1462v-1462h-276v1462h276z" />
    <glyph glyph-name="uniFDFA" unicode="&#xfdfa;" horiz-adv-x="2165" arabic-form="isolated" 
d="M2083 895q0 -14 -8 -34t-25 -46q-29 -47 -63 -63q-95 -43 -238 -43q-23 0 -47.5 1t-50.5 3q-50 -97 -78 -97q-8 0 -8 13q0 15 11 39.5t34 56.5q-44 17 -68 29.5t-31 23.5q-80 -53 -102 -53q15 -287 51 -360t172 -82l4 4q-43 34 -43 88q0 68 66 155q51 66 125 66
q59 0 108 -35q50 -33 50 -63q-53 18 -107 18q-73 0 -133 -29q-53 -27 -53 -55q0 -29 51 -80q26 -26 48 -40t42 -19q19 2 53.5 11t85.5 26t85.5 29.5t51.5 21.5l-34 -76q-207 -108 -392 -108q-198 0 -243 149q-62 -133 -117 -133q-53 0 -137 90q-66 -57 -166 -86t-238 -29
q-42 0 -77 3t-66 8q9 -65 18 -107q20 -76 48 -102q88 -90 360 -90q232 0 338 65q30 76 57 76q8 0 8 -16q0 -30 -24 -91q12 -26 55 -26q55 0 100 24q43 136 68 136q8 0 8 -23q0 -38 -20 -88q64 -27 90 -27q13 0 16 7q2 4 -16 79l35 74q24 -74 24 -106q0 -138 -90 -138
q-46 0 -98 39q-32 -53 -121 -53q-98 0 -98 53q-20 -14 -52.5 -26t-78.5 -23q-53 -11 -114.5 -16.5t-133.5 -5.5q-100 0 -172.5 14t-120.5 43q-120 70 -123 258l-45 -66q-17 -26 -30.5 -38.5t-22.5 -14.5q24 -42 24 -84q0 -53 -32 -86q-18 -16 -43 -16q-42 0 -125 47
q-28 -63 -86 -96q-7 -4 -20.5 -6t-27.5 -3t-26.5 -2t-18.5 -4l-22 -8q-12 0 -12 10t49 31q31 13 50.5 22t29.5 17l69 53q-20 36 -20 82t37 84q36 43 69 43q5 0 13 -4q18 -11 33 -15.5t26 -4.5q36 0 74 47l47 86q-78 24 -113 55q-61 55 -80 174h-4q-59 -102 -162 -102
q-20 0 -39.5 4t-39.5 12q-33 14 -33 25q0 52 88 118q42 32 85.5 54.5t88.5 36.5l-4 34l41 68q15 -223 43 -289q27 -65 115 -92l-27 270l39 88l35 -368q106 -12 194 -12q107 0 197 19.5t166 61.5q27 78 39 78q8 0 8 -18q0 -9 -1.5 -21.5t-6.5 -29.5q75 -72 120 -72
q53 0 86 88l-26 330q-153 -6 -180 151h-4q-8 -31 -15.5 -52t-13.5 -34q-22 -52 -55 -61l4 -4q143 9 143 -80q0 -29 -12.5 -53t-38.5 -41q-88 -60 -169 -90.5t-159 -30.5q-94 0 -151.5 47.5t-57.5 134.5q0 32 8 66t25 71q-57 16 -78 88h-4q-30 -104 -113 -104q-99 0 -96 158
l-55 -50q-14 -14 -80 -14q-100 0 -100 37q0 22 26 64q29 45 51 55l156 76v20l35 74l8 -246q3 -86 66 -86q15 0 31 6t29 15.5t22.5 22t11.5 24.5l-33 233l37 80l57 -330q20 -43 68 -43q47 0 47 27q0 20 -8 58t-25 93q-11 32 -20.5 65.5t-20.5 67.5l27 68q82 -256 82 -321
q0 -20 -5 -43t-16 -48q-21 -57 -51 -57q-9 0 -18 6q-8 -21 -11.5 -41t-3.5 -39q0 -153 187 -153q145 0 291 98q4 4 4 6q0 13 -78 25l-89.5 13.5t-35.5 6.5q-24 19 27 82q121 52 131 109q2 5 2 12v16q0 101 -10.5 218.5t-30.5 254.5l34 115q25 -218 44.5 -348.5t33.5 -175.5
q38 -117 148 -135l-10 196l43 92l16 -286q29 11 60 29t63 44l61 -43q41 -24 80 -30q22 23 55 51.5t78 60.5q105 78 144 78q36 0 84 -28q53 -33 53 -68zM2064 4q0 -102 -79 -221q-86 -131 -183 -131q-23 0 -52.5 8t-68.5 25q-75 32 -75 47q0 8 10 8q5 0 18.5 -3t36.5 -11
q48 -17 72 -17q139 -3 287 217l-15 45q-37 -53 -76 -53q-14 0 -27 7.5t-23 19.5t-16 27t-7 30q-3 46 30 111q34 63 58 63q26 0 65 -49q45 -54 45 -123zM1987 1309q-70 -25 -238 -105q-197 -95 -197 -125q0 -22 54 -51l-19 -49q-67 21 -67 82q0 63 53 90q131 75 238 127.5
t194 81.5zM975 915q-6 -135 -27 -149l-51 496l45 116zM1233 76l-53 -64l-99 72l-57 -74l-102 74l59 72l96 -72l56 68zM2025 860q0 15 -36 33q-35 18 -54 18q-43 0 -123 -49q-32 -20 -55.5 -37t-40.5 -32q6 -2 16.5 -2h24.5q42 0 84 4t84 12q100 21 100 53zM1294 -248
q0 -23 -1 -38t-3 -23q-11 -27 -51 -27q-20 0 -29 8q-29 -32 -61 -32q-9 0 -17.5 5.5t-16.5 11.5t-14.5 11.5t-10.5 5.5q-16 0 -76 -34q-58 -37 -144 -37q-90 0 -90 16q0 14 66 14q71 0 94 5q14 3 32 10.5t40 21.5q31 20 51 29.5t31 9.5q8 0 18.5 -5t20 -11.5l17 -11.5
t9.5 -5q31 0 37 35q3 27 23 27q8 0 8 -12v-9.5t-2 -9.5q3 -9 22 -12q25 0 25 24q0 33 22 33zM1669 1444l-12 -45l-400 -197l9 51zM346 539q-180 -70 -180 -107q0 -20 63 -20q69 0 121 49zM664 1362q0 -66 -43 -66q-14 0 -24.5 4.5t-18.5 12.5q-37 -31 -62 -31q-43 0 -43 55
q0 39 6 56l13 12q-4 -76 34 -76q25 0 39 33l-4 47l19 29l8 -62q3 -33 30 -33q26 0 23 31l-6 45l14 21q8 -20 11.5 -39t3.5 -39zM387 997q-20 -9 -41 -17.5t-43 -16.5q-66 -31 -70 -50q-3 -22 52 -22q29 0 55 6.5t49 20.5zM438 -78q-9 42 -49 70q-37 28 -70 28q-28 0 -28 -24
q0 -28 53 -55q49 -31 80 -31q17 0 14 12zM2005 20q-12 66 -53 66q-32 0 -41 -51q9 -37 63 -37q28 0 31 22z" />
    <glyph glyph-name=".notdef" horiz-adv-x="1049" 
d="M1049 1470v-1470h-1049v1470h1049zM946 102v1264h-844v-1264h844zM530 1247q110 0 182 -74t72 -194q0 -82 -33 -135.5t-98 -112.5q-67 -60 -82.5 -94.5t-15.5 -157.5h-94l-4 40q0 63 8.5 110t47 97.5t72.5 81.5t64.5 70.5t30.5 92.5q0 72 -46.5 123t-109.5 51
q-67 0 -111.5 -48t-56.5 -146l-102 16q14 137 85.5 208.5t190.5 71.5zM455 377h114v-137h-114v137z" />
    <glyph glyph-name=".null" 
 />
    <glyph glyph-name="nonmarkingreturn" unicode="&#xd;" horiz-adv-x="569" 
 />
    <glyph glyph-name="space" unicode=" " horiz-adv-x="569" 
 />
    <glyph glyph-name="exclam" unicode="!" horiz-adv-x="569" 
d="M436 1462v-393l-80 -631h-145l-78 631v393h303zM446 315v-315h-321v315h321z" />
    <glyph glyph-name="quotedbl" unicode="&#x22;" horiz-adv-x="948" 
d="M393 1462v-657h-219v657h219zM774 1462v-657h-219v657h219z" />
    <glyph glyph-name="numbersign" unicode="#" horiz-adv-x="1139" 
d="M580 1434l-58 -406h199l55 406h199l-55 -406h151v-184h-178l-35 -254h152v-184h-179l-55 -406h-198l55 406h-197l-56 -400l-2 -6h-198l58 406h-170v184h194l37 254h-170v184h195l57 406h199zM498 844l-37 -254h198l35 254h-196z" />
    <glyph glyph-name="dollar" unicode="$" horiz-adv-x="1139" 
d="M508 1655h121v-158q208 -23 328 -133.5t133 -302.5h-291q-5 86 -53 140.5t-117 54.5v-361q217 -53 314 -113.5t147.5 -145.5t50.5 -238q0 -125 -98 -248q-75 -85 -175.5 -129.5t-238.5 -55.5v-174h-121v174q-233 19 -359.5 144.5t-150.5 365.5h291v-7q0 -104 59.5 -173.5
t159.5 -89.5v428q-29 10 -70 20q-199 46 -302 142.5t-103 263.5q0 189 130.5 305t344.5 133v158zM324 1087q0 -68 44 -105t140 -58v333h-3q-75 0 -128 -46t-53 -124zM629 205q96 10 158.5 63.5t62.5 137.5q0 77 -48 118t-173 74v-393z" />
    <glyph glyph-name="percent" unicode="%" horiz-adv-x="2048" 
d="M1542 1479l-844 -1524h-178l848 1524h174zM502 1462q166 0 251 -107t85 -305q0 -185 -91 -285.5t-255 -100.5q-171 0 -254.5 99.5t-83.5 293.5q0 187 91.5 296t256.5 109zM362 1051q0 -135 33.5 -184.5t98.5 -49.5t100 54.5t35 178.5q0 134 -32.5 196.5t-95.5 62.5
q-70 0 -104.5 -63t-34.5 -195zM1559 770q167 0 251 -103.5t84 -298.5q0 -184 -90.5 -290.5t-255.5 -106.5q-166 0 -252 105t-86 298q0 183 92 289.5t257 106.5zM1419 373q0 -140 33 -194t98 -54q70 0 103 62t33 185q0 121 -31 182.5t-98 61.5q-72 0 -105 -59t-33 -184z" />
    <glyph glyph-name="ampersand" unicode="&#x26;" horiz-adv-x="1403" 
d="M636 1479q176 0 288 -94.5t112 -256.5q0 -113 -65 -203.5t-195 -160.5l189 -232q18 35 32 79t21 96h252q-14 -114 -50.5 -203t-91.5 -158l297 -346h-356l-119 145q-87 -87 -188 -130.5t-223 -43.5q-205 0 -339 119.5t-134 318.5q0 130 82 238.5t245 186.5
q-84 100 -111.5 169.5t-27.5 141.5q0 143 112.5 238.5t269.5 95.5zM518 1155q0 -46 21 -90t94 -129q83 51 116 97t33 111q0 58 -39.5 99t-94.5 41q-56 0 -93 -38t-37 -91zM342 403q0 -77 63.5 -134.5t145.5 -57.5q64 0 122 28t124 101l-250 305q-99 -42 -152 -104t-53 -138z
" />
    <glyph glyph-name="quotesingle" unicode="'" horiz-adv-x="569" 
d="M395 1462v-657h-219v657h219z" />
    <glyph glyph-name="parenleft" unicode="(" horiz-adv-x="606" 
d="M621 1497q-109 -203 -166.5 -440.5t-57.5 -487.5q0 -251 53.5 -485t167.5 -457h-241q-133 219 -202 456.5t-69 465.5q0 238 70 496.5t201 451.5h244z" />
    <glyph glyph-name="parenright" unicode=")" horiz-adv-x="606" 
d="M229 1497q133 -218 202 -455t69 -469q0 -234 -69.5 -494t-200.5 -451h-244q112 213 167.5 446t55.5 479q0 255 -55 491.5t-166 452.5h241z" />
    <glyph glyph-name="asterisk" unicode="*" horiz-adv-x="834" 
d="M496 1462v-256l237 90l55 -157l-241 -80l151 -201l-135 -100l-151 211l-144 -211l-137 100l152 201l-238 80l55 157l232 -90v256h164z" />
    <glyph glyph-name="plus" unicode="+" horiz-adv-x="1229" 
d="M725 1034v-407h408v-219h-408v-408h-219v408h-408v219h408v407h219z" />
    <glyph glyph-name="comma" unicode="," horiz-adv-x="569" 
d="M446 315v-321q0 -118 -82.5 -212.5t-236.5 -121.5v147q67 16 106.5 68.5t39.5 110.5v14h-148v315h321z" />
    <glyph glyph-name="hyphen" unicode="-" horiz-adv-x="834" 
d="M725 684v-250h-616v250h616z" />
    <glyph glyph-name="period" unicode="." horiz-adv-x="569" 
d="M444 315v-315h-321v315h321z" />
    <glyph glyph-name="slash" unicode="/" horiz-adv-x="760" 
d="M782 1497l-571 -1532h-234l572 1532h233z" />
    <glyph glyph-name="zero" unicode="0" horiz-adv-x="1139" 
d="M567 1462q257 0 393 -187.5t136 -551.5q0 -369 -135 -560.5t-394 -191.5q-256 0 -390 190.5t-134 561.5q0 362 133.5 550.5t390.5 188.5zM334 721q0 -222 30.5 -322.5t81.5 -144t121 -43.5q115 0 176.5 112.5t61.5 398.5q0 275 -61.5 388t-177.5 113q-110 0 -171 -109
t-61 -393z" />
    <glyph glyph-name="one" unicode="1" horiz-adv-x="1139" 
d="M803 1434v-1434h-291v930h-360v219h19q176 0 277.5 72.5t122.5 212.5h232z" />
    <glyph glyph-name="two" unicode="2" horiz-adv-x="1139" 
d="M596 1462q210 0 350.5 -125.5t140.5 -322.5q0 -138 -66 -248.5t-277 -244.5q-147 -93 -217 -154t-109 -117h678v-250h-1053q0 142 50.5 251.5t145 196t360.5 263.5q102 67 150 134.5t48 145.5q0 97 -58.5 159t-156.5 62q-108 0 -166.5 -88t-61.5 -241h-278v27
q0 249 141.5 400.5t378.5 151.5z" />
    <glyph glyph-name="three" unicode="3" horiz-adv-x="1139" 
d="M565 1462q195 0 338.5 -113t143.5 -284q0 -104 -51 -183t-150 -110v-4q120 -28 187 -117t67 -209q0 -210 -154 -340.5t-379 -130.5q-242 0 -387 137t-145 369v17h276q7 -135 73 -209t179 -74q104 0 169 64.5t65 160.5q0 107 -63.5 160t-237.5 53h-31v205l49 -2
q123 0 189.5 47t66.5 133t-57.5 138.5t-145.5 52.5q-98 0 -158.5 -64.5t-62.5 -191.5h-276q8 226 143 360.5t352 134.5z" />
    <glyph glyph-name="four" unicode="4" horiz-adv-x="1139" 
d="M915 1434v-863h191v-239h-191v-332h-276v332h-606v266l622 836h260zM633 1069l-371 -498h377v498h-6z" />
    <glyph glyph-name="five" unicode="5" horiz-adv-x="1139" 
d="M1024 1434v-240h-592l-57 -326l4 -4q54 54 120 82.5t160 28.5q200 0 321.5 -137t121.5 -351q0 -213 -153.5 -364.5t-372.5 -151.5q-232 0 -382.5 121t-156.5 334h291q11 -98 75.5 -156.5t159.5 -58.5q107 0 177.5 81t70.5 195q0 119 -68.5 194t-180.5 75
q-77 0 -127 -28.5t-91 -86.5h-262l141 793h801z" />
    <glyph glyph-name="six" unicode="6" horiz-adv-x="1139" 
d="M606 1462q192 0 316 -106t149 -291h-276q-18 83 -71 130.5t-122 47.5q-118 0 -190.5 -117t-83.5 -319l4 -4q59 85 137.5 122.5t184.5 37.5q118 0 228.5 -64.5t162 -174t51.5 -228.5q0 -224 -142.5 -374.5t-359.5 -150.5q-270 0 -410.5 193.5t-140.5 547.5
q0 323 149 536.5t414 213.5zM354 477q0 -108 64.5 -187t167.5 -79q94 0 156.5 77t62.5 185q0 111 -58 190.5t-163 79.5t-167.5 -73.5t-62.5 -192.5z" />
    <glyph glyph-name="seven" unicode="7" horiz-adv-x="1139" 
d="M1059 1434v-250q-211 -191 -336 -522.5t-133 -661.5h-311q25 318 150.5 617t330.5 546h-680v271h979z" />
    <glyph glyph-name="eight" unicode="8" horiz-adv-x="1139" 
d="M572 1462q223 0 351 -120.5t128 -265.5q0 -104 -52.5 -183.5t-156.5 -116.5v-4q133 -32 200.5 -125t67.5 -225q0 -206 -154.5 -328.5t-382.5 -122.5q-236 0 -390 120t-154 329q0 136 71 228.5t199 123.5v4q-102 30 -156.5 108t-54.5 187q0 175 142 283t342 108zM352 1044
q0 -82 61 -135t158 -53t156 51t59 137q0 90 -55 144.5t-161 54.5q-97 0 -157.5 -56.5t-60.5 -142.5zM319 434q0 -104 73.5 -174t180.5 -70q106 0 176 68.5t70 173.5q0 99 -71 164.5t-177 65.5q-105 0 -178.5 -60.5t-73.5 -167.5z" />
    <glyph glyph-name="nine" unicode="9" horiz-adv-x="1139" 
d="M546 1462q270 0 410 -193.5t140 -546.5q0 -324 -150 -537.5t-414 -213.5q-187 0 -313 105t-151 293h276q17 -81 70 -130t123 -49q116 0 187 110.5t87 326.5l-4 4q-58 -82 -136.5 -121t-186.5 -39q-118 0 -228 64.5t-161.5 172t-51.5 231.5q0 223 141 373t362 150z
M334 961q0 -117 59 -194t160 -77q104 0 167.5 73t63.5 193q0 113 -65 190t-167 77q-93 0 -155.5 -76t-62.5 -186z" />
    <glyph glyph-name="colon" unicode=":" horiz-adv-x="569" 
d="M446 1040v-315h-321v315h321zM446 315v-315h-321v315h321z" />
    <glyph glyph-name="semicolon" unicode=";" horiz-adv-x="569" 
d="M446 1040v-315h-321v315h321zM446 315v-321q0 -118 -82.5 -212.5t-236.5 -121.5v147q67 16 106.5 68.5t39.5 110.5v14h-148v315h321z" />
    <glyph glyph-name="less" unicode="&#x3c;" horiz-adv-x="1229" 
d="M1135 817l-752 -299l752 -299v-236l-1041 414v242l1041 414v-236z" />
    <glyph glyph-name="equal" unicode="=" horiz-adv-x="1229" 
d="M1133 846v-219h-1035v219h1035zM1133 408v-220h-1035v220h1035z" />
    <glyph glyph-name="greater" unicode="&#x3e;" horiz-adv-x="1229" 
d="M94 1053l1041 -414v-242l-1041 -413v235l752 299l-752 299v236z" />
    <glyph glyph-name="question" unicode="?" horiz-adv-x="1139" 
d="M564 1497q240 0 374.5 -116.5t134.5 -289.5q-5 -93 -20 -139.5t-45 -89.5t-84 -89l-119 -87q-44 -38 -67 -70.5t-38 -98.5v-79h-276v92q7 103 51.5 182t135.5 148t116 113t25 100q0 90 -44.5 137t-129.5 47q-101 0 -156 -71t-55 -195h-301q6 227 142 366.5t356 139.5z
M717 315v-315h-322v315h322z" />
    <glyph glyph-name="at" unicode="@" horiz-adv-x="1638" 
d="M852 1497q293 0 503 -178.5t210 -446.5q0 -167 -73.5 -301.5t-195.5 -213t-214 -78.5q-63 0 -102.5 31.5t-45.5 83.5h-4q-38 -59 -96.5 -88.5t-124.5 -29.5q-126 0 -224 103t-98 249q0 208 129.5 364.5t316.5 156.5q76 0 141 -35t99 -108l33 110h168l-125 -512
q-16 -57 -18.5 -74t-2.5 -30q0 -22 9.5 -34.5t26.5 -12.5q91 0 166 110.5t75 265.5q0 230 -153 367t-402 137q-257 0 -418.5 -170.5t-161.5 -435.5q0 -264 169 -431t435 -167q127 0 244 44t197 124h172q-111 -166 -275 -249t-350 -83q-328 0 -558 221t-230 545
q0 322 230 544t548 222zM596 653q0 -80 44 -131t116 -51q103 0 177.5 98t74.5 211q0 70 -44 122t-116 52q-104 0 -178 -96t-74 -205z" />
    <glyph glyph-name="A" unicode="A" horiz-adv-x="1403" 
d="M870 1462l547 -1461h-334l-110 325h-547l-115 -326h-325l555 1462h329zM700 1102l-190 -537h379l-184 537h-5z" />
    <glyph glyph-name="B" unicode="B" horiz-adv-x="1442" 
d="M840 1462q224 0 340 -88.5t116 -272.5q0 -113 -52 -187t-146 -119q133 -40 200.5 -135t67.5 -236q0 -202 -146 -313t-361 -111h-718v1462h699zM794 870q86 0 138.5 44t52.5 130t-54 127t-159 41h-309v-342h331zM815 250q107 0 168 47t61 145q0 103 -57.5 156t-166.5 53
h-357v-401h352z" />
    <glyph glyph-name="C" unicode="C" horiz-adv-x="1518" 
d="M797 1497q249 0 424.5 -140.5t205.5 -385.5h-311q-21 115 -114 185.5t-206 70.5q-188 0 -292.5 -137.5t-104.5 -364.5q0 -217 103.5 -353t294.5 -136q139 0 225 85.5t106 241.5h312q-28 -279 -202.5 -438.5t-440.5 -159.5q-211 0 -375.5 96.5t-254 272.5t-89.5 391
q0 337 197 554.5t522 217.5z" />
    <glyph glyph-name="D" unicode="D" horiz-adv-x="1518" 
d="M782 1462q292 0 473 -190.5t181 -532.5t-177 -540.5t-477 -198.5h-641v1462h641zM757 270q154 0 255.5 110.5t101.5 329.5q0 253 -106 367.5t-307 114.5h-238v-922h294z" />
    <glyph glyph-name="E" unicode="E" horiz-adv-x="1327" 
d="M1235 1462v-270h-772v-313h708v-250h-708v-359h788v-270h-1110v1462h1094z" />
    <glyph glyph-name="F" unicode="F" horiz-adv-x="1214" 
d="M1169 1462v-270h-706v-338h612v-250h-612v-604h-322v1462h1028z" />
    <glyph glyph-name="G" unicode="G" horiz-adv-x="1554" 
d="M796 1497q238 0 414 -137.5t203 -378.5h-307q-31 123 -112 184.5t-197 61.5q-191 0 -294.5 -138.5t-103.5 -363.5q0 -213 102.5 -351t295.5 -138q154 0 243.5 78.5t104.5 236.5h-324v240h615v-791h-205l-33 165q-79 -99 -179 -149.5t-223 -50.5q-209 0 -374 96.5
t-254.5 272.5t-89.5 391q0 338 197 555t521 217z" />
    <glyph glyph-name="H" unicode="H" horiz-adv-x="1518" 
d="M463 1462v-561h592v561h321v-1462h-321v631h-592v-631h-322v1462h322z" />
    <glyph glyph-name="I" unicode="I" horiz-adv-x="604" 
d="M463 1462v-1462h-322v1462h322z" />
    <glyph glyph-name="J" unicode="J" horiz-adv-x="1139" 
d="M997 1462v-1011q0 -235 -122.5 -360.5t-363.5 -125.5q-213 0 -347.5 120.5t-134.5 324.5v135h290v-55q0 -146 47 -200t140 -54q84 0 127 45.5t43 181.5v999h321z" />
    <glyph glyph-name="K" unicode="K" horiz-adv-x="1479" 
d="M463 1462v-606l571 606h402l-572 -577l627 -885h-404l-440 657l-184 -186v-471h-322v1462h322z" />
    <glyph glyph-name="L" unicode="L" horiz-adv-x="1214" 
d="M463 1462v-1192h713v-270h-1035v1462h322z" />
    <glyph glyph-name="M" unicode="M" horiz-adv-x="1858" 
d="M594 1462l342 -1005h4l323 1001l2 4h451v-1462h-301v1036h-4l-358 -1036h-248l-359 1026h-4v-1026h-301v1462h453z" />
    <glyph glyph-name="N" unicode="N" horiz-adv-x="1518" 
d="M461 1462l610 -981h4v981h301v-1462h-321l-609 979h-4v-979h-301v1462h320z" />
    <glyph glyph-name="O" unicode="O" horiz-adv-x="1593" 
d="M797 1497q326 0 522.5 -218.5t196.5 -553.5q0 -327 -197.5 -543.5t-521.5 -216.5q-211 0 -375.5 97t-254 272.5t-89.5 390.5q0 338 197.5 555t521.5 217zM399 725q0 -216 103.5 -352.5t294.5 -136.5q189 0 293 134.5t104 354.5q0 231 -105.5 366.5t-293.5 135.5
q-187 0 -291.5 -137t-104.5 -365z" />
    <glyph glyph-name="P" unicode="P" horiz-adv-x="1366" 
d="M811 1462q229 0 362.5 -128.5t133.5 -340.5q0 -211 -133.5 -340t-362.5 -129h-348v-524h-322v1462h670zM722 774q138 0 205.5 52t67.5 167q0 112 -65 165.5t-207 53.5h-260v-438h259z" />
    <glyph glyph-name="Q" unicode="Q" horiz-adv-x="1593" 
d="M797 1497q326 0 522.5 -218t196.5 -554q0 -157 -48 -293.5t-143 -245.5l182 -166l-149 -157l-207 188q-71 -41 -159.5 -63.5t-194.5 -22.5q-330 0 -524.5 219.5t-194.5 540.5q0 338 197.5 555t521.5 217zM399 725q0 -214 103.5 -355t331.5 -135q35 0 59 5.5t33 15.5
l-138 125l150 160l166 -152q46 62 68 148t22 188q0 232 -105 367t-294 135q-187 0 -291.5 -137t-104.5 -365z" />
    <glyph glyph-name="R" unicode="R" horiz-adv-x="1479" 
d="M938 1462q177 0 298.5 -114t121.5 -290q0 -138 -57.5 -228.5t-174.5 -137.5v-4q103 -27 158 -123t60 -294q4 -198 57 -271h-322q-28 71 -38 230q-15 216 -72.5 278.5t-176.5 62.5h-329v-571h-322v1462h797zM822 801q101 0 157.5 49t56.5 160q0 104 -54.5 153t-159.5 49
h-359v-411h359z" />
    <glyph glyph-name="S" unicode="S" horiz-adv-x="1329" 
d="M645 1497q265 0 425 -123t160 -348h-311q-7 110 -75 165.5t-212 55.5q-98 0 -160.5 -43t-62.5 -123q0 -55 26 -82t106.5 -56.5t351.5 -93.5q182 -44 284 -149t102 -266q0 -212 -159 -340.5t-448 -128.5q-276 0 -450 136t-174 376v8h311q2 -136 91 -203t233 -67
q130 0 207.5 47.5t77.5 134.5q0 71 -59.5 116.5t-190.5 78.5q-168 38 -305 80.5t-226.5 138t-89.5 244.5q0 197 157.5 319.5t390.5 122.5z" />
    <glyph glyph-name="T" unicode="T" horiz-adv-x="1251" 
d="M1225 1462v-270h-439v-1192h-321v1192h-438v270h1198z" />
    <glyph glyph-name="U" unicode="U" horiz-adv-x="1518" 
d="M457 1462v-918q0 -158 72.5 -233t228.5 -75q168 0 235.5 73.5t67.5 233.5v919h321v-919q0 -272 -158.5 -425t-465.5 -153q-309 0 -466 150.5t-157 427.5v919h322z" />
    <glyph glyph-name="V" unicode="V" horiz-adv-x="1290" 
d="M315 1462l326 -1028h4l330 1028h332l-486 -1462h-362l-475 1462h331z" />
    <glyph glyph-name="W" unicode="W" horiz-adv-x="1933" 
d="M328 1462l231 -995h4l254 995h301l250 -1007h4l240 1007h315l-393 -1462h-320l-247 995h-4l-244 -995h-326l-387 1462h322z" />
    <glyph glyph-name="X" unicode="X" horiz-adv-x="1366" 
d="M401 1462l287 -467l297 467h352l-469 -698l510 -764h-383l-319 506l-326 -506h-362l512 766l-471 696h372z" />
    <glyph glyph-name="Y" unicode="Y" horiz-adv-x="1366" 
d="M344 1462l342 -577l340 577h358l-542 -901v-561h-322v569l-538 893h362z" />
    <glyph glyph-name="Z" unicode="Z" horiz-adv-x="1327" 
d="M1260 1462v-254l-785 -938h805v-270h-1233v254l784 938h-722v270h1151z" />
    <glyph glyph-name="bracketleft" unicode="[" horiz-adv-x="682" 
d="M680 1497v-229h-250v-1411h250v-230h-541v1870h541z" />
    <glyph glyph-name="backslash" unicode="\" horiz-adv-x="760" 
d="M211 1497l571 -1532h-234l-572 1532h235z" />
    <glyph glyph-name="bracketright" unicode="]" horiz-adv-x="682" 
d="M543 1497v-1870h-541v230h250v1411h-250v229h541z" />
    <glyph glyph-name="asciicircum" unicode="^" horiz-adv-x="1229" 
d="M752 1434l352 -788h-240l-250 562l-249 -563h-240l352 789h275z" />
    <glyph glyph-name="underscore" unicode="_" horiz-adv-x="1024" 
d="M1024 -154v-102h-1024v102h1024z" />
    <glyph glyph-name="grave" unicode="`" horiz-adv-x="530" 
d="M222 1497l197 -291h-203l-315 291h321z" />
    <glyph glyph-name="a" unicode="a" horiz-adv-x="1176" 
d="M597 1087q235 0 349.5 -77t114.5 -217v-568q0 -64 8.5 -128t28.5 -97h-295q-8 24 -13.5 49.5t-7.5 51.5q-61 -63 -151.5 -96.5t-204.5 -33.5q-164 0 -262 82.5t-98 235.5q0 148 92 226.5t335 105.5q169 16 223 41.5t54 88.5q0 71 -41.5 106.5t-145.5 35.5
q-90 0 -138 -38.5t-56 -121.5h-291q12 174 143.5 264t355.5 90zM356 301q0 -63 43 -99t136 -36q116 0 175.5 61t59.5 178v113q-26 -21 -68.5 -31.5t-153.5 -26.5q-99 -13 -145.5 -51.5t-46.5 -107.5z" />
    <glyph glyph-name="b" unicode="b" horiz-adv-x="1251" 
d="M401 1462v-532h5q47 72 135 114.5t198 42.5q186 0 312.5 -150.5t126.5 -406.5q0 -254 -126.5 -406.5t-313.5 -152.5q-128 0 -216 42.5t-131 121.5h-4v-135h-276v1462h290zM391 528q0 -152 67 -245t181 -93t181 93t67 245q0 153 -65.5 246.5t-184.5 93.5
q-111 0 -178.5 -91.5t-67.5 -248.5z" />
    <glyph glyph-name="c" unicode="c" horiz-adv-x="1176" 
d="M618 1087q205 0 345.5 -106t152.5 -295h-285q-13 91 -67 136.5t-148 45.5q-117 0 -182 -96t-65 -248t64 -243t177 -91q97 0 157 55.5t75 160.5h280q-29 -210 -164 -322.5t-346 -112.5q-236 0 -385 151.5t-149 391.5q0 257 146.5 415t393.5 158z" />
    <glyph glyph-name="d" unicode="d" horiz-adv-x="1251" 
d="M1143 1462v-1462h-277v135h-4q-47 -81 -129.5 -122.5t-191.5 -41.5q-217 0 -346 159.5t-129 408.5q0 236 127 392t342 156q99 0 181 -40t132 -117h4v532h291zM356 531q0 -148 69 -244.5t187 -96.5q121 0 185.5 89.5t64.5 252.5q0 155 -63 245.5t-188 90.5
q-121 0 -188 -90.5t-67 -246.5z" />
    <glyph glyph-name="e" unicode="e" horiz-adv-x="1176" 
d="M600 1087q235 0 375.5 -161.5t140.5 -412.5l-2 -54h-764q6 -137 71.5 -203t187.5 -66q79 0 146 40.5t85 97.5h256q-59 -180 -182 -268.5t-314 -88.5q-245 0 -393 155t-148 402q0 237 151.5 398t389.5 161zM350 643h473q-21 117 -75.5 171t-157.5 54q-106 0 -168 -60
t-72 -165z" />
    <glyph glyph-name="f" unicode="f" horiz-adv-x="682" 
d="M528 1462q30 0 80 -3t74 -5v-217q-29 3 -55.5 4.5t-49.5 1.5q-61 0 -86.5 -26.5t-25.5 -108.5v-49h201v-195h-201v-864h-291v864h-174v195h174v73q0 165 95.5 247.5t258.5 82.5z" />
    <glyph glyph-name="g" unicode="g" horiz-adv-x="1251" 
d="M532 1087q116 0 192 -43t124 -126h4v141h276v-1000q0 -213 -135.5 -336.5t-411.5 -123.5q-187 0 -321 89.5t-147 250.5h288q20 -77 76 -111.5t141 -34.5q112 0 173 67.5t61 187.5v147h-4q-43 -78 -126.5 -121t-191.5 -43q-214 0 -333 142t-119 390q0 224 124.5 374
t329.5 150zM369 567q0 -149 61.5 -233t173.5 -84q115 0 181.5 84t66.5 210q0 155 -63 239.5t-186 84.5q-108 0 -171 -82t-63 -219z" />
    <glyph glyph-name="h" unicode="h" horiz-adv-x="1214" 
d="M401 1462v-551h7q46 79 130.5 127.5t180.5 48.5q202 0 293.5 -103t91.5 -322v-662h-291v607q0 124 -42.5 187.5t-143.5 63.5q-121 0 -173.5 -72t-52.5 -221v-565h-290v1462h290z" />
    <glyph glyph-name="i" unicode="i" horiz-adv-x="528" 
d="M410 1462v-239h-291v239h291zM410 1059v-1059h-291v1059h291z" />
    <glyph glyph-name="j" unicode="j" horiz-adv-x="569" 
d="M428 1462v-239h-291v239h291zM428 1059v-1121q0 -166 -83 -238.5t-288 -72.5q-25 0 -48 2t-48 6v240q13 -5 29.5 -6.5t33.5 -1.5q64 0 88.5 24t24.5 66v1102h291z" />
    <glyph glyph-name="k" unicode="k" horiz-adv-x="1176" 
d="M428 1462v-784l367 381h344l-400 -389l445 -670h-353l-290 473l-113 -108v-365h-291v1462h291z" />
    <glyph glyph-name="l" unicode="l" horiz-adv-x="528" 
d="M410 1462v-1462h-291v1462h291z" />
    <glyph glyph-name="m" unicode="m" horiz-adv-x="1855" 
d="M721 1087q118 0 195 -45.5t114 -130.5q60 85 142 130.5t179 45.5q192 0 289 -98t97 -271v-718h-291v612q0 145 -42.5 195.5t-135.5 50.5q-98 0 -146.5 -66t-48.5 -193v-599h-291v652q0 105 -40 155.5t-135 50.5q-83 0 -140 -64t-57 -173v-621h-291v1059h274v-144h4
q62 87 143.5 129.5t180.5 42.5z" />
    <glyph glyph-name="n" unicode="n" horiz-adv-x="1214" 
d="M718 1087q203 0 294.5 -102.5t91.5 -322.5v-662h-291v607q0 124 -42.5 187.5t-143.5 63.5q-121 0 -173.5 -72t-52.5 -221v-565h-290v1059h276v-148h6q53 85 138 130.5t187 45.5z" />
    <glyph glyph-name="o" unicode="o" horiz-adv-x="1251" 
d="M625 1087q249 0 399 -153.5t150 -405.5q0 -253 -151.5 -405t-397.5 -152t-396.5 153t-150.5 404t148 405t399 154zM369 528q0 -167 68.5 -252.5t187.5 -85.5q124 0 191 88.5t67 249.5q0 158 -65 249t-195 91q-117 0 -185.5 -84.5t-68.5 -255.5z" />
    <glyph glyph-name="p" unicode="p" horiz-adv-x="1251" 
d="M707 1087q225 0 353 -157.5t128 -411.5q0 -235 -126 -391t-339 -156q-97 0 -181 41.5t-136 118.5h-5v-504h-290v1432h276v-135h4q52 83 132.5 123t183.5 40zM391 526q0 -152 65 -244t189 -92q121 0 186.5 88t65.5 248q0 152 -65 247t-191 95q-120 0 -185 -90t-65 -252z
" />
    <glyph glyph-name="q" unicode="q" horiz-adv-x="1251" 
d="M541 1087q108 0 192 -41.5t129 -121.5h4v135h277v-1432h-291v506h-4q-48 -80 -137.5 -121t-196.5 -41q-185 0 -316.5 144t-131.5 406q0 248 128.5 407t346.5 159zM356 528q0 -161 67 -249.5t185 -88.5q122 0 188 88t66 246q0 150 -64 247t-186 97q-123 0 -189.5 -93.5
t-66.5 -246.5z" />
    <glyph glyph-name="r" unicode="r" horiz-adv-x="797" 
d="M728 1087q19 0 35 -2.5t30 -7.5v-270q-25 5 -48.5 7.5t-55.5 2.5q-147 0 -217.5 -90t-70.5 -241v-486h-290v1059h276v-197h4q46 104 137.5 164.5t199.5 60.5z" />
    <glyph glyph-name="s" unicode="s" horiz-adv-x="1100" 
d="M545 1087q216 0 333.5 -85.5t133.5 -251.5h-277q-6 75 -56 109t-143 34q-84 0 -122.5 -25t-38.5 -73q0 -49 50.5 -80.5t203.5 -60.5q244 -47 327.5 -121t83.5 -194q0 -180 -131.5 -274t-351.5 -94t-354.5 93.5t-143.5 279.5h277q0 -84 63.5 -131t159.5 -47q85 0 138 36.5
t53 98.5q0 55 -69 90t-253 73q-182 36 -263 103t-81 181q0 168 119 253.5t342 85.5z" />
    <glyph glyph-name="t" unicode="t" horiz-adv-x="721" 
d="M479 1376v-317h213v-195h-213v-531q0 -65 24.5 -90.5t98.5 -25.5q25 0 48 2t42 6v-227q-36 -6 -80.5 -8t-87.5 -2q-189 0 -262.5 64.5t-73.5 180.5v631h-176v195h176v317h291z" />
    <glyph glyph-name="u" unicode="u" horiz-adv-x="1214" 
d="M401 1059v-607q0 -120 42 -185.5t145 -65.5q120 0 172.5 72.5t52.5 220.5v565h291v-1059h-277v147h-6q-55 -88 -142 -132t-183 -44q-197 0 -291 100.5t-94 324.5v663h290z" />
    <glyph glyph-name="v" unicode="v" horiz-adv-x="1065" 
d="M315 1059l224 -723h4l223 723h289l-359 -1059h-323l-363 1059h305z" />
    <glyph glyph-name="w" unicode="w" horiz-adv-x="1667" 
d="M319 1059l195 -719h4l176 719h283l180 -717h4l195 717h299l-335 -1059h-298l-188 711h-5l-180 -711h-301l-336 1059h307z" />
    <glyph glyph-name="x" unicode="x" horiz-adv-x="1100" 
d="M365 1059l186 -277l184 277h322l-348 -496l391 -563h-332l-221 334l-221 -334h-326l381 557l-348 502h332z" />
    <glyph glyph-name="y" unicode="y" horiz-adv-x="1063" 
d="M299 1059l240 -725h4l231 725h301l-450 -1212q-40 -106 -123 -163t-215 -57q-63 0 -106.5 3t-89.5 8v239q53 -6 87 -8t65 -2q62 0 96 38t34 95q0 15 -2 29.5t-11 36.5l-373 993h312z" />
    <glyph glyph-name="z" unicode="z" horiz-adv-x="1063" 
d="M979 1059v-219l-551 -621h590v-219h-973v219l551 621h-510v219h893z" />
    <glyph glyph-name="braceleft" unicode="{" horiz-adv-x="682" 
d="M682 1497v-229h-111q-56 0 -83 -37t-27 -107v-307q0 -224 -202 -252v-6q84 -9 143 -70t59 -149v-344q0 -139 113 -139h108v-230h-264q-46 0 -109 34.5t-101 99t-38 137.5v409q0 66 -52 114t-136 52v178q89 6 138.5 58t49.5 122v396q0 113 81.5 191.5t166.5 78.5h264z" />
    <glyph glyph-name="bar" unicode="|" horiz-adv-x="457" 
d="M338 1610v-2048h-219v2048h219z" />
    <glyph glyph-name="braceright" unicode="}" horiz-adv-x="682" 
d="M264 1497q85 0 166.5 -78.5t81.5 -191.5v-396q0 -70 49.5 -122t138.5 -58v-178q-84 -4 -136 -52t-52 -114v-409q0 -74 -38.5 -138t-101 -98.5t-108.5 -34.5h-264v230h108q60 0 86.5 37t26.5 106v327q0 107 61.5 166t140.5 66v6q-105 15 -153.5 80t-48.5 155v323
q0 145 -110 145h-111v229h264z" />
    <glyph glyph-name="asciitilde" unicode="~" horiz-adv-x="1229" 
d="M1010 705l82 -191q-74 -105 -131.5 -140.5t-124.5 -35.5q-93 0 -226 70q-133 69 -218 69q-53 0 -95 -34.5t-78 -112.5l-82 190q50 94 113.5 135t142.5 41q43 0 98 -15.5t134 -52.5l91.5 -41t112.5 -30q42 0 82.5 29t98.5 119z" />
    <glyph glyph-name="Adieresis" unicode="&#xc4;" horiz-adv-x="1403" 
d="M631 1853v-239h-277v239h277zM1052 1853v-239h-276v239h276zM870 1462l547 -1461h-334l-110 325h-547l-115 -326h-325l555 1462h329zM700 1102l-190 -537h379l-184 537h-5z" />
    <glyph glyph-name="Aring" unicode="&#xc5;" horiz-adv-x="1403" 
d="M704 1993q102 0 171 -68.5t69 -165.5q0 -96 -69 -164.5t-171 -68.5q-100 0 -169.5 66t-69.5 167q0 98 70.5 166t168.5 68zM579 1759q0 -57 36 -93t89 -36q58 0 91.5 36.5t33.5 92.5q0 57 -35 93t-91 36q-53 0 -88.5 -35.5t-35.5 -93.5zM870 1462l547 -1461h-334l-110 325
h-547l-115 -326h-325l555 1462h329zM700 1102l-190 -537h379l-184 537h-5z" />
    <glyph glyph-name="Ccedilla" unicode="&#xc7;" horiz-adv-x="1518" 
d="M797 1497q249 0 424.5 -140.5t205.5 -385.5h-311q-21 115 -114 185.5t-206 70.5q-188 0 -292.5 -137.5t-104.5 -364.5q0 -217 103.5 -353t294.5 -136q139 0 225 85.5t106 241.5h312q-27 -276 -198.5 -435t-442.5 -163l-54 -71l5 -5q20 9 43.5 12t38.5 3q80 0 128 -42.5
t48 -115.5q0 -90 -68 -140t-189 -50q-60 0 -114.5 9.5t-122.5 35.5l43 98q36 -15 79 -26t83 -11q43 0 67.5 18.5t24.5 51.5q0 31 -24 49t-62 18q-20 0 -38.5 -4t-39.5 -12l-43 49l97 139q-292 36 -457.5 245.5t-165.5 508.5q0 338 197 555t522 217z" />
    <glyph glyph-name="Eacute" unicode="&#xc9;" horiz-adv-x="1327" 
d="M1077 1886l-316 -291h-202l196 291h322zM1235 1462v-270h-772v-313h708v-250h-708v-359h788v-270h-1110v1462h1094z" />
    <glyph glyph-name="Ntilde" unicode="&#xd1;" horiz-adv-x="1518" 
d="M612 1866q63 0 156 -36q92 -36 137 -36q35 0 56.5 16t31.5 56h131q-24 -121 -81 -177.5t-148 -56.5q-71 0 -162 35t-139 35q-33 0 -56 -20t-37 -66h-129q17 115 84 182.5t156 67.5zM461 1462l610 -981h4v981h301v-1462h-321l-609 979h-4v-979h-301v1462h320z" />
    <glyph glyph-name="Odieresis" unicode="&#xd6;" horiz-adv-x="1593" 
d="M725 1853v-239h-277v239h277zM1146 1853v-239h-276v239h276zM797 1497q326 0 522.5 -218.5t196.5 -553.5q0 -327 -197.5 -543.5t-521.5 -216.5q-211 0 -375.5 97t-254 272.5t-89.5 390.5q0 338 197.5 555t521.5 217zM399 725q0 -216 103.5 -352.5t294.5 -136.5
q189 0 293 134.5t104 354.5q0 231 -105.5 366.5t-293.5 135.5q-187 0 -291.5 -137t-104.5 -365z" />
    <glyph glyph-name="Udieresis" unicode="&#xdc;" horiz-adv-x="1518" 
d="M687 1853v-239h-277v239h277zM1108 1853v-239h-276v239h276zM457 1462v-918q0 -158 72.5 -233t228.5 -75q168 0 235.5 73.5t67.5 233.5v919h321v-919q0 -272 -158.5 -425t-465.5 -153q-309 0 -466 150.5t-157 427.5v919h322z" />
    <glyph glyph-name="aacute" unicode="&#xe1;" horiz-adv-x="1176" 
d="M597 1087q235 0 349.5 -77t114.5 -217v-568q0 -64 8.5 -128t28.5 -97h-295q-8 24 -13.5 49.5t-7.5 51.5q-61 -63 -151.5 -96.5t-204.5 -33.5q-164 0 -262 82.5t-98 235.5q0 148 92 226.5t335 105.5q169 16 223 41.5t54 88.5q0 71 -41.5 106.5t-145.5 35.5
q-90 0 -138 -38.5t-56 -121.5h-291q12 174 143.5 264t355.5 90zM356 301q0 -63 43 -99t136 -36q116 0 175.5 61t59.5 178v113q-26 -21 -68.5 -31.5t-153.5 -26.5q-99 -13 -145.5 -51.5t-46.5 -107.5zM994 1497l-316 -291h-202l196 291h322z" />
    <glyph glyph-name="agrave" unicode="&#xe0;" horiz-adv-x="1176" 
d="M597 1087q235 0 349.5 -77t114.5 -217v-568q0 -64 8.5 -128t28.5 -97h-295q-8 24 -13.5 49.5t-7.5 51.5q-61 -63 -151.5 -96.5t-204.5 -33.5q-164 0 -262 82.5t-98 235.5q0 148 92 226.5t335 105.5q169 16 223 41.5t54 88.5q0 71 -41.5 106.5t-145.5 35.5
q-90 0 -138 -38.5t-56 -121.5h-291q12 174 143.5 264t355.5 90zM356 301q0 -63 43 -99t136 -36q116 0 175.5 61t59.5 178v113q-26 -21 -68.5 -31.5t-153.5 -26.5q-99 -13 -145.5 -51.5t-46.5 -107.5zM531 1497l197 -291h-203l-315 291h321z" />
    <glyph glyph-name="acircumflex" unicode="&#xe2;" horiz-adv-x="1176" 
d="M597 1087q235 0 349.5 -77t114.5 -217v-568q0 -64 8.5 -128t28.5 -97h-295q-8 24 -13.5 49.5t-7.5 51.5q-61 -63 -151.5 -96.5t-204.5 -33.5q-164 0 -262 82.5t-98 235.5q0 148 92 226.5t335 105.5q169 16 223 41.5t54 88.5q0 71 -41.5 106.5t-145.5 35.5
q-90 0 -138 -38.5t-56 -121.5h-291q12 174 143.5 264t355.5 90zM356 301q0 -63 43 -99t136 -36q116 0 175.5 61t59.5 178v113q-26 -21 -68.5 -31.5t-153.5 -26.5q-99 -13 -145.5 -51.5t-46.5 -107.5zM739 1497l226 -291h-236l-126 165h-2l-130 -165h-225l227 291h266z" />
    <glyph glyph-name="adieresis" unicode="&#xe4;" horiz-adv-x="1176" 
d="M597 1087q235 0 349.5 -77t114.5 -217v-568q0 -64 8.5 -128t28.5 -97h-295q-8 24 -13.5 49.5t-7.5 51.5q-61 -63 -151.5 -96.5t-204.5 -33.5q-164 0 -262 82.5t-98 235.5q0 148 92 226.5t335 105.5q169 16 223 41.5t54 88.5q0 71 -41.5 106.5t-145.5 35.5
q-90 0 -138 -38.5t-56 -121.5h-291q12 174 143.5 264t355.5 90zM356 301q0 -63 43 -99t136 -36q116 0 175.5 61t59.5 178v113q-26 -21 -68.5 -31.5t-153.5 -26.5q-99 -13 -145.5 -51.5t-46.5 -107.5zM531 1464v-239h-277v239h277zM952 1464v-239h-276v239h276z" />
    <glyph glyph-name="atilde" unicode="&#xe3;" horiz-adv-x="1176" 
d="M597 1087q235 0 349.5 -77t114.5 -217v-568q0 -64 8.5 -128t28.5 -97h-295q-8 24 -13.5 49.5t-7.5 51.5q-61 -63 -151.5 -96.5t-204.5 -33.5q-164 0 -262 82.5t-98 235.5q0 148 92 226.5t335 105.5q169 16 223 41.5t54 88.5q0 71 -41.5 106.5t-145.5 35.5
q-90 0 -138 -38.5t-56 -121.5h-291q12 174 143.5 264t355.5 90zM356 301q0 -63 43 -99t136 -36q116 0 175.5 61t59.5 178v113q-26 -21 -68.5 -31.5t-153.5 -26.5q-99 -13 -145.5 -51.5t-46.5 -107.5zM467 1477q64 0 154 -36t139 -36q36 0 57.5 17t30.5 55h131
q-23 -120 -80 -177t-149 -57q-72 0 -163 35t-138 35q-33 0 -56 -20t-37 -66h-129q19 119 86 184.5t154 65.5z" />
    <glyph glyph-name="aring" unicode="&#xe5;" horiz-adv-x="1176" 
d="M597 1087q235 0 349.5 -77t114.5 -217v-568q0 -64 8.5 -128t28.5 -97h-295q-8 24 -13.5 49.5t-7.5 51.5q-61 -63 -151.5 -96.5t-204.5 -33.5q-164 0 -262 82.5t-98 235.5q0 148 92 226.5t335 105.5q169 16 223 41.5t54 88.5q0 71 -41.5 106.5t-145.5 35.5
q-90 0 -138 -38.5t-56 -121.5h-291q12 174 143.5 264t355.5 90zM356 301q0 -63 43 -99t136 -36q116 0 175.5 61t59.5 178v113q-26 -21 -68.5 -31.5t-153.5 -26.5q-99 -13 -145.5 -51.5t-46.5 -107.5zM606 1647q109 0 179.5 -70t70.5 -176q0 -107 -74 -176.5t-178 -69.5
q-109 0 -179.5 71t-70.5 175q0 103 72.5 174.5t179.5 71.5zM475 1401q0 -59 34.5 -98t94.5 -39q59 0 95 37.5t36 99.5q0 59 -34.5 98t-95.5 39q-59 0 -94.5 -39t-35.5 -98z" />
    <glyph glyph-name="ccedilla" unicode="&#xe7;" horiz-adv-x="1176" 
d="M618 1087q205 0 345.5 -106t152.5 -295h-285q-13 91 -67 136.5t-148 45.5q-117 0 -182 -96t-65 -248t64 -243t177 -91q97 0 157 55.5t75 160.5h280q-26 -192 -149 -308.5t-334 -126.5l-57 -77l4 -5q20 8 43 11.5t40 3.5q80 0 127.5 -42t47.5 -116q0 -90 -67 -140
t-190 -50q-60 0 -114.5 9.5t-122.5 35.5l43 98q36 -15 79.5 -26t82.5 -11q43 0 67.5 18.5t24.5 51.5q0 30 -23.5 48.5t-62.5 18.5q-20 0 -38.5 -4t-39.5 -12l-43 48l102 144q-216 26 -340 174t-124 365q0 259 147 416t393 157z" />
    <glyph glyph-name="eacute" unicode="&#xe9;" horiz-adv-x="1176" 
d="M600 1087q235 0 375.5 -161.5t140.5 -412.5l-2 -54h-764q6 -137 71.5 -203t187.5 -66q79 0 146 40.5t85 97.5h256q-59 -180 -182 -268.5t-314 -88.5q-245 0 -393 155t-148 402q0 237 151.5 398t389.5 161zM350 643h473q-21 117 -75.5 171t-157.5 54q-106 0 -168 -60
t-72 -165zM991 1497l-316 -291h-202l196 291h322z" />
    <glyph glyph-name="egrave" unicode="&#xe8;" horiz-adv-x="1176" 
d="M600 1087q235 0 375.5 -161.5t140.5 -412.5l-2 -54h-764q6 -137 71.5 -203t187.5 -66q79 0 146 40.5t85 97.5h256q-59 -180 -182 -268.5t-314 -88.5q-245 0 -393 155t-148 402q0 237 151.5 398t389.5 161zM350 643h473q-21 117 -75.5 171t-157.5 54q-106 0 -168 -60
t-72 -165zM529 1497l197 -291h-203l-315 291h321z" />
    <glyph glyph-name="ecircumflex" unicode="&#xea;" horiz-adv-x="1176" 
d="M600 1087q235 0 375.5 -161.5t140.5 -412.5l-2 -54h-764q6 -137 71.5 -203t187.5 -66q79 0 146 40.5t85 97.5h256q-59 -180 -182 -268.5t-314 -88.5q-245 0 -393 155t-148 402q0 237 151.5 398t389.5 161zM350 643h473q-21 117 -75.5 171t-157.5 54q-106 0 -168 -60
t-72 -165zM737 1497l226 -291h-236l-126 165h-2l-130 -165h-225l227 291h266z" />
    <glyph glyph-name="edieresis" unicode="&#xeb;" horiz-adv-x="1176" 
d="M600 1087q235 0 375.5 -161.5t140.5 -412.5l-2 -54h-764q6 -137 71.5 -203t187.5 -66q79 0 146 40.5t85 97.5h256q-59 -180 -182 -268.5t-314 -88.5q-245 0 -393 155t-148 402q0 237 151.5 398t389.5 161zM350 643h473q-21 117 -75.5 171t-157.5 54q-106 0 -168 -60
t-72 -165zM529 1464v-239h-277v239h277zM950 1464v-239h-276v239h276z" />
    <glyph glyph-name="iacute" unicode="&#xed;" horiz-adv-x="528" 
d="M635 1497l-316 -291h-202l196 291h322zM410 1059v-1059h-291v1059h291z" />
    <glyph glyph-name="igrave" unicode="&#xec;" horiz-adv-x="528" 
d="M216 1497l197 -291h-203l-315 291h321zM410 1059v-1059h-291v1059h291z" />
    <glyph glyph-name="icircumflex" unicode="&#xee;" horiz-adv-x="528" 
d="M410 1059v-1059h-291v1059h291zM401 1497l226 -291h-236l-126 165h-2l-130 -165h-225l227 291h266z" />
    <glyph glyph-name="idieresis" unicode="&#xef;" horiz-adv-x="528" 
d="M193 1464v-239h-277v239h277zM614 1464v-239h-276v239h276zM410 1059v-1059h-291v1059h291z" />
    <glyph glyph-name="ntilde" unicode="&#xf1;" horiz-adv-x="1214" 
d="M718 1087q203 0 294.5 -102.5t91.5 -322.5v-662h-291v607q0 124 -42.5 187.5t-143.5 63.5q-121 0 -173.5 -72t-52.5 -221v-565h-290v1059h276v-148h6q53 85 138 130.5t187 45.5zM469 1477q64 0 154 -36t139 -36q36 0 57.5 17t30.5 55h131q-23 -120 -80 -177t-149 -57
q-72 0 -163 35t-138 35q-33 0 -56 -20t-37 -66h-129q19 119 86 184.5t154 65.5z" />
    <glyph glyph-name="oacute" unicode="&#xf3;" horiz-adv-x="1251" 
d="M625 1087q249 0 399 -153.5t150 -405.5q0 -253 -151.5 -405t-397.5 -152t-396.5 153t-150.5 404t148 405t399 154zM369 528q0 -167 68.5 -252.5t187.5 -85.5q124 0 191 88.5t67 249.5q0 158 -65 249t-195 91q-117 0 -185.5 -84.5t-68.5 -255.5zM1018 1497l-316 -291h-202
l196 291h322z" />
    <glyph glyph-name="ograve" unicode="&#xf2;" horiz-adv-x="1251" 
d="M625 1087q249 0 399 -153.5t150 -405.5q0 -253 -151.5 -405t-397.5 -152t-396.5 153t-150.5 404t148 405t399 154zM369 528q0 -167 68.5 -252.5t187.5 -85.5q124 0 191 88.5t67 249.5q0 158 -65 249t-195 91q-117 0 -185.5 -84.5t-68.5 -255.5zM556 1497l197 -291h-203
l-315 291h321z" />
    <glyph glyph-name="ocircumflex" unicode="&#xf4;" horiz-adv-x="1251" 
d="M625 1087q249 0 399 -153.5t150 -405.5q0 -253 -151.5 -405t-397.5 -152t-396.5 153t-150.5 404t148 405t399 154zM369 528q0 -167 68.5 -252.5t187.5 -85.5q124 0 191 88.5t67 249.5q0 158 -65 249t-195 91q-117 0 -185.5 -84.5t-68.5 -255.5zM764 1497l226 -291h-236
l-126 165h-2l-130 -165h-225l227 291h266z" />
    <glyph glyph-name="odieresis" unicode="&#xf6;" horiz-adv-x="1251" 
d="M625 1087q249 0 399 -153.5t150 -405.5q0 -253 -151.5 -405t-397.5 -152t-396.5 153t-150.5 404t148 405t399 154zM369 528q0 -167 68.5 -252.5t187.5 -85.5q124 0 191 88.5t67 249.5q0 158 -65 249t-195 91q-117 0 -185.5 -84.5t-68.5 -255.5zM555 1464v-239h-277v239
h277zM976 1464v-239h-276v239h276z" />
    <glyph glyph-name="otilde" unicode="&#xf5;" horiz-adv-x="1251" 
d="M625 1087q249 0 399 -153.5t150 -405.5q0 -253 -151.5 -405t-397.5 -152t-396.5 153t-150.5 404t148 405t399 154zM369 528q0 -167 68.5 -252.5t187.5 -85.5q124 0 191 88.5t67 249.5q0 158 -65 249t-195 91q-117 0 -185.5 -84.5t-68.5 -255.5zM491 1477q64 0 154 -36
t139 -36q36 0 57.5 17t30.5 55h131q-23 -120 -80 -177t-149 -57q-72 0 -163 35t-138 35q-33 0 -56 -20t-37 -66h-129q19 119 86 184.5t154 65.5z" />
    <glyph glyph-name="uacute" unicode="&#xfa;" horiz-adv-x="1214" 
d="M401 1059v-607q0 -120 42 -185.5t145 -65.5q120 0 172.5 72.5t52.5 220.5v565h291v-1059h-277v147h-6q-55 -88 -142 -132t-183 -44q-197 0 -291 100.5t-94 324.5v663h290zM1002 1497l-316 -291h-202l196 291h322z" />
    <glyph glyph-name="ugrave" unicode="&#xf9;" horiz-adv-x="1214" 
d="M401 1059v-607q0 -120 42 -185.5t145 -65.5q120 0 172.5 72.5t52.5 220.5v565h291v-1059h-277v147h-6q-55 -88 -142 -132t-183 -44q-197 0 -291 100.5t-94 324.5v663h290zM539 1497l197 -291h-203l-315 291h321z" />
    <glyph glyph-name="ucircumflex" unicode="&#xfb;" horiz-adv-x="1214" 
d="M401 1059v-607q0 -120 42 -185.5t145 -65.5q120 0 172.5 72.5t52.5 220.5v565h291v-1059h-277v147h-6q-55 -88 -142 -132t-183 -44q-197 0 -291 100.5t-94 324.5v663h290zM747 1497l226 -291h-236l-126 165h-2l-130 -165h-225l227 291h266z" />
    <glyph glyph-name="udieresis" unicode="&#xfc;" horiz-adv-x="1214" 
d="M401 1059v-607q0 -120 42 -185.5t145 -65.5q120 0 172.5 72.5t52.5 220.5v565h291v-1059h-277v147h-6q-55 -88 -142 -132t-183 -44q-197 0 -291 100.5t-94 324.5v663h290zM539 1464v-239h-277v239h277zM960 1464v-239h-276v239h276z" />
    <glyph glyph-name="dagger" unicode="&#x2020;" horiz-adv-x="1139" 
d="M707 1462v-403h383v-240h-383v-1159h-277v1159h-381v240h381v403h277z" />
    <glyph glyph-name="degree" unicode="&#xb0;" horiz-adv-x="819" 
d="M410 1462q125 0 214 -88t89 -215q0 -126 -88.5 -214.5t-214.5 -88.5q-130 0 -217 91t-87 212q0 123 88 213t216 90zM240 1159q0 -70 51 -125t119 -55q66 0 118 54.5t52 125.5q0 73 -51.5 126.5t-119.5 53.5q-67 0 -118 -54t-51 -126z" />
    <glyph glyph-name="cent" unicode="&#xa2;" horiz-adv-x="1139" 
d="M531 1262h122v-175q184 -2 316.5 -114.5t142.5 -288.5h-285v2q-6 70 -55 122.5t-119 59.5v-678q78 17 128 82.5t50 143.5h285q-18 -194 -141.5 -309.5t-321.5 -135.5v-207h-121v207q-223 16 -356 170t-133 371q0 236 126 394t362 181v175zM334 541q0 -138 50.5 -227.5
t147.5 -123.5v676q-97 -27 -147.5 -112.5t-50.5 -212.5z" />
    <glyph glyph-name="sterling" unicode="&#xa3;" horiz-adv-x="1139" 
d="M605 1497q235 0 366 -131t133 -381h-277q-6 139 -61.5 205.5t-161.5 66.5q-91 0 -146 -51.5t-55 -137.5q0 -63 17 -116t66 -144h274v-175h-215q10 -33 13 -58.5t3 -65.5q0 -89 -44 -158.5t-124 -131.5l4 -4q42 25 71 36t69 11q38 0 96.5 -10t96.5 -20q29 -8 63.5 -12.5
t64.5 -4.5q65 0 104.5 25t75.5 63l123 -207q-59 -60 -142 -95.5t-179 -35.5q-135 0 -227 39t-197 39q-82 0 -140 -23.5t-96 -54.5l-127 191q113 70 172.5 160t59.5 180q0 28 -8.5 57.5t-30.5 79.5h-203v174h131q-39 49 -65.5 127.5t-26.5 155.5q0 177 142 292t381 115z" />
    <glyph glyph-name="section" unicode="&#xa7;" horiz-adv-x="1139" 
d="M580 1497q185 0 307 -103.5t125 -291.5h-254q0 78 -48.5 127t-125.5 49q-62 0 -109 -38t-47 -92q0 -55 57 -104.5t216 -119.5q251 -112 334 -204t83 -208q0 -105 -59.5 -185t-153.5 -114q57 -42 85 -103t28 -139q0 -153 -130 -248.5t-307 -95.5q-218 0 -338.5 103
t-120.5 295h253q4 -88 55 -133.5t144 -45.5q66 0 109.5 34.5t43.5 108.5q0 56 -58 106t-253 136q-222 98 -309 193t-87 215q0 104 56.5 182t163.5 115q-48 52 -68 99t-20 108q0 157 126.5 255.5t301.5 98.5zM274 662q0 -26 14 -53t53 -49l351 -191q26 -14 45.5 -18.5
t32.5 -4.5q36 0 65 37t29 76q0 36 -20 68t-73 62l-358 202q-15 8 -33 8q-35 0 -70.5 -44t-35.5 -93z" />
    <glyph glyph-name="bullet" unicode="&#x2022;" horiz-adv-x="1026" 
d="M512 1096q151 0 259 -108t108 -257q0 -148 -106.5 -257t-260.5 -109t-259.5 109t-105.5 257t106 256.5t259 108.5z" />
    <glyph glyph-name="paragraph" unicode="&#xb6;" horiz-adv-x="1270" 
d="M1096 1462v-1802h-209v1638h-225v-1638h-209v1071q-218 2 -333.5 98.5t-115.5 260.5q0 190 126 281t361 91h605z" />
    <glyph glyph-name="germandbls" unicode="&#xdf;" horiz-adv-x="1251" 
d="M595 1497q214 0 340 -107t126 -285q0 -98 -52.5 -178.5t-138.5 -107.5v-4q127 -26 197 -128t70 -238q0 -195 -128.5 -336.5t-318.5 -141.5q-40 0 -81 3t-85 10v237q20 -6 40.5 -8t42.5 -2q102 0 170.5 71.5t68.5 177.5q0 119 -65.5 184t-184.5 65q-52 -1 -72 -4v192
q12 -2 23.5 -3t22.5 -1q91 0 152.5 47.5t61.5 134.5q0 89 -48 135.5t-147 46.5q-89 0 -136 -54.5t-47 -139.5v-1063h-291v1016q0 237 119.5 359t360.5 122z" />
    <glyph glyph-name="registered" unicode="&#xae;" horiz-adv-x="1638" 
d="M819 1497q331 0 559 -217.5t228 -546.5q0 -331 -230 -549.5t-557 -218.5q-325 0 -555.5 217t-230.5 551q0 333 230.5 548.5t555.5 215.5zM242 733q0 -257 166 -430.5t411 -173.5q243 0 410.5 174.5t167.5 429.5q0 252 -165 426t-415 174q-242 0 -408.5 -172.5
t-166.5 -427.5zM848 1163q162 0 244 -61t82 -193q0 -100 -55 -159t-170 -70l229 -375h-179l-208 367h-107v-367h-170v858h334zM845 805q91 0 125 29.5t34 89.5q0 51 -45 78.5t-125 27.5h-150v-225h161z" />
    <glyph glyph-name="copyright" unicode="&#xa9;" horiz-adv-x="1638" 
d="M819 1497q330 0 558.5 -218t228.5 -548t-228.5 -548t-558.5 -218q-324 0 -555 216.5t-231 549.5t230.5 549.5t555.5 216.5zM242 731q0 -256 167 -429t410 -173q244 0 411 173.5t167 428.5q0 252 -165 427t-415 175q-241 0 -408 -172.5t-167 -429.5zM844 1194
q150 0 250.5 -85t119.5 -232h-159q-19 74 -76 113.5t-135 39.5q-112 0 -176 -78.5t-64 -211.5q0 -125 70 -210.5t174 -85.5q81 0 137.5 41t69.5 119h166q-28 -155 -131 -239t-242 -84q-194 0 -317 128.5t-123 325.5q0 208 121 333.5t315 125.5z" />
    <glyph glyph-name="trademark" unicode="&#x2122;" horiz-adv-x="2048" 
d="M815 1462v-164h-240v-680h-208v680h-240v164h688zM1202 1462l211 -555l211 555h277v-844h-197v599h-4l-217 -599h-142l-217 599h-4v-599h-196v844h278z" />
    <glyph glyph-name="acute" unicode="&#xb4;" horiz-adv-x="530" 
d="M629 1497l-316 -291h-202l196 291h322z" />
    <glyph glyph-name="dieresis" unicode="&#xa8;" horiz-adv-x="530" 
d="M193 1464v-239h-277v239h277zM614 1464v-239h-276v239h276z" />
    <glyph glyph-name="notequal" unicode="&#x2260;" horiz-adv-x="1229" 
d="M1008 1032l-103 -188h228v-213h-353l-112 -228h465v-213h-584l-146 -274l-178 88l101 186h-228v213h355l110 228h-465v213h584l147 276z" />
    <glyph glyph-name="AE" unicode="&#xc6;" horiz-adv-x="2009" 
d="M1917 1462v-270h-680v-313h639v-250h-639v-359h696v-270h-1007v326h-459l-148 -326h-342l699 1462h1241zM856 1192l-283 -627h353v627h-70z" />
    <glyph glyph-name="Oslash" unicode="&#xd8;" horiz-adv-x="1593" 
d="M1524 1432l-171 -190h-2q83 -106 124 -239t41 -278q0 -327 -197.5 -543.5t-521.5 -216.5q-128 0 -244 38t-212 118l-171 -189l-100 88l176 195q-84 99 -126 230.5t-42 279.5q0 338 197.5 555t521.5 217q135 0 252.5 -39.5t207.5 -118.5l164 183zM399 725q0 -77 16 -151
t42 -125l605 672q-53 55 -120 80.5t-147 25.5q-187 0 -291.5 -137t-104.5 -365zM535 336q46 -48 111 -74t151 -26q189 0 293 134.5t104 354.5q0 82 -14 149.5t-41 129.5z" />
    <glyph glyph-name="infinity" unicode="&#x221e;" horiz-adv-x="1737" 
d="M467 948q112 0 204 -56.5t197 -193.5q98 132 193 191t209 59q168 0 271.5 -111t103.5 -286q0 -181 -104.5 -295.5t-272.5 -114.5q-102 0 -197.5 54.5t-202.5 183.5q-110 -132 -198.5 -183t-194.5 -51q-171 0 -277 112.5t-106 291.5q0 175 101.5 287t273.5 112zM1006 541
q65 -80 129.5 -122t132.5 -42t110.5 47t42.5 121q0 77 -44.5 123.5t-115.5 46.5q-53 0 -112.5 -39t-142.5 -135zM315 545q0 -72 43 -119t115 -47q64 0 129.5 42t126.5 120q-72 84 -137.5 128t-123.5 44q-67 0 -110 -49t-43 -119z" />
    <glyph glyph-name="plusminus" unicode="&#xb1;" horiz-adv-x="1229" 
d="M725 1036v-268h408v-219h-408v-268h-219v268h-408v219h408v268h219zM1133 219v-219h-1035v219h1035z" />
    <glyph glyph-name="lessequal" unicode="&#x2264;" horiz-adv-x="1229" 
d="M1133 821l-729 -170l729 -170v-231l-1035 291v221l1035 291v-232zM1133 219v-219h-1035v219h1035z" />
    <glyph glyph-name="greaterequal" unicode="&#x2265;" horiz-adv-x="1229" 
d="M98 1053l1035 -291v-221l-1035 -291v229l729 170l-729 170v234zM1133 219v-219h-1035v219h1035z" />
    <glyph glyph-name="yen" unicode="&#xa5;" horiz-adv-x="1139" 
d="M315 1462l271 -637l264 637h332l-318 -637h195v-194h-293l-31 -60v-94h324v-194h-324v-283h-311v283h-322v194h322v94l-29 60h-293v194h195l-315 637h333z" />
    <glyph glyph-name="uni00B5" horiz-adv-x="1214" 
d="M401 1059v-607q0 -120 42 -185.5t145 -65.5q120 0 172.5 72.5t52.5 220.5v565h291v-1059h-277v147h-6q-64 -95 -129 -135.5t-137 -40.5q-41 0 -79.5 11.5t-74.5 37.5v-393h-290v1432h290z" />
    <glyph glyph-name="partialdiff" unicode="&#x2202;" horiz-adv-x="1171" 
d="M518 1477q271 0 418 -199.5t147 -543.5q0 -378 -136.5 -569.5t-391.5 -191.5q-206 0 -337.5 133.5t-131.5 342.5q0 198 127.5 328t323.5 130q75 0 142 -24.5t132 -73.5v16q0 206 -73.5 325.5t-207.5 119.5q-64 0 -123.5 -26t-123.5 -83l-144 164q106 88 194.5 120
t184.5 32zM346 434q0 -115 58.5 -188.5t154.5 -73.5q107 0 176 98.5t74 252.5v73q-47 53 -107 83t-124 30q-103 0 -167.5 -76.5t-64.5 -198.5z" />
    <glyph glyph-name="summation" unicode="&#x2211;" horiz-adv-x="1378" 
d="M1298 1610v-258h-856l539 -752l-575 -780h917v-258h-1268v225l604 811l-579 786v226h1218z" />
    <glyph glyph-name="product" unicode="&#x220f;" horiz-adv-x="1534" 
d="M1419 1610v-2048h-270v1790h-764v-1790h-272v2048h1306z" />
    <glyph glyph-name="pi" unicode="&#x3c0;" horiz-adv-x="1417" 
d="M1376 1059v-219h-225v-562q0 -41 18.5 -63t65.5 -22q18 0 37 2t31 6v-189q-45 -22 -92.5 -31.5t-98.5 -9.5q-130 0 -191 59t-61 166v644h-325v-840h-291v840h-213v219h1345z" />
    <glyph glyph-name="integral" unicode="&#x222b;" horiz-adv-x="1286" 
d="M820 1606q90 0 166.5 -47t76.5 -121q0 -57 -35 -94t-90 -37q-46 0 -74 28t-43 89q-16 61 -45 61q-18 0 -28.5 -18t-10.5 -56l13 -332v-1000q0 -268 -83 -391.5t-258 -123.5q-99 0 -175 51.5t-76 130.5q0 54 39.5 85.5t89.5 31.5q45 0 71.5 -27.5t40.5 -88.5
q13 -62 41 -62q18 0 28.5 13.5t10.5 48.5l-12 304v978q0 356 91.5 466.5t261.5 110.5z" />
    <glyph glyph-name="ordfeminine" unicode="&#xaa;" horiz-adv-x="705" 
d="M360 1462q161 0 234.5 -48t73.5 -129v-354q0 -37 5.5 -78t18.5 -67h-207q-5 18 -8.5 32.5t-5.5 30.5q-41 -41 -96.5 -61t-124.5 -20q-112 0 -171 55t-59 150q0 94 63.5 143t240.5 64q91 7 120 22t29 47q0 41 -24.5 60.5t-96.5 19.5q-45 0 -72 -24.5t-30 -65.5h-209
q16 110 94 166.5t225 56.5zM229 977q0 -35 25.5 -55.5t68.5 -20.5q72 0 110 35.5t38 124.5v35q-24 -19 -63 -25q-114 -18 -146.5 -38.5t-32.5 -55.5z" />
    <glyph glyph-name="ordmasculine" unicode="&#xba;" horiz-adv-x="752" 
d="M375 1462q163 0 257.5 -95t94.5 -253q0 -159 -95.5 -252.5t-256.5 -93.5t-255.5 93t-94.5 253q0 161 94.5 254.5t255.5 93.5zM244 1114q0 -82 35 -137t96 -55q62 0 97.5 56.5t35.5 135.5q0 80 -35 137.5t-99 57.5q-59 0 -94.5 -55t-35.5 -140z" />
    <glyph glyph-name="uni2126" horiz-adv-x="1585" 
d="M793 1497q317 0 515.5 -192t198.5 -500q0 -166 -73.5 -303t-212.5 -230v-10h288v-262h-624v242q161 110 231 237t70 307q0 211 -106.5 326t-286.5 115q-181 0 -287.5 -116t-106.5 -325q0 -166 65 -292.5t234 -251.5v-242h-626v262h280v10q-130 82 -202 219t-72 314
q0 295 203.5 493.5t511.5 198.5z" />
    <glyph glyph-name="ae" unicode="&#xe6;" horiz-adv-x="1858" 
d="M605 1087q119 0 211 -36.5t140 -106.5q64 74 146 108.5t208 34.5q230 0 358 -165t130 -463h-756v-11q0 -115 72.5 -198.5t180.5 -83.5q92 0 143 40.5t67 125.5h283q-47 -167 -179.5 -264t-308.5 -97q-124 0 -227.5 45t-167.5 136q-67 -88 -183 -134.5t-249 -46.5
q-180 0 -287.5 81t-107.5 235q0 106 44 171.5t123.5 102.5t249.5 59q170 21 231.5 46t61.5 92t-46.5 101t-141.5 34q-98 0 -148.5 -41.5t-54.5 -122.5h-291q8 175 140.5 266.5t358.5 91.5zM1507 643q-2 113 -65 181.5t-164 68.5q-96 0 -164.5 -68t-71.5 -182h465zM369 303
q0 -66 46 -101.5t133 -35.5q99 0 169.5 59t70.5 155v136q-5 -8 -45.5 -25t-135.5 -28q-139 -17 -188.5 -54t-49.5 -106z" />
    <glyph glyph-name="oslash" unicode="&#xf8;" horiz-adv-x="1251" 
d="M1067 1114l76 -65l-111 -125q70 -74 106 -175t36 -221q0 -253 -151.5 -405t-397.5 -152q-100 0 -184.5 26t-153.5 77l-121 -137l-76 65l123 139q-68 74 -101.5 170.5t-33.5 216.5q0 252 148 405.5t399 153.5q96 0 180 -24.5t153 -73.5zM369 528q0 -52 7 -94.5t23 -81.5
l396 451q-31 32 -73.5 48.5t-98.5 16.5q-117 0 -185.5 -84.5t-68.5 -255.5zM451 260q31 -35 75 -52.5t99 -17.5q124 0 191 88.5t67 249.5q0 47 -7 92t-26 95z" />
    <glyph glyph-name="questiondown" unicode="&#xbf;" horiz-adv-x="1139" 
d="M743 1087v-315h-321v315h321zM715 657v-92q-10 -105 -52 -182t-134 -146q-93 -70 -117.5 -114t-24.5 -95q0 -98 46 -144t128 -46q96 0 150.5 70t56.5 196h301q-9 -233 -145.5 -369t-349.5 -136q-240 0 -374 117.5t-134 278.5q0 116 41 198.5t142 154.5
q128 91 158.5 140.5t30.5 110.5v58h277z" />
    <glyph glyph-name="exclamdown" unicode="&#xa1;" horiz-adv-x="569" 
d="M446 1087v-315h-321v315h321zM358 649l78 -631v-393h-303v393l80 631h145z" />
    <glyph glyph-name="logicalnot" unicode="&#xac;" horiz-adv-x="1229" 
d="M1114 831v-628h-219v409h-813v219h1032z" />
    <glyph glyph-name="radical" unicode="&#x221a;" horiz-adv-x="1167" 
d="M1188 1610l-446 -2042l-2 -6h-248l-302 620l-108 -53l-100 215l350 160l239 -522l332 1628h285z" />
    <glyph glyph-name="florin" unicode="&#x192;" horiz-adv-x="1139" 
d="M892 1497q43 0 81 -3.5t74 -10.5l-37 -219q-18 8 -33.5 11t-41.5 3q-79 0 -114.5 -27t-49.5 -105l-50 -261h200l-32 -188l-2 -7h-204l-112 -618q-34 -187 -80 -265.5t-126.5 -116.5t-243.5 -38q-37 0 -67.5 1.5t-63.5 4.5l38 219q26 -4 44 -5t50 -1q53 0 85 26t50 113
l129 680h-187l37 195h186l48 255q39 205 133 281t289 76z" />
    <glyph glyph-name="approxequal" unicode="&#x2248;" horiz-adv-x="1229" 
d="M400 891q41 0 91 -13.5t131 -48.5q82 -36 133 -51.5t89 -15.5q51 0 82.5 30t42.5 97h172q-16 -169 -96.5 -252.5t-216.5 -83.5q-93 0 -227 65q-134 64 -216 64q-51 0 -83 -28t-42 -95h-172q14 162 93 247t219 85zM400 453q82 0 228 -64q146 -65 216 -65q52 0 83 29t42 98
h172q-15 -166 -94.5 -251t-218.5 -85q-46 0 -97.5 14t-131.5 51q-81 37 -127 50.5t-87 13.5q-51 0 -83.5 -29t-41.5 -94h-172q13 159 92.5 245.5t219.5 86.5z" />
    <glyph glyph-name="uni2206" unicode="&#x2206;" horiz-adv-x="1395" 
d="M866 1462l543 -1462h-1423l551 1462h329zM696 1102l-290 -832h577l-283 832h-4z" />
    <glyph glyph-name="guillemotleft" unicode="&#xab;" horiz-adv-x="909" 
d="M408 948v-246l-185 -145l185 -147v-246l-322 256v276zM823 948v-246l-184 -145l184 -147v-246l-321 256v276z" />
    <glyph glyph-name="guillemotright" unicode="&#xbb;" horiz-adv-x="909" 
d="M408 696v-276l-322 -256v246l184 147l-184 145v246zM502 948l321 -252v-276l-321 -256v246l184 147l-184 145v246z" />
    <glyph glyph-name="ellipsis" unicode="&#x2026;" horiz-adv-x="2048" 
d="M502 315v-315h-322v315h322zM1184 315v-315h-322v315h322zM1866 315v-315h-322v315h322z" />
    <glyph glyph-name="Agrave" unicode="&#xc0;" horiz-adv-x="1403" 
d="M644 1886l197 -291h-203l-315 291h321zM870 1462l547 -1461h-334l-110 325h-547l-115 -326h-325l555 1462h329zM700 1102l-190 -537h379l-184 537h-5z" />
    <glyph glyph-name="Atilde" unicode="&#xc3;" horiz-adv-x="1403" 
d="M567 1866q63 0 156 -36q92 -36 137 -36q35 0 56.5 16t31.5 56h131q-24 -121 -81 -177.5t-148 -56.5q-71 0 -162 35t-139 35q-33 0 -56 -20t-37 -66h-129q17 115 84 182.5t156 67.5zM870 1462l547 -1461h-334l-110 325h-547l-115 -326h-325l555 1462h329zM700 1102
l-190 -537h379l-184 537h-5z" />
    <glyph glyph-name="Otilde" unicode="&#xd5;" horiz-adv-x="1593" 
d="M661 1866q63 0 156 -36q92 -36 137 -36q35 0 56.5 16t31.5 56h131q-24 -121 -81 -177.5t-148 -56.5q-71 0 -162 35t-139 35q-33 0 -56 -20t-37 -66h-129q17 115 84 182.5t156 67.5zM797 1497q326 0 522.5 -218.5t196.5 -553.5q0 -327 -197.5 -543.5t-521.5 -216.5
q-211 0 -375.5 97t-254 272.5t-89.5 390.5q0 338 197.5 555t521.5 217zM399 725q0 -216 103.5 -352.5t294.5 -136.5q189 0 293 134.5t104 354.5q0 231 -105.5 366.5t-293.5 135.5q-187 0 -291.5 -137t-104.5 -365z" />
    <glyph glyph-name="OE" unicode="&#x152;" horiz-adv-x="2238" 
d="M764 1497q111 0 201.5 -35t144.5 -104h4v104h1024v-270h-725v-313h664v-250h-664v-359h739v-270h-1038v111h-4q-64 -71 -158.5 -108.5t-194.5 -37.5q-304 0 -491.5 217.5t-187.5 540.5q0 325 191 549.5t495 224.5zM399 727q0 -212 100.5 -351.5t280.5 -139.5
q152 0 237 94.5t85 231.5v362q0 124 -86 213.5t-232 89.5q-180 0 -282.5 -137t-102.5 -363z" />
    <glyph glyph-name="oe" unicode="&#x153;" horiz-adv-x="1896" 
d="M598 1087q126 0 219 -43.5t146 -123.5q51 76 151.5 121.5t203.5 45.5q245 0 381 -163.5t138 -464.5h-756q0 -127 68 -198t184 -71q78 0 131 36.5t82 109.5h283q-51 -173 -183.5 -269t-312.5 -96q-124 0 -224.5 45.5t-158.5 135.5q-54 -90 -155.5 -135.5t-219.5 -45.5
q-226 0 -361.5 158t-135.5 406q0 238 144.5 395t375.5 157zM369 524q0 -149 59 -241.5t166 -92.5q114 0 173.5 87t59.5 255q0 166 -57.5 251t-170.5 85q-110 0 -170 -91t-60 -253zM1546 643q-4 106 -63 165.5t-173 59.5q-97 0 -158.5 -57.5t-70.5 -167.5h465z" />
    <glyph glyph-name="endash" unicode="&#x2013;" horiz-adv-x="1024" 
d="M1024 684v-250h-1024v250h1024z" />
    <glyph glyph-name="emdash" unicode="&#x2014;" horiz-adv-x="2048" 
d="M1782 684v-250h-1516v250h1516z" />
    <glyph glyph-name="quotedblleft" unicode="&#x201c;" horiz-adv-x="948" 
d="M399 1327q-70 -24 -102.5 -72t-32.5 -135h135v-315h-290v328q0 124 80.5 217t209.5 112v-135zM836 1327q-74 -24 -105 -75.5t-31 -131.5h136v-315h-291v327q0 124 80.5 218t210.5 112v-135z" />
    <glyph glyph-name="quotedblright" unicode="&#x201d;" horiz-adv-x="948" 
d="M401 1462v-332q0 -118 -79.5 -212t-210.5 -113v135q70 24 102.5 72t32.5 135h-135v315h290zM838 1462v-322q0 -128 -80 -222.5t-211 -112.5v135q70 24 102.5 72t32.5 135h-135v315h291z" />
    <glyph glyph-name="quoteleft" unicode="&#x2018;" horiz-adv-x="569" 
d="M429 1327q-71 -25 -103 -73.5t-32 -128.5v-5h135v-315h-291v322q0 131 82.5 225.5t208.5 109.5v-135z" />
    <glyph glyph-name="quoteright" unicode="&#x2019;" horiz-adv-x="569" 
d="M430 1462v-322q0 -131 -82 -224.5t-209 -110.5v135q74 25 104.5 74.5t30.5 127.5v5h-135v315h291z" />
    <glyph glyph-name="divide" unicode="&#xf7;" horiz-adv-x="1229" 
d="M616 1116q70 0 121 -51.5t51 -122.5q0 -68 -52 -120t-118 -52q-72 0 -124 51.5t-52 120.5q0 70 51.5 122t122.5 52zM1133 627v-219h-1035v219h1035zM616 264q70 0 121 -50t51 -122q0 -67 -52.5 -120.5t-117.5 -53.5q-70 0 -123 52.5t-53 121.5t52 120.5t122 51.5z" />
    <glyph glyph-name="lozenge" unicode="&#x25ca;" horiz-adv-x="1214" 
d="M727 1530l381 -801l-381 -801h-244l-377 801l379 801h242zM377 729l229 -536l230 536l-230 535z" />
    <glyph glyph-name="ydieresis" unicode="&#xff;" horiz-adv-x="1063" 
d="M299 1059l240 -725h4l231 725h301l-450 -1212q-40 -106 -123 -163t-215 -57q-63 0 -106.5 3t-89.5 8v239q53 -6 87 -8t65 -2q62 0 96 38t34 95q0 15 -2 29.5t-11 36.5l-373 993h312zM469 1464v-239h-277v239h277zM890 1464v-239h-276v239h276z" />
    <glyph glyph-name="Ydieresis" unicode="&#x178;" horiz-adv-x="1366" 
d="M617 1853v-239h-277v239h277zM1038 1853v-239h-276v239h276zM344 1462l342 -577l340 577h358l-542 -901v-561h-322v569l-538 893h362z" />
    <glyph glyph-name="fraction" unicode="&#x2044;" horiz-adv-x="342" 
d="M682 1479l-844 -1524h-178l848 1524h174z" />
    <glyph glyph-name="Euro" unicode="&#x20ac;" horiz-adv-x="1139" 
d="M807 1479q87 0 180 -26t193 -77l-125 -256q-74 46 -140.5 69t-128.5 23q-107 0 -179 -70t-107 -210h499l-63 -148h-460v-86h435l-63 -147h-356q32 -161 108 -242.5t195 -81.5q75 0 154.5 32.5t160.5 96.5l-2 -309q-68 -41 -148 -61.5t-167 -20.5q-249 0 -403.5 155
t-199.5 431h-157l63 147h82v57q0 20 2 29h-149l63 148h105q49 251 210.5 399t397.5 148z" />
    <glyph glyph-name="guilsinglleft" unicode="&#x2039;" horiz-adv-x="494" 
d="M408 948v-246l-185 -145l185 -147v-246l-322 256v276z" />
    <glyph glyph-name="guilsinglright" unicode="&#x203a;" horiz-adv-x="494" 
d="M408 696v-276l-322 -256v246l184 147l-184 145v246z" />
    <glyph glyph-name="fi" unicode="&#xfb01;" horiz-adv-x="1210" 
d="M528 1462q30 0 80 -3t74 -5v-217q-29 3 -55.5 4.5t-49.5 1.5q-61 0 -86.5 -26.5t-25.5 -108.5v-49h201v-195h-201v-864h-291v864h-174v195h174v73q0 165 95.5 247.5t258.5 82.5zM1092 1462v-239h-291v239h291zM1092 1059v-1059h-291v1059h291z" />
    <glyph glyph-name="fl" unicode="&#xfb02;" horiz-adv-x="1210" 
d="M528 1462q30 0 80 -3t74 -5v-217q-29 3 -55.5 4.5t-49.5 1.5q-61 0 -86.5 -26.5t-25.5 -108.5v-49h201v-195h-201v-864h-291v864h-174v195h174v73q0 165 95.5 247.5t258.5 82.5zM1092 1462v-1462h-291v1462h291z" />
    <glyph glyph-name="daggerdbl" unicode="&#x2021;" horiz-adv-x="1139" 
d="M707 1462v-403h383v-240h-383v-524h383v-240h-383v-395h-277v395h-381v240h381v524h-381v240h381v403h277z" />
    <glyph glyph-name="periodcentered" unicode="&#xb7;" horiz-adv-x="569" 
d="M287 762q68 0 120 -52t52 -122q0 -65 -51.5 -118.5t-118.5 -53.5q-70 0 -123 49.5t-53 122.5q0 71 51.5 122.5t122.5 51.5z" />
    <glyph glyph-name="quotesinglbase" unicode="&#x201a;" horiz-adv-x="569" 
d="M430 315v-322q0 -129 -80 -222.5t-211 -112.5v135q71 24 103 72.5t32 129.5v5h-135v315h291z" />
    <glyph glyph-name="quotedblbase" unicode="&#x201e;" horiz-adv-x="948" 
d="M401 315v-332q0 -117 -78 -210.5t-212 -114.5v135q66 22 100.5 69.5t34.5 137.5h-135v315h290zM838 315v-322q0 -126 -78 -220.5t-213 -114.5v135q66 22 100.5 69.5t34.5 137.5h-135v315h291z" />
    <glyph glyph-name="perthousand" unicode="&#x2030;" horiz-adv-x="2349" 
d="M1329 1479l-844 -1524h-178l848 1524h174zM1202 676q148 0 222.5 -92t74.5 -267q0 -163 -77 -254.5t-222 -91.5q-138 0 -218.5 94.5t-80.5 251.5q0 163 78 261t223 98zM1085 317q0 -103 28 -158t87 -55q56 0 85.5 38t29.5 175q0 90 -8 132t-32.5 68t-71.5 26
q-60 0 -89 -42t-29 -184zM1911 676q148 0 222.5 -92t74.5 -267q0 -163 -77 -254.5t-222 -91.5q-138 0 -218.5 94.5t-80.5 251.5q0 163 78 261t223 98zM1794 317q0 -103 28 -158t87 -55q56 0 85.5 38t29.5 175q0 90 -8 132t-32.5 68t-71.5 26q-60 0 -89 -42t-29 -184z
M442 1462q148 0 222.5 -92t74.5 -267q0 -163 -77 -254.5t-222 -91.5q-138 0 -218.5 94.5t-80.5 251.5q0 163 78 261t223 98zM325 1103q0 -103 28 -158t87 -55q56 0 85.5 38t29.5 175q0 90 -8 132t-32.5 68t-71.5 26q-60 0 -89 -42t-29 -184z" />
    <glyph glyph-name="Acircumflex" unicode="&#xc2;" horiz-adv-x="1403" 
d="M839 1886l226 -291h-236l-126 165h-2l-130 -165h-225l227 291h266zM870 1462l547 -1461h-334l-110 325h-547l-115 -326h-325l555 1462h329zM700 1102l-190 -537h379l-184 537h-5z" />
    <glyph glyph-name="Ecircumflex" unicode="&#xca;" horiz-adv-x="1327" 
d="M815 1886l226 -291h-236l-126 165h-2l-130 -165h-225l227 291h266zM1235 1462v-270h-772v-313h708v-250h-708v-359h788v-270h-1110v1462h1094z" />
    <glyph glyph-name="Aacute" unicode="&#xc1;" horiz-adv-x="1403" 
d="M1082 1886l-316 -291h-202l196 291h322zM870 1462l547 -1461h-334l-110 325h-547l-115 -326h-325l555 1462h329zM700 1102l-190 -537h379l-184 537h-5z" />
    <glyph glyph-name="Edieresis" unicode="&#xcb;" horiz-adv-x="1327" 
d="M607 1853v-239h-277v239h277zM1028 1853v-239h-276v239h276zM1235 1462v-270h-772v-313h708v-250h-708v-359h788v-270h-1110v1462h1094z" />
    <glyph glyph-name="Egrave" unicode="&#xc8;" horiz-adv-x="1327" 
d="M601 1886l197 -291h-203l-315 291h321zM1235 1462v-270h-772v-313h708v-250h-708v-359h788v-270h-1110v1462h1094z" />
    <glyph glyph-name="Iacute" unicode="&#xcd;" horiz-adv-x="604" 
d="M672 1886l-316 -291h-202l196 291h322zM463 1462v-1462h-322v1462h322z" />
    <glyph glyph-name="Icircumflex" unicode="&#xce;" horiz-adv-x="604" 
d="M436 1886l226 -291h-236l-126 165h-2l-130 -165h-225l227 291h266zM463 1462v-1462h-322v1462h322z" />
    <glyph glyph-name="Idieresis" unicode="&#xcf;" horiz-adv-x="604" 
d="M228 1853v-239h-277v239h277zM649 1853v-239h-276v239h276zM463 1462v-1462h-322v1462h322z" />
    <glyph glyph-name="Igrave" unicode="&#xcc;" horiz-adv-x="604" 
d="M247 1886l197 -291h-203l-315 291h321zM463 1462v-1462h-322v1462h322z" />
    <glyph glyph-name="Oacute" unicode="&#xd3;" horiz-adv-x="1593" 
d="M1196 1886l-316 -291h-202l196 291h322zM797 1497q326 0 522.5 -218.5t196.5 -553.5q0 -327 -197.5 -543.5t-521.5 -216.5q-211 0 -375.5 97t-254 272.5t-89.5 390.5q0 338 197.5 555t521.5 217zM399 725q0 -216 103.5 -352.5t294.5 -136.5q189 0 293 134.5t104 354.5
q0 231 -105.5 366.5t-293.5 135.5q-187 0 -291.5 -137t-104.5 -365z" />
    <glyph glyph-name="Ocircumflex" unicode="&#xd4;" horiz-adv-x="1593" 
d="M934 1886l226 -291h-236l-126 165h-2l-130 -165h-225l227 291h266zM797 1497q326 0 522.5 -218.5t196.5 -553.5q0 -327 -197.5 -543.5t-521.5 -216.5q-211 0 -375.5 97t-254 272.5t-89.5 390.5q0 338 197.5 555t521.5 217zM399 725q0 -216 103.5 -352.5t294.5 -136.5
q189 0 293 134.5t104 354.5q0 231 -105.5 366.5t-293.5 135.5q-187 0 -291.5 -137t-104.5 -365z" />
    <glyph glyph-name="Ograve" unicode="&#xd2;" horiz-adv-x="1593" 
d="M718 1886l197 -291h-203l-315 291h321zM797 1497q326 0 522.5 -218.5t196.5 -553.5q0 -327 -197.5 -543.5t-521.5 -216.5q-211 0 -375.5 97t-254 272.5t-89.5 390.5q0 338 197.5 555t521.5 217zM399 725q0 -216 103.5 -352.5t294.5 -136.5q189 0 293 134.5t104 354.5
q0 231 -105.5 366.5t-293.5 135.5q-187 0 -291.5 -137t-104.5 -365z" />
    <glyph glyph-name="Uacute" unicode="&#xda;" horiz-adv-x="1518" 
d="M1157 1886l-316 -291h-202l196 291h322zM457 1462v-918q0 -158 72.5 -233t228.5 -75q168 0 235.5 73.5t67.5 233.5v919h321v-919q0 -272 -158.5 -425t-465.5 -153q-309 0 -466 150.5t-157 427.5v919h322z" />
    <glyph glyph-name="Ucircumflex" unicode="&#xdb;" horiz-adv-x="1518" 
d="M895 1886l226 -291h-236l-126 165h-2l-130 -165h-225l227 291h266zM457 1462v-918q0 -158 72.5 -233t228.5 -75q168 0 235.5 73.5t67.5 233.5v919h321v-919q0 -272 -158.5 -425t-465.5 -153q-309 0 -466 150.5t-157 427.5v919h322z" />
    <glyph glyph-name="Ugrave" unicode="&#xd9;" horiz-adv-x="1518" 
d="M679 1886l197 -291h-203l-315 291h321zM457 1462v-918q0 -158 72.5 -233t228.5 -75q168 0 235.5 73.5t67.5 233.5v919h321v-919q0 -272 -158.5 -425t-465.5 -153q-309 0 -466 150.5t-157 427.5v919h322z" />
    <glyph glyph-name="dotlessi" unicode="&#x131;" horiz-adv-x="528" 
d="M410 1059v-1059h-291v1059h291z" />
    <glyph glyph-name="circumflex" unicode="&#x2c6;" horiz-adv-x="530" 
d="M399 1497l226 -291h-236l-126 165h-2l-130 -165h-225l227 291h266z" />
    <glyph glyph-name="tilde" unicode="&#x2dc;" horiz-adv-x="530" 
d="M129 1477q64 0 154 -36t139 -36q36 0 57.5 17t30.5 55h131q-23 -120 -80 -177t-149 -57q-72 0 -163 35t-138 35q-33 0 -56 -20t-37 -66h-129q19 119 86 184.5t154 65.5z" />
    <glyph glyph-name="macron" unicode="&#xaf;" horiz-adv-x="530" 
d="M627 1421v-153h-723v153h723z" />
    <glyph glyph-name="breve" unicode="&#x2d8;" horiz-adv-x="530" 
d="M53 1497q11 -65 67.5 -101t136.5 -36q93 0 149.5 33.5t74.5 103.5h129q-17 -141 -109.5 -216t-254.5 -75q-147 0 -230.5 74.5t-95.5 216.5h133z" />
    <glyph glyph-name="dotaccent" unicode="&#x2d9;" horiz-adv-x="530" 
d="M403 1464v-239h-276v239h276z" />
    <glyph glyph-name="ring" unicode="&#x2da;" horiz-adv-x="530" 
d="M266 1647q109 0 179.5 -70t70.5 -176q0 -107 -74 -176.5t-178 -69.5q-109 0 -179.5 71t-70.5 175q0 103 72.5 174.5t179.5 71.5zM135 1401q0 -59 34.5 -98t94.5 -39q59 0 95 37.5t36 99.5q0 59 -34.5 98t-95.5 39q-59 0 -94.5 -39t-35.5 -98z" />
    <glyph glyph-name="cedilla" unicode="&#xb8;" horiz-adv-x="530" 
d="M236 0h100l-80 -106l4 -5q20 9 44 12t39 3q78 0 126.5 -41.5t48.5 -116.5q0 -89 -67 -139.5t-191 -50.5q-75 0 -134 13.5t-101 31.5l43 98q37 -16 80 -26.5t81 -10.5q45 0 69 19.5t24 50.5t-24.5 49t-61.5 18q-19 0 -37 -3t-41 -13l-43 49z" />
    <glyph glyph-name="hungarumlaut" unicode="&#x2dd;" horiz-adv-x="530" 
d="M393 1497l-305 -291h-203l187 291h321zM817 1497l-305 -291h-203l187 291h321z" />
    <glyph glyph-name="ogonek" unicode="&#x2db;" horiz-adv-x="530" 
d="M369 0q-56 -58 -103 -120t-47 -123q0 -37 22.5 -58t53.5 -21q27 0 54.5 15t58.5 51l92 -53q-47 -72 -107 -103.5t-147 -31.5q-102 0 -162.5 46.5t-60.5 123.5q0 68 51.5 134.5t163.5 139.5h131z" />
    <glyph glyph-name="caron" unicode="&#x2c7;" horiz-adv-x="530" 
d="M141 1497l126 -165h2l130 165h226l-228 -291h-266l-225 291h235z" />
    <glyph glyph-name="Lslash" unicode="&#x141;" horiz-adv-x="1214" 
d="M463 1462v-569l432 303v-229l-432 -303v-394h713v-270h-1035v438l-164 -114v229l164 115v794h322z" />
    <glyph glyph-name="Scaron" unicode="&#x160;" horiz-adv-x="1329" 
d="M549 1886l126 -165h2l130 165h226l-228 -291h-266l-225 291h235zM645 1497q265 0 425 -123t160 -348h-311q-7 110 -75 165.5t-212 55.5q-98 0 -160.5 -43t-62.5 -123q0 -55 26 -82t106.5 -56.5t351.5 -93.5q182 -44 284 -149t102 -266q0 -212 -159 -340.5t-448 -128.5
q-276 0 -450 136t-174 376v8h311q2 -136 91 -203t233 -67q130 0 207.5 47.5t77.5 134.5q0 71 -59.5 116.5t-190.5 78.5q-168 38 -305 80.5t-226.5 138t-89.5 244.5q0 197 157.5 319.5t390.5 122.5z" />
    <glyph glyph-name="Yacute" unicode="&#xdd;" horiz-adv-x="1366" 
d="M1088 1886l-316 -291h-202l196 291h322zM344 1462l342 -577l340 577h358l-542 -901v-561h-322v569l-538 893h362z" />
    <glyph glyph-name="Zcaron" unicode="&#x17d;" horiz-adv-x="1327" 
d="M559 1886l126 -165h2l130 165h226l-228 -291h-266l-225 291h235zM1260 1462v-254l-785 -938h805v-270h-1233v254l784 938h-722v270h1151z" />
    <glyph glyph-name="Eth" unicode="&#xd0;" horiz-adv-x="1518" 
d="M784 1462q290 0 471 -190.5t181 -532.5t-175 -540.5t-485 -198.5h-635v655h-149v201h149v606h643zM791 856v-203h-328v-383h297q154 0 254 110.5t100 329.5q0 253 -106 367.5t-307 114.5h-238v-336h328z" />
    <glyph glyph-name="Thorn" unicode="&#xde;" horiz-adv-x="1366" 
d="M463 1462v-198h348q229 0 362.5 -129.5t133.5 -339.5q0 -211 -132.5 -340t-363.5 -129h-348v-326h-322v1462h322zM722 575q138 0 205.5 52.5t67.5 167.5t-68 167t-205 52h-259v-439h259z" />
    <glyph glyph-name="lslash" unicode="&#x142;" horiz-adv-x="528" 
d="M410 1462v-438l137 109v-209l-137 -109v-815h-291v586l-137 -109v209l137 109v667h291z" />
    <glyph glyph-name="scaron" unicode="&#x161;" horiz-adv-x="1100" 
d="M545 1087q216 0 333.5 -85.5t133.5 -251.5h-277q-6 75 -56 109t-143 34q-84 0 -122.5 -25t-38.5 -73q0 -49 50.5 -80.5t203.5 -60.5q244 -47 327.5 -121t83.5 -194q0 -180 -131.5 -274t-351.5 -94t-354.5 93.5t-143.5 279.5h277q0 -84 63.5 -131t159.5 -47q85 0 138 36.5
t53 98.5q0 55 -69 90t-253 73q-182 36 -263 103t-81 181q0 168 119 253.5t342 85.5zM432 1497l126 -165h2l130 165h226l-228 -291h-266l-225 291h235z" />
    <glyph glyph-name="yacute" unicode="&#xfd;" horiz-adv-x="1063" 
d="M299 1059l240 -725h4l231 725h301l-450 -1212q-40 -106 -123 -163t-215 -57q-63 0 -106.5 3t-89.5 8v239q53 -6 87 -8t65 -2q62 0 96 38t34 95q0 15 -2 29.5t-11 36.5l-373 993h312zM932 1497l-316 -291h-202l196 291h322z" />
    <glyph glyph-name="zcaron" unicode="&#x17e;" horiz-adv-x="1063" 
d="M979 1059v-219l-551 -621h590v-219h-973v219l551 621h-510v219h893zM411 1497l126 -165h2l130 165h226l-228 -291h-266l-225 291h235z" />
    <glyph glyph-name="eth" unicode="&#xf0;" horiz-adv-x="1251" 
d="M506 1522q79 -28 131 -52t94 -51l217 103l94 -121l-182 -84q161 -146 237.5 -331t76.5 -429q0 -259 -153 -422.5t-396 -163.5t-395 152t-152 389q0 226 128.5 375t352.5 149q93 0 163.5 -27.5t123.5 -74.5h4q-39 98 -91.5 169t-107.5 111l-237 -113h-3l-94 120l190 88
q-33 17 -80 38t-73 31zM369 527q0 -166 68.5 -251.5t187.5 -85.5q124 0 191 88.5t67 248.5q0 138 -69 226.5t-193 88.5q-116 0 -184 -85t-68 -230z" />
    <glyph glyph-name="thorn" unicode="&#xfe;" horiz-adv-x="1251" 
d="M401 1462v-538h5q49 80 127.5 121.5t174.5 41.5q224 0 352 -157.5t128 -411.5q0 -235 -126 -391t-339 -156q-97 0 -181 41.5t-136 118.5h-5v-504h-290v1835h290zM391 526q0 -152 65 -244t189 -92q121 0 186.5 88t65.5 248q0 152 -65 247t-191 95q-120 0 -185 -90
t-65 -252z" />
    <glyph glyph-name="brokenbar" unicode="&#xa6;" horiz-adv-x="457" 
d="M338 1354v-512h-219v512h219zM338 330v-512h-219v512h219z" />
    <glyph glyph-name="currency" unicode="&#xa4;" horiz-adv-x="1139" 
d="M973 1249l125 -125l-115 -112q47 -54 69.5 -131t22.5 -162q0 -97 -26.5 -174.5t-67.5 -124.5l113 -115l-113 -112l-117 118q-47 -45 -123 -73.5t-170 -28.5q-87 0 -166 24.5t-134 75.5l-115 -119l-115 115l117 119q-50 59 -74.5 133.5t-24.5 157.5q0 84 24 163.5
t75 131.5l-117 118l117 117l116 -115q51 44 134 69.5t165 25.5q75 0 151.5 -24t129.5 -68zM313 715q0 -125 71.5 -206t186.5 -81t182.5 81.5t67.5 209.5q0 123 -68 205t-182 82t-186 -82.5t-72 -208.5z" />
    <glyph glyph-name="onesuperior" unicode="&#xb9;" horiz-adv-x="799" 
d="M551 1679v-866h-209v549h-225v147h20q127 0 178.5 43.5t63.5 126.5h172z" />
    <glyph glyph-name="twosuperior" unicode="&#xb2;" horiz-adv-x="799" 
d="M420 1698q145 0 228 -69.5t83 -190.5q0 -82 -42 -141.5t-124 -111.5l-167 -103q-85 -52 -95 -105h422v-164h-657v6q0 138 44.5 222.5t151.5 150.5l158 98q53 33 77.5 66t24.5 81q0 45 -28.5 74t-77.5 29q-64 0 -95.5 -38t-35.5 -118h-205q0 146 91.5 230t246.5 84z" />
    <glyph glyph-name="threesuperior" unicode="&#xb3;" horiz-adv-x="799" 
d="M406 1698q136 0 217.5 -63.5t81.5 -168.5q0 -62 -35.5 -109.5t-99.5 -70.5q79 -15 124 -70.5t45 -146.5q0 -119 -98 -196.5t-250 -77.5q-155 0 -245.5 75t-90.5 209h197q8 -59 43 -91t102 -32t108.5 33.5t41.5 88.5q0 62 -36.5 92.5t-133.5 29.5h-45v141h55q58 0 93.5 27
t35.5 74q0 48 -32.5 74t-86.5 26q-64 0 -95.5 -33.5t-31.5 -101.5h-194q7 141 95.5 216t234.5 75z" />
    <glyph glyph-name="onequarter" unicode="&#xbc;" horiz-adv-x="1708" 
d="M1329 1479l-844 -1524h-178l848 1524h174zM506 1440v-867h-209v549h-225v148h27q88 0 129 18t68.5 53t37.5 99h172zM1501 866v-540h117v-156h-117v-170h-196v170h-385v172l395 524h186zM1305 641l-232 -315h232v315z" />
    <glyph glyph-name="onehalf" unicode="&#xbd;" horiz-adv-x="1708" 
d="M1288 1479l-844 -1524h-178l848 1524h174zM506 1440v-867h-209v549h-225v148h27q88 0 129 18t68.5 53t37.5 99h172zM1315 885q145 0 228 -69.5t83 -190.5q0 -86 -46 -147t-149 -125l-130 -80q-50 -30 -74 -56.5t-29 -52.5h422v-164h-657v6q0 144 47.5 227.5t162.5 154.5
l145 90q52 32 76.5 64.5t24.5 81.5q0 43 -28.5 73t-77.5 30q-63 0 -95 -38t-36 -118h-205q0 144 92 229t246 85z" />
    <glyph glyph-name="threequarters" unicode="&#xbe;" horiz-adv-x="1708" 
d="M1474 1479l-844 -1524h-178l847 1524h175zM426 1458q136 0 217.5 -63t81.5 -168q0 -64 -36 -111t-99 -69q84 -17 127 -72t43 -146q0 -120 -98.5 -197t-249.5 -77q-158 0 -247 76t-89 209h196q9 -63 45.5 -93t100.5 -30q68 0 108.5 32.5t40.5 88.5q0 63 -36.5 93.5
t-132.5 29.5h-46v141h55q64 0 97 28.5t33 71.5q0 45 -31.5 73t-87.5 28q-62 0 -94.5 -33t-32.5 -103h-195q7 139 94.5 215t235.5 76zM1563 866v-540h116v-156h-116v-170h-197v170h-385v172l395 524h187zM1135 326h231v315z" />
    <glyph glyph-name="minus" unicode="&#x2212;" horiz-adv-x="1229" 
d="M1133 627v-219h-1035v219h1035z" />
    <glyph glyph-name="multiply" unicode="&#xd7;" horiz-adv-x="1229" 
d="M290 1001l325 -327l328 327l156 -155l-330 -328l330 -328l-156 -155l-328 330l-329 -330l-156 155l330 328l-326 328z" />
    <glyph glyph-name="estimated" unicode="&#x212e;" horiz-adv-x="1577" 
d="M786 1462q306 0 501.5 -205t199.5 -542h-1092v-488q82 -80 178.5 -119.5t212.5 -39.5q175 0 300 80.5t223 244.5l94 -57q-130 -201 -270.5 -283t-345.5 -82q-306 0 -501.5 212t-195.5 532q0 324 195 535.5t501 211.5zM395 815h787v391q-83 78 -182.5 120t-217.5 42
q-107 0 -204 -39.5t-183 -122.5v-391z" />
    <glyph glyph-name="liter" horiz-adv-x="1024" 
d="M612 1477q140 0 225 -84.5t85 -223.5q0 -151 -94.5 -302t-299.5 -324v-232q1 -60 34.5 -96.5t90.5 -36.5q39 0 84.5 19.5t96.5 58.5h4l96 -147q-86 -72 -172 -105t-180 -33q-110 0 -187.5 42.5t-113 108.5t-35.5 160v74l-113 -98h-4l-100 154l215 176v484q0 175 107 290
t261 115zM528 782q82 88 122 180t40 191q0 59 -22.5 97t-57.5 38q-34 0 -58 -45.5t-24 -108.5v-352z" />
    <glyph glyph-name="uni25CC" unicode="&#x25cc;" horiz-adv-x="1866" 
d="M991 1374q0 -24 -16.5 -40.5t-40.5 -16.5q-23 0 -40 16.5t-17 40.5q0 23 17 40.5t40 17.5q24 0 40.5 -17.5t16.5 -40.5zM1251 1319q0 -23 -16 -40t-41 -17q-23 0 -40 17t-17 40q0 24 17 40.5t40 16.5q25 0 41 -16.5t16 -40.5zM1466 1174q0 -23 -16 -40.5t-41 -17.5
t-41 17.5t-16 40.5q0 24 16 41.5t41 17.5t41 -17.5t16 -41.5zM1610 956q0 -22 -16.5 -39.5t-41.5 -17.5q-22 0 -39.5 17.5t-17.5 39.5q0 25 17.5 41.5t39.5 16.5q25 0 41.5 -16.5t16.5 -41.5zM1661 705q0 -25 -16.5 -41.5t-40.5 -16.5q-23 0 -40.5 16.5t-17.5 41.5
q0 22 17.5 39.5t40.5 17.5q24 0 40.5 -17.5t16.5 -39.5zM1610 444q0 -24 -16.5 -40.5t-41.5 -16.5q-22 0 -39.5 16.5t-17.5 40.5q0 23 17.5 40.5t39.5 17.5q25 0 41.5 -17.5t16.5 -40.5zM1466 229q0 -22 -16 -39.5t-41 -17.5t-41 17.5t-16 39.5q0 23 16 40.5t41 17.5
t41 -17.5t16 -40.5zM1245 82q0 -23 -16.5 -40t-40.5 -17q-23 0 -40.5 17t-17.5 40q0 24 17.5 40.5t40.5 16.5q24 0 40.5 -16.5t16.5 -40.5zM991 35q0 -25 -16.5 -42.5t-40.5 -17.5q-23 0 -40 17.5t-17 42.5q0 22 17 39.5t40 17.5q24 0 40.5 -17.5t16.5 -39.5zM733 86
q0 -25 -17.5 -41t-39.5 -16q-25 0 -41.5 16t-16.5 41q0 23 16.5 40t41.5 17q22 0 39.5 -17t17.5 -40zM518 229q0 -22 -16.5 -39.5t-40.5 -17.5q-25 0 -41.5 17.5t-16.5 39.5q0 23 16.5 40.5t41.5 17.5q24 0 40.5 -17.5t16.5 -40.5zM371 451q0 -25 -17.5 -41.5t-40.5 -16.5
q-24 0 -40.5 16.5t-16.5 41.5q0 22 16.5 39.5t40.5 17.5q23 0 40.5 -17.5t17.5 -39.5zM319 705q0 -25 -16 -41.5t-41 -16.5q-24 0 -40.5 16.5t-16.5 41.5q0 22 16.5 39.5t40.5 17.5q25 0 41 -17.5t16 -39.5zM373 965q0 -25 -16.5 -41.5t-41.5 -16.5q-22 0 -39.5 16.5
t-17.5 41.5q0 22 17.5 39.5t39.5 17.5q25 0 41.5 -17.5t16.5 -39.5zM518 1174q0 -23 -16.5 -40.5t-40.5 -17.5q-25 0 -41.5 17.5t-16.5 40.5q0 24 16.5 41.5t41.5 17.5q24 0 40.5 -17.5t16.5 -41.5zM739 1323q0 -25 -17 -41t-40 -16q-25 0 -41 16t-16 41q0 23 16 40t41 17
q23 0 40 -17t17 -40z" />
    <glyph glyph-name="uni200C" unicode="&#x200c;" horiz-adv-x="68" 
d="M68 4h-68v2701h68v-2701z" />
    <glyph glyph-name="uni200D" unicode="&#x200d;" horiz-adv-x="68" 
d="M160 2513l-92 94v-2607h-68v2613l-100 -100l-35 37l129 129l-129 131l35 35l131 -129l129 129l37 -35l-129 -129v-2l129 -129z" />
    <glyph glyph-name="uni200E" unicode="&#x200e;" horiz-adv-x="66" 
d="M223 2513v125h-157v-2634h-66v2701h223v140l166 -166z" />
    <glyph glyph-name="uni200F" unicode="&#x200f;" horiz-adv-x="68" 
d="M68 2705v-2701h-68v2634h-158v-125l-166 166l166 166v-140h226z" />
    <glyph glyph-name="uni202A" unicode="&#x202a;" horiz-adv-x="1024" 
 />
    <glyph glyph-name="uni202B" unicode="&#x202b;" horiz-adv-x="1024" 
 />
    <glyph glyph-name="uni202C" unicode="&#x202c;" horiz-adv-x="1024" 
 />
    <glyph glyph-name="uni202D" unicode="&#x202d;" horiz-adv-x="1024" 
 />
    <glyph glyph-name="uni202E" unicode="&#x202e;" horiz-adv-x="1024" 
 />
    <glyph glyph-name="uni2002" unicode="&#x2002;" horiz-adv-x="1024" 
 />
    <glyph glyph-name="uni2003" unicode="&#x2003;" horiz-adv-x="2048" 
 />
    <glyph glyph-name="uni2009" unicode="&#x2009;" horiz-adv-x="205" 
 />
    <glyph glyph-name="uni200A" unicode="&#x200a;" horiz-adv-x="41" 
 />
    <glyph glyph-name="uni0647" unicode="&#x647;" horiz-adv-x="974" 
d="M448 618q-42 0 -71 -20t-47 -50.5t-26 -67t-8 -68.5q0 -85 37.5 -133t118.5 -48q67 0 107 43.5t40 134.5q0 39 -10 77t-29 67t-47 47t-65 18zM20 390q0 95 30.5 181.5t86.5 152t135 104t176 38.5q87 0 164.5 -31t135.5 -91.5t92 -149.5t34 -204q0 -77 -23 -149
t-73 -127.5t-130.5 -88.5t-195.5 -33q-89 0 -168 23.5t-137.5 72.5t-92.5 124t-34 178z" />
    <glyph glyph-name="uni06BE" unicode="&#x6be;" horiz-adv-x="1431" 
d="M246 436q0 75 18 143t50 124q-25 -2 -50 -2.5t-50 -1.5v211q31 4 68 7t75 5t74.5 3t66.5 1q196 0 350 -37.5t260.5 -123t162.5 -225t56 -343.5v-197h-1045q-13 0 -21 -8.5t-12 -24t-5.5 -36.5t-2.5 -46h-172q-12 31 -21.5 60.5t-15.5 55.5t-9 47t-3 34q0 55 20.5 87
t53 48t71.5 20.5t76 4.5h39q-17 44 -25.5 92.5t-8.5 101.5zM473 436q0 -40 7.5 -75t21 -61t31.5 -41t39 -15t39 15t31.5 41t21 61t7.5 75t-7.5 75t-21 61t-31.5 41t-39 15t-39 -15t-31.5 -41t-21 -61t-7.5 -75zM1049 269q0 76 -13.5 136t-38 105.5t-59 78t-76.5 54.5
q19 -46 29.5 -98t10.5 -109q0 -53 -8.5 -101.5t-25.5 -92.5h181v27z" />
    <glyph glyph-name="uniFBA5" horiz-adv-x="1000" 
d="M288 549q0 -27 6 -55t22.5 -50.5t45.5 -36.5t74 -14q26 0 54.5 2t59.5 13v290h-106q-79 0 -117.5 -40.5t-38.5 -108.5zM876 0q-51 0 -98.5 7.5t-87.5 26.5t-70.5 52t-46.5 84q-37 -8 -74.5 -13t-75.5 -5q-35 0 -78.5 6.5t-88.5 23t-87.5 44.5t-75.5 71t-53 102t-20 138
q0 115 41 195t105.5 130.5t143 73t154.5 22.5h362v-630q0 -25 3 -41.5t10.5 -26.5t21.5 -14t36 -4h103q17 0 32 -3t26 -14.5t17.5 -34.5t6.5 -63q0 -72 -19.5 -99.5t-62.5 -27.5h-124zM684 1172h-410v148h84q-11 17 -15.5 43t-4.5 45q0 48 17 84t44 60.5t61.5 37t69.5 12.5
t61.5 -6t49.5 -14v-139q-56 12 -78 12q-42 0 -59 -18.5t-17 -47.5t18 -49t68 -20h111v-148z" />
    <glyph glyph-name="uni06C2" unicode="&#x6c2;" horiz-adv-x="974" 
d="M448 618q-42 0 -71 -20t-47 -50.5t-26 -67t-8 -68.5q0 -85 37.5 -133t118.5 -48q67 0 107 43.5t40 134.5q0 39 -10 77t-29 67t-47 47t-65 18zM20 390q0 95 30.5 181.5t86.5 152t135 104t176 38.5q87 0 164.5 -31t135.5 -91.5t92 -149.5t34 -204q0 -77 -23 -149
t-73 -127.5t-130.5 -88.5t-195.5 -33q-89 0 -168 23.5t-137.5 72.5t-92.5 124t-34 178zM616 1055h-410v148h84q-11 17 -15.5 43t-4.5 45q0 48 17 84t44 60.5t61.5 37t69.5 12.5t61.5 -6t49.5 -14v-139q-56 12 -78 12q-42 0 -59 -18.5t-17 -47.5t18 -49t68 -20h111v-148z" />
    <glyph glyph-name="uni06C3" unicode="&#x6c3;" horiz-adv-x="974" 
d="M448 618q-42 0 -71 -20t-47 -50.5t-26 -67t-8 -68.5q0 -85 37.5 -133t118.5 -48q67 0 107 43.5t40 134.5q0 39 -10 77t-29 67t-47 47t-65 18zM20 390q0 95 30.5 181.5t86.5 152t135 104t176 38.5q87 0 164.5 -31t135.5 -91.5t92 -149.5t34 -204q0 -77 -23 -149
t-73 -127.5t-130.5 -88.5t-195.5 -33q-89 0 -168 23.5t-137.5 72.5t-92.5 124t-34 178zM122 1204q0 31 12 58t32.5 47.5t47.5 32.5t58 12t58 -12t47 -32.5t32 -47.5t12 -58t-12 -58t-32 -47.5t-47 -32t-58 -11.5t-58 11.5t-47.5 32t-32.5 47.5t-12 58zM466 1204q0 31 12 58
t32.5 47.5t47.5 32.5t58 12t58 -12t47 -32.5t32 -47.5t12 -58t-12 -58t-32 -47.5t-47 -32t-58 -11.5t-58 11.5t-47.5 32t-32.5 47.5t-12 58z" />
    <glyph glyph-name="uni06D5" unicode="&#x6d5;" horiz-adv-x="974" 
d="M448 618q-42 0 -71 -20t-47 -50.5t-26 -67t-8 -68.5q0 -85 37.5 -133t118.5 -48q67 0 107 43.5t40 134.5q0 39 -10 77t-29 67t-47 47t-65 18zM20 390q0 95 30.5 181.5t86.5 152t135 104t176 38.5q87 0 164.5 -31t135.5 -91.5t92 -149.5t34 -204q0 -77 -23 -149
t-73 -127.5t-130.5 -88.5t-195.5 -33q-89 0 -168 23.5t-137.5 72.5t-92.5 124t-34 178z" />
    <glyph glyph-name="uni0640" unicode="&#x640;" horiz-adv-x="311" 
d="M0 0q-17 0 -32 3t-26 14.5t-17.5 35t-6.5 64.5q0 72 19.5 98.5t62.5 26.5h311q17 0 32 -3t26.5 -14.5t18.5 -34.5t7 -63q0 -72 -20 -99.5t-64 -27.5h-311z" />
    <glyph glyph-name="uni0640.narrow" horiz-adv-x="242" 
d="M0 0q-17 0 -32 3t-26 14.5t-17.5 35t-6.5 64.5q0 72 19.5 98.5t62.5 26.5h242q17 0 32 -3t26.5 -14.5t18.5 -34.5t7 -63q0 -72 -20.5 -99.5t-63.5 -27.5h-242z" />
    <glyph glyph-name="uni0640.long" horiz-adv-x="414" 
d="M0 0q-17 0 -32 3t-26 14.5t-17.5 35t-6.5 64.5q0 72 19.5 98.5t62.5 26.5h414q17 0 32 -3t26 -14.5t17.5 -34.5t6.5 -63q0 -72 -20 -99.5t-62 -27.5h-414z" />
    <glyph glyph-name="uni064B" unicode="&#x64b;" 
d="M254 1688l-508 -72v100l508 72v-100zM254 1507l-508 -69v102l508 72v-105z" />
    <glyph glyph-name="uni064C" unicode="&#x64c;" 
d="M88 1714q23 0 39 5t27 10v14q0 54 -21 81t-53 27q-18 0 -31 -7t-21.5 -18t-13 -24t-4.5 -26q0 -19 8.5 -31t20.5 -19t25.5 -9.5t23.5 -2.5zM2 1561q56 0 89.5 22t47.5 53q-14 -5 -31.5 -7.5t-37.5 -2.5q-68 0 -110 38.5t-42 107.5q0 37 12.5 68.5t34.5 54.5t51.5 36
t63.5 13t65 -12t53.5 -36.5t36 -62.5t13.5 -90q0 -78 -20 -131t-54.5 -85t-80.5 -45.5t-97 -13.5q-44 0 -78.5 10t-62 27t-49 41t-39.5 51q-12 -5 -19.5 -8.5t-11.5 -6.5t-6 -5l-4 -4q-19 -11 -44.5 -23.5t-43.5 -23.5l-10 20l-12.5 24.5l-13 24.5t-12.5 21l209 117
q18 -37 38.5 -68.5t44.5 -54.5t53.5 -36t66.5 -13z" />
    <glyph glyph-name="uni064D" unicode="&#x64d;" 
d="M254 -412l-508 -71v102l508 72v-103zM254 -590l-508 -69v100l508 72v-103z" />
    <glyph glyph-name="uni064E" unicode="&#x64e;" 
d="M254 1507l-508 -69v102l508 72v-105z" />
    <glyph glyph-name="uni064F" unicode="&#x64f;" 
d="M16 1714q23 0 39 5t27 10v14q0 54 -21 81t-53 27q-18 0 -31 -7t-22 -18t-13.5 -24t-4.5 -26q0 -19 8.5 -31t21 -19t26 -9.5t23.5 -2.5zM-92 1561q69 0 107.5 22t52.5 53q-14 -5 -32 -7.5t-38 -2.5q-68 0 -110 38.5t-42 107.5q0 37 12.5 68.5t34 54.5t51 36t64.5 13
q34 0 63.5 -12t52 -36.5t35.5 -62.5t13 -90q0 -78 -19.5 -130t-55 -84t-84 -45.5t-105.5 -13.5q-26 0 -53 2.5t-50 8.5v90q29 -6 59 -8t44 -2z" />
    <glyph glyph-name="uni0650" unicode="&#x650;" 
d="M254 -412l-508 -71v102l508 72v-103z" />
    <glyph glyph-name="uni0651" unicode="&#x651;" 
d="M121 1452q-31 0 -63 11.5t-58 45.5q-13 -19 -30 -30.5t-34 -17.5t-33 -7.5t-28 -1.5q-74 0 -112.5 43t-38.5 131v146h106v-134q0 -45 12.5 -64.5t41.5 -19.5q11 0 22 3t19.5 12t14 25t5.5 42v99h106v-97q0 -25 5.5 -40.5t14.5 -24t19.5 -11.5t20.5 -3q32 0 41.5 19
t9.5 54v140h107v-146q0 -91 -37 -132.5t-111 -41.5z" />
    <glyph glyph-name="uni0652" unicode="&#x652;" 
d="M-170 1638q0 35 13.5 66t36 54.5t53 37.5t65.5 14q34 0 65 -14t54.5 -37.5t37 -54.5t13.5 -66q0 -36 -13.5 -67t-37 -53.5t-54.5 -35t-65 -12.5q-35 0 -65.5 12.5t-53 35t-36 53.5t-13.5 67zM-88 1640q0 -18 7 -34t19 -28t28 -19t34 -7t34 7t28 19t19 28t7 34
q0 38 -25.5 63.5t-62.5 25.5t-62.5 -25.5t-25.5 -63.5z" />
    <glyph glyph-name="uni0653" unicode="&#x653;" 
d="M-360 1776q30 30 57 49t52 30t47.5 15t43.5 4t46 -5.5t51.5 -14.5t53 -20.5t50.5 -23.5q45 -24 87 -36.5t73 -12.5q19 0 35 8.5t29 22t22 30.5t14 33l111 -47q-19 -47 -39 -83t-45 -61t-56 -37.5t-71 -12.5q-60 0 -110 15t-99 40q-48 20 -89.5 35.5t-76.5 15.5
q-31 0 -56.5 -9.5t-62.5 -35.5z" />
    <glyph glyph-name="uni0654" unicode="&#x654;" 
d="M166 1632h-410v148h84q-11 17 -15.5 43t-4.5 45q0 48 17 84t44 60.5t61.5 37t69.5 12.5t61.5 -6t49.5 -14v-139q-56 12 -78 12q-42 0 -59 -18.5t-17 -47.5t18 -49t68 -20h111v-148z" />
    <glyph glyph-name="uni0655" unicode="&#x655;" 
d="M166 -549h-410v148h84q-11 17 -15.5 42t-4.5 42q0 49 17 86t44 62t61.5 37.5t69.5 12.5t61.5 -6t49.5 -14v-142q-28 7 -47.5 10t-30.5 3q-42 0 -59 -18.5t-17 -47.5q0 -13 4 -25t14 -21.5t26.5 -15t41.5 -5.5h111v-148z" />
    <glyph glyph-name="uni0670" unicode="&#x670;" 
d="M-51 1815h108v-429h-108v429z" />
    <glyph glyph-name="uni0656" unicode="&#x656;" 
d="M-51 -201h108v-428h-108v428z" />
    <glyph glyph-name="uni0658" unicode="&#x658;" 
d="M219 1724v-174q0 -56 -16 -98t-44.5 -69.5t-68.5 -41.5t-88 -14q-50 0 -90.5 14t-69.5 42t-45 70t-16 97v174h135v-178q0 -43 22 -66.5t64 -23.5q38 0 60 23.5t22 66.5v178h135z" />
    <glyph glyph-name="uni0615" 
d="M395 1137v16q0 18 -3 35t-11 29.5t-23 20t-39 7.5q-48 0 -92 -29.5t-69 -78.5h237zM158 1292q43 44 83 61t91 17q85 0 132.5 -53.5t47.5 -147.5v-157h-567v125h96v419h117v-264z" />
    <glyph glyph-name="uni064C0651" 
d="M121 1452q-31 0 -63 11.5t-58 45.5q-13 -19 -30 -30.5t-34 -17.5t-33 -7.5t-28 -1.5q-74 0 -112.5 43t-38.5 131v146h106v-134q0 -45 12.5 -64.5t41.5 -19.5q11 0 22 3t19.5 12t14 25t5.5 42v99h106v-97q0 -25 5.5 -40.5t14.5 -24t19.5 -11.5t20.5 -3q32 0 41.5 19
t9.5 54v140h107v-146q0 -91 -37 -132.5t-111 -41.5zM141 2128q23 0 39 5t27 10v14q0 54 -21 81t-53 27q-18 0 -31 -7t-21.5 -18t-13 -24t-4.5 -26q0 -19 8.5 -31t20.5 -19t25.5 -9.5t23.5 -2.5zM55 1975q56 0 89.5 22t47.5 53q-14 -5 -31.5 -7.5t-37.5 -2.5q-68 0 -110 38.5
t-42 107.5q0 37 12.5 68.5t34.5 54.5t51.5 36t63.5 13t65 -12t53.5 -36.5t36 -62.5t13.5 -90q0 -78 -20 -131t-54.5 -85t-80.5 -45.5t-97 -13.5q-44 0 -78.5 10t-62 27t-49 41t-39.5 51q-12 -5 -19.5 -8.5t-11.5 -6.5t-6 -5l-4 -4q-19 -11 -44.5 -23.5t-43.5 -23.5l-10 20
l-12.5 24.5l-13 24.5t-12.5 21l209 117q18 -37 38.5 -68.5t44.5 -54.5t53.5 -36t66.5 -13z" />
    <glyph glyph-name="uni064D0651" 
d="M121 1894q-31 0 -63 11.5t-58 45.5q-13 -19 -30 -30.5t-34 -17.5t-33 -7.5t-28 -1.5q-74 0 -112.5 43t-38.5 131v146h106v-134q0 -45 12.5 -64.5t41.5 -19.5q11 0 22 3t19.5 12t14 25t5.5 42v99h106v-97q0 -25 5.5 -40.5t14.5 -24t19.5 -11.5t20.5 -3q32 0 41.5 19
t9.5 54v140h107v-146q0 -91 -37 -132.5t-111 -41.5zM275 1491l-508 -71v102l508 72v-103zM279 1685l-508 -71v102l508 72v-103z" />
    <glyph glyph-name="uni064B0651" 
d="M121 1452q-31 0 -63 11.5t-58 45.5q-13 -19 -30 -30.5t-34 -17.5t-33 -7.5t-28 -1.5q-74 0 -112.5 43t-38.5 131v146h106v-134q0 -45 12.5 -64.5t41.5 -19.5q11 0 22 3t19.5 12t14 25t5.5 42v99h106v-97q0 -25 5.5 -40.5t14.5 -24t19.5 -11.5t20.5 -3q32 0 41.5 19
t9.5 54v140h107v-146q0 -91 -37 -132.5t-111 -41.5zM254 2153l-508 -72v100l508 72v-100zM254 1972l-508 -69v102l508 72v-105z" />
    <glyph glyph-name="uni064E0651" 
d="M121 1452q-31 0 -63 11.5t-58 45.5q-13 -19 -30 -30.5t-34 -17.5t-33 -7.5t-28 -1.5q-74 0 -112.5 43t-38.5 131v146h106v-134q0 -45 12.5 -64.5t41.5 -19.5q11 0 22 3t19.5 12t14 25t5.5 42v99h106v-97q0 -25 5.5 -40.5t14.5 -24t19.5 -11.5t20.5 -3q32 0 41.5 19
t9.5 54v140h107v-146q0 -91 -37 -132.5t-111 -41.5zM266 1960l-508 -69v102l508 72v-105z" />
    <glyph glyph-name="uni064F0651" 
d="M121 1452q-31 0 -63 11.5t-58 45.5q-13 -19 -30 -30.5t-34 -17.5t-33 -7.5t-28 -1.5q-74 0 -112.5 43t-38.5 131v146h106v-134q0 -45 12.5 -64.5t41.5 -19.5q11 0 22 3t19.5 12t14 25t5.5 42v99h106v-97q0 -25 5.5 -40.5t14.5 -24t19.5 -11.5t20.5 -3q32 0 41.5 19
t9.5 54v140h107v-146q0 -91 -37 -132.5t-111 -41.5zM57 2124q23 0 39 5t27 10v14q0 54 -21 81t-53 27q-18 0 -31 -7t-22 -18t-13.5 -24t-4.5 -26q0 -19 8.5 -31t21 -19t26 -9.5t23.5 -2.5zM-51 1971q69 0 107.5 22t52.5 53q-14 -5 -32 -7.5t-38 -2.5q-68 0 -110 38.5
t-42 107.5q0 37 12.5 68.5t34 54.5t51 36t64.5 13q34 0 63.5 -12t52 -36.5t35.5 -62.5t13 -90q0 -78 -19.5 -130t-55 -84t-84 -45.5t-105.5 -13.5q-26 0 -53 2.5t-50 8.5v90q29 -6 59 -8t44 -2z" />
    <glyph glyph-name="uni06500651" 
d="M121 1706q-31 0 -63 11.5t-58 45.5q-13 -19 -30 -30.5t-34 -17.5t-33 -7.5t-28 -1.5q-74 0 -112.5 43t-38.5 131v146h106v-134q0 -45 12.5 -64.5t41.5 -19.5q11 0 22 3t19.5 12t14 25t5.5 42v99h106v-97q0 -25 5.5 -40.5t14.5 -24t19.5 -11.5t20.5 -3q32 0 41.5 19
t9.5 54v140h107v-146q0 -91 -37 -132.5t-111 -41.5zM266 1507l-508 -69v102l508 72v-105z" />
    <glyph glyph-name="uni06510670" 
d="M121 1452q-31 0 -63 11.5t-58 45.5q-13 -19 -30 -30.5t-34 -17.5t-33 -7.5t-28 -1.5q-74 0 -112.5 43t-38.5 131v146h106v-134q0 -45 12.5 -64.5t41.5 -19.5q11 0 22 3t19.5 12t14 25t5.5 42v99h106v-97q0 -25 5.5 -40.5t14.5 -24t19.5 -11.5t20.5 -3q32 0 41.5 19
t9.5 54v140h107v-146q0 -91 -37 -132.5t-111 -41.5zM-47 2276h108v-429h-108v429z" />
    <glyph glyph-name="uni06540651" 
d="M166 1632h-410v148h84q-11 17 -15.5 43t-4.5 45q0 48 17 84t44 60.5t61.5 37t69.5 12.5t61.5 -6t49.5 -14v-139q-56 12 -78 12q-42 0 -59 -18.5t-17 -47.5t18 -49t68 -20h111v-148zM251 2401l-508 -72v100l508 72v-100zM251 2220l-508 -69v102l508 72v-105z" />
    <glyph glyph-name="uni0654064E" 
d="M166 1632h-410v148h84q-11 17 -15.5 43t-4.5 45q0 48 17 84t44 60.5t61.5 37t69.5 12.5t61.5 -6t49.5 -14v-139q-56 12 -78 12q-42 0 -59 -18.5t-17 -47.5t18 -49t68 -20h111v-148zM254 2189l-508 -69v102l508 72v-105z" />
    </font>
</defs>
</svg>
